<?xml version="1.0" standalone="no"?>
<!DOCTYPE svg PUBLIC "-//W3C//DTD SVG 1.1//EN" "http://www.w3.org/Graphics/SVG/1.1/DTD/svg11.dtd" >
<svg xmlns="http://www.w3.org/2000/svg">
<metadata></metadata>
<defs>
<font id="the_unseenregular" horiz-adv-x="1024" >
<font-face units-per-em="2048" ascent="1536" descent="-512" />
<missing-glyph horiz-adv-x="899" />
<glyph horiz-adv-x="0" />
<glyph horiz-adv-x="682" />
<glyph unicode=" "  horiz-adv-x="899" />
<glyph unicode="&#x09;" horiz-adv-x="899" />
<glyph unicode="&#xa0;" horiz-adv-x="899" />
<glyph unicode="!" horiz-adv-x="333" d="M55 1248q2 38 13 63l14 7t12 7q6 0 8 -2q16 -6 15.5 -18.5t-15.5 -18.5q0 -6 -4 -18q6 27 45 35v6v2l27 16q8 -4 16 -10q14 -10 21 -21l-14 -26q-2 0 -4.5 -1t-4.5 -1q12 -72 2 -149t-10 -152q8 -55 12 -113q2 -27 3.5 -52.5t1.5 -51.5q10 -86 16 -172t-6 -175q0 -2 1 -3 t1 -3l-15 4q-8 0 -14 1t-12 1q-16 92 -15 184.5t-2 184.5q-2 10 -3 22.5t-1 22.5q-2 -94 -1 -188t3 -189v-47l-41 4v47q-4 147 -18 290t-18 290q0 27 -4.5 65.5t-7.5 79.5t-1 79zM55.5 100q1.5 23 14 39.5t31 23.5t32.5 -3q23 16 50.5 18t49.5 -20q37 -35 18.5 -66 t-58.5 -47l-23 -25q-4 -12 -20 -16l-11 2q-20 -4 -35 8q-20 14 -24 39l-6 6q-20 18 -18.5 41zM96 1249q-4 -53 3 -117.5t10 -105.5v-37q0 2 1 4t1 6l6 70q-4 29 -9.5 57.5t-7.5 57.5q-2 23 -3 38t-1 27zM127 94q12 10 26.5 18.5t26.5 12.5l25 -6q4 -12 4 -17q8 18 0 25.5 t-22.5 5.5t-31 -11t-24.5 -22zM139 1233q0 8 1 14t1 15h-2v-29z" />
<glyph unicode="&#x22;" horiz-adv-x="491" d="M53 1241q0 10 1 18.5t3 18.5q2 41 3 79t1 73q0 23 18.5 24.5t22.5 -20.5v-17l11 4q14 -25 21 -76t10 -109t3 -109.5v-75.5v-31t-2 -42.5t-7 -42t-17 -30.5q-10 4 -18.5 6t-18.5 4q-2 2 -2 7q-14 0 -21 16q-2 78 -7 152.5t-1 150.5zM100 1266q0 -107 6 -211q0 31 -1 91 t-5 120zM246 1346.5q0 23.5 4 39.5v3q0 16 13 21t22 -5l14 -6q6 -12 10 -23.5t8 -23.5q4 23 7.5 45t5.5 45l41 -4v-39h-4q-10 -53 -8.5 -125t5 -144.5t2.5 -136t-16 -96.5q-10 2 -20.5 3t-20.5 1q-4 10 -7 22.5t-7 24.5l-16 -2l-13 -2v2q-16 88 -18 177t0 180q-2 20 -2 43.5 zM315 1073l4 -20v39z" />
<glyph unicode="#" horiz-adv-x="937" d="M-14 678q-6 0 20 4l80 10q-29 2 -49.5 5t-32.5 12q0 6 -1 12t-1 12q0 2 1 3t1 3q10 10 20.5 9.5t14.5 -9.5q18 -4 34.5 -4t35 1t43 4t59.5 5q0 41 2 84t8 86q4 25 13.5 62t17.5 61v4h2q0 6 4 15q2 2 2 4l33 -17q2 -16 2 -30.5v-28.5q10 4 18.5 -1t10.5 -17v-217l182 18 q-2 51 -2 101.5v101.5q0 18 14 22t23 -8q10 70 24 131l33 14l8 -12h2v-2q10 -23 16.5 -63.5t8.5 -90t2 -99.5t-2 -89l-15 6q119 6 242 6h29l-23 -41h-32l-140 -4h-25.5t-27.5 -2q25 -4 48.5 -9t47.5 -5q23 -4 23 -20.5t-23 -20.5q-49 2 -97 15.5t-99 19.5q-10 2 6 3t38.5 2 t40 2t5.5 1v-29q0 -45 1 -57t2 -19.5t2 -19.5t1 -57q47 2 67.5 4t35 3t35 1h69.5l8 -31l8 -10h-8q-29 -16 -59.5 -15t-65.5 -3l-82 -11h84q23 -4 23 -20.5t-23 -20.5h-38h-5l-6 -1t-41 -1q0 -53 1 -88t2 -64.5t1 -64.5v-88l-10 -2q-8 -4 -15.5 -10t-15.5 -12v20 q-10 25 -16 50.5t-13 49.5v-55t2 -55q-4 -18 -19 -19.5t-21 15.5q0 53 -2.5 88t-4.5 67.5t-5 69.5t-5 94q-53 -2 -70.5 -4t-28.5 -4l-27.5 -5t-67.5 -5v-23q2 -43 2 -66.5t-1 -42t-4.5 -42t-9.5 -66.5v-4q-8 2 -16 2h-16v-47q-4 -23 -22.5 -20.5t-18.5 24.5q0 49 -1 80 t-2.5 57.5t-2.5 57t-3 82.5l-108 -25q-6 -4 -12.5 -7t-14.5 -3l-18 4l-6 6l12 37l51 6q-31 2 -54.5 5t-39.5 13q4 10 7 18.5t7 18.5h6q14 -4 17 -8q18 -6 28.5 -6t24.5 2t35.5 6t60.5 8l-12 123q-2 12 -2 25.5v28.5q-53 -8 -76.5 -14.5t-40 -10.5t-35 -5t-57.5 3h-2 q2 10 2 20.5v20.5q27 2 20.5 2h-18.5h-18zM256 739q2 -63 4 -125.5t6 -124.5q2 0 4 1.5t4 1.5v4q-4 61 -9 121.5t-9 121.5zM270 414q0 -10 1 -18.5t1 -18.5v37h-2zM324 498q51 6 67.5 12t26.5 11t26.5 9.5t69.5 8.5q-2 37 -3 43l-1 6l1 6q1 6 1 43l-4 82q-51 -4 -66.5 -9 t-24.5 -10.5t-25.5 -11.5t-67.5 -12v-178zM332 457q37 2 39 5t-4.5 5t-4 3t38.5 3l115 12v13q-51 -4 -67.5 -8.5t-24.5 -9.5t-24.5 -11t-67.5 -12zM551 508q-12 0 4 -1t38.5 -2t39 -1t4.5 0v-6q2 0 4 1t4 1zM555 602q0 31 1 60.5t3 60.5l31 4v-70v-48t1 -9t2 -10t1 -47 q-8 -2 -16.5 -2h-16.5q-2 41 -3 85t-1 93q0 10 0 -10.5t-1 -48t-1 -48t0 -10.5zM561 770q6 0 13.5 1t15.5 1q0 41 -1 79t-1 79v22q0 10 -1 22.5t-1 26.5q-18 -113 -25 -231zM563 489l33 5v8q-10 -2 -17.5 -1t-15.5 -1v-11zM567 438q2 -35 5 -47t7.5 -20.5t10.5 -20.5t12 -45 l-4 133h-31z" />
<glyph unicode="$" horiz-adv-x="958" d="M-4 1034q10 23 18.5 48.5t28.5 41.5l27 23q47 57 99 92t132 45v4h4q25 6 57 6q20 4 39 7.5t35 1.5l15 -17q47 0 91 -7t86 -25.5t83 -51.5t84 -88q10 -14 21 -32.5t18.5 -40t9.5 -43t-6 -40.5l-7 -2q-4 -4 -10 -4h-2q-37 10 -69.5 43t-61.5 58q-6 6 -25.5 23.5t-27.5 21.5 q-4 4 3 6t11 6q-35 16 -60.5 27.5t-66.5 23.5q-49 14 -90 23.5t-77 10.5t-70.5 -8t-71.5 -30q-27 -25 -45 -50.5t-29 -53.5q-10 -23 -14 -47.5t-8 -49.5q33 -23 76 -37t79 -20q72 -8 144.5 -8t142.5 -12.5t134.5 -46t119.5 -109.5l35 -31q25 -23 30 -55.5t15 -63.5 q14 -41 11 -84t-15 -81q-14 -53 -58 -103q-72 -88 -185.5 -126t-235.5 -40q-27 0 -71 13.5t-89 29.5q-10 -4 -23 2l-22 15l-70 28q-2 0 -3 1t-3 1t-2 2l-2 5q-29 10 -56.5 19t-54.5 19v39q25 0 52.5 -8t56.5 -18q-27 20 -43.5 41.5t-5.5 38.5q6 10 15 9t17 -7l9 8l24 -29 q33 -25 83 -46t91 -44q4 12 25 6q23 -10 27 -33q16 0 29.5 -1t25.5 3q49 8 101 31t98.5 56.5t83 74.5t53.5 86q12 33 18 68q-10 14 -20.5 27.5t-24.5 23.5q-53 39 -107.5 59.5t-109.5 34t-110.5 27.5t-112.5 39q-10 2 -27.5 9t-40 17.5t-47 22.5t-45.5 27q-41 14 -72.5 32.5 t-38.5 42.5q-8 31 -21 65t-1 58zM76 1036q-4 -18 6 -35l14 68q4 14 12.5 31.5t20.5 34.5q-29 -29 -49 -70q-4 -8 -4 -29zM135 895q6 -12 19 -25q61 -23 120.5 -31t117 -12t116.5 -12t121 -33q16 -6 47 -17t65 -28q-51 33 -110.5 52.5t-117.5 30.5t-113.5 17.5t-98.5 16.5 q-23 4 -51.5 9t-59.5 16zM276 793q63 -18 138 -37t143 -38.5t121 -41.5t78 -49q14 -18 30 -29q2 4 2 10t5 13q-14 18 -23.5 39.5t-30.5 35.5q-43 31 -102 47.5t-123.5 24.5t-126 12t-111.5 13zM336 188q10 -4 17.5 -4t15.5 -2q25 -4 54.5 -5t61.5 3h-43q-27 2 -50 3t-50 5 h-6zM365 455q-4 244 0 484.5t8 483.5q8 16 22.5 15.5t18.5 -19.5q-2 -242 -7.5 -481.5t-0.5 -480.5v-76t2 -74q4 43 6 87t4 89q4 102 11 202.5t13 203.5q-2 20 -3 39.5t-1 40.5q-4 111 -4 222t-12 222q0 23 18.5 25t22.5 -21l6 -67q0 10 1 18t3 18l25 -2l16 2v-4 q4 -66 -3 -133t-13 -133q-2 -8 -2 -24l-11 -185l-2 -14q10 -135 24.5 -268t24.5 -269q4 -51 4.5 -100t2.5 -100q14 -4 16 -19q-2 -14 -3 -36.5t-11 -34.5q-10 4 -18.5 6t-18.5 4q-6 70 -7 139.5t-5 138.5q-4 51 -8.5 101.5t-10.5 103.5v-197q0 -53 1 -98t2 -86t-1 -82 t-8 -86l-41 -4q0 4 -1 6t-1 4q0 8 4 17v4q-20 4 -31 4q-27 102 -28.5 205.5t-3.5 208.5zM512 1206q41 -12 81 -29.5t79 -35.5q16 -8 28.5 -23.5t23.5 -34t24.5 -37t29.5 -32.5q-43 82 -105.5 128t-152.5 70l10 -10zM563 233l43 5l2 2q25 8 54.5 19t57.5 26.5t49.5 37 t25.5 52.5q6 45 6 94l-6 -10q-39 -61 -98.5 -124t-133.5 -102zM623 242q4 0 6 2q-2 0 -3 -1t-3 -1zM825 559q20 -27 21 -51q-2 -27 -2 -52.5t-4 -52.5q10 23 14 54q2 12 2 24.5v24.5q0 45 -25 104z" />
<glyph unicode="%" horiz-adv-x="1226" d="M10 958q-4 16 1 33t14 29q27 39 55 65l33 37q35 33 65.5 45.5t75.5 20.5q14 2 26.5 -4t22.5 -15q4 0 10.5 1t10.5 1q14 -4 18 -12t0 -16q12 -4 25.5 -9.5t27.5 -13.5q16 -8 39 -24.5t43.5 -38t34.5 -45t14 -45.5q0 -23 4.5 -49.5t-12.5 -45.5q-16 -20 -34.5 -41.5 t-43.5 -35.5q-57 -31 -116 -35q-74 -23 -150 -0.5t-135 69.5q-14 10 -18.5 26.5t-6.5 35.5q-2 20 0 45q0 6 -1 11t-3 11zM53.5 922q-0.5 -41 34.5 -66q16 -14 29 -18q-51 66 -43 163v3q-20 -41 -20.5 -82zM131 938q8 -39 43 -66.5t105 -29.5q12 -4 16 -8q33 23 49 58.5t8 72 t-44 68.5t-105 44q-8 4 -13 8q-35 -27 -51 -67.5t-8 -79.5zM261 62q1 26 14.5 52.5t32 51t28.5 41.5q16 25 28.5 55.5t22.5 50.5q10 27 20.5 52.5t20.5 50.5q61 156 111.5 314.5t97.5 318.5q27 90 50.5 181t64.5 177q10 4 18 5t18 3l5 -4q4 -12 4 -16l26 49q-4 12 6 22 q4 4 13 9q16 -12 28 -29q-25 -41 -42 -70.5t-32.5 -58.5t-28.5 -64.5t-26 -89.5q-8 -31 -13 -59.5t-9 -59.5l8 21l45 121q10 37 21.5 72.5t22.5 64.5t21.5 48.5t20.5 23.5t19 -4q14 14 26 20l27 -12q2 -2 2 -8q4 -14 -3 -20.5t-18 -6.5q-10 -10 -21 -30.5t-24.5 -47 t-27 -57.5t-25.5 -62q-12 -47 -24.5 -94t-26.5 -94q-33 -100 -68 -198.5t-69 -196.5l-25 -80q-12 -41 -28.5 -78t-34.5 -74l-15 -39q-23 -55 -41 -108t-32 -109l-13 -49q0 -6 -1 -11t-1 -9q-2 0 -10 4l-6 2l-15 4l-8 4q0 4 1 8t1 8l11 49q10 45 22 88.5t29 84.5l16 40 q27 68 54.5 135.5t52.5 135.5l6 18q12 39 22.5 78t20.5 80q-35 -86 -74 -166t-74 -166q-12 -31 -31.5 -99.5t-44 -138t-55 -123t-65.5 -55.5q-27 18 -26 44zM313 86q10 16 19.5 35.5t17.5 38.5q-14 -16 -25.5 -31.5t-11.5 -42.5zM319 1079q18 -12 33 -32.5t31 -49.5 q23 -43 10.5 -95t-47.5 -89q33 12 59.5 27.5t43.5 33.5q12 12 16 30t12 34q-10 18 -17.5 39t-23.5 33q-27 20 -57.5 37.5t-59.5 31.5zM627 868l16 45q14 49 25 99zM686 551q-6 57 19.5 92t69.5 52.5t99.5 17.5t107.5 -12.5t95 -36t62 -54.5q14 -20 33.5 -42.5t11.5 -47.5 q-4 -23 -9.5 -47t-25.5 -37q-12 -8 -27.5 -17t-31.5 -20l-19 -22q-12 -16 -33.5 -21.5t-48.5 -1.5q-53 -23 -109.5 -26t-97.5 26q-66 45 -87 97.5t-9 99.5zM739 442q14 -29 46 -48t83 -19q-78 16 -129 67zM762 584q-23 -39 6 -82q-14 49 -6 82zM800.5 578 q-10.5 -36 22.5 -99q6 -16 0 -24q8 -4 15.5 -8.5t17.5 -8.5l55 -24q29 -6 50 -2q18 2 45.5 9t52.5 21q16 47 -4.5 85t-57 63.5t-80 36t-75 -1t-42 -47.5zM1053 584q12 -16 22.5 -34t18.5 -34q4 -4 5 -10t5 -12v6q4 23 -10.5 44t-30.5 34z" />
<glyph unicode="&#x26;" horiz-adv-x="1071" d="M12 281.5q2 27.5 9.5 53t15.5 42.5l22 45q6 14 12.5 28.5t14.5 28.5q29 57 61.5 114.5t75.5 100.5l4 4q-14 20 -25.5 40t-21.5 42q-18 29 -34.5 54.5t-30.5 52.5q-29 31 -46.5 64.5t-19.5 76.5q0 8 -2 12q-16 49 -16 100.5t37 86.5q25 20 69 47l4 8t6 8q53 72 121 91.5 t138.5 4t138 -55.5t123.5 -83q12 -10 28.5 -28.5t29.5 -41t20.5 -46t1.5 -44.5q-23 -80 -78.5 -130t-116.5 -103q-20 -18 -43 -40.5t-47 -41.5l-96 -86q31 -41 57.5 -83t54.5 -83q66 -63 129.5 -116.5t122.5 -88.5q29 29 49.5 61t26.5 68v13.5t2 15.5l25 -2h16v-2 q0 -12 -4 -33q-14 -84 -64 -145q4 -2 9.5 -2t9.5 -4q35 41 60.5 77.5t39.5 69.5q0 4 -4 4q-10 16 -1 27.5t26 5.5l16 -12l8 -25q-18 -47 -48 -87t-64 -75q61 -27 120 -63q18 16 33 -8l6 -17q31 -23 45.5 -45t-2.5 -43q-20 0 -30 -2q-31 31 -45 66q-31 20 -75 39.5t-85 38.5 l-23 -23l-2 -2q57 -39 113.5 -77t107.5 -85q16 -16 5 -29.5t-29 -3.5l-12 9l-7 -9q-10 -4 -13 -4t-19 4q-12 -8 -25 0q-43 23 -89 58t-93 76q-39 -37 -76 -63t-78 -43t-89 -24.5t-110 -7.5q-29 0 -74.5 8.5t-91.5 24.5t-82 42t-42 60l-2 3l-37 36q-14 16 -18.5 42t-2.5 53.5 zM37 280.5q-2 20.5 8 41.5q27 61 52.5 107t51 83t53 67.5t62.5 63.5l-37 55l19 17q-31 39 -59.5 76.5t-55.5 78.5q-4 4 -8 8.5t-8 8.5q-10 16 -16.5 30.5t-12.5 30.5q-8 16 -18.5 40t-20.5 52q-8 59 25 113q12 39 34.5 75t53.5 62q35 29 88 39l-21 -12q23 10 47.5 18 t49.5 13q-43 -4 -76 -19q39 6 81 1t83 -21q-29 2 -66 -3.5t-76 -15.5q-33 -2 -67 -20l-15 -8q-12 -8 -18 -11l-6 -12q-2 -2 -2 -4v2q-4 -14 -8 -27.5t-9 -27.5l-28 -31l-6 -10q-4 -6 -9 -23v25q0 31 7 61q-41 -43 -35 -92q2 -20 7 -38.5t13 -39.5q8 -35 24.5 -70.5 t39.5 -66.5q6 -8 13 -14t13 -13q16 -41 33 -69q14 -23 27.5 -44.5t29.5 -43.5h5q33 29 66.5 43t74.5 37l14 8l2 2q14 14 38 35.5t48.5 47t50 53.5t43.5 56q-10 -35 -33.5 -66.5t-54.5 -60.5l-36 -39q-29 -29 -65 -58.5t-77 -61.5q10 -10 17 -23l-43 -39q23 -31 45 -60.5 t47 -60.5q-33 33 -65 66t-60 67q-41 -37 -80 -76.5t-66.5 -82.5t-42 -91.5t-8.5 -101.5q12 -115 62 -174q47 -16 106.5 -15t124 15t128 38t118.5 54q-41 39 -81 81t-79 87q-49 51 -97 105.5t-91 113.5q-72 -68 -128.5 -144.5t-70.5 -154.5q-12 -84 16.5 -136t81 -80.5 t118 -39t126.5 -6.5q-82 -29 -155.5 -23.5t-127.5 58.5q-6 4 -10 10q-8 4 -10 8l-55 46q-4 23 -11.5 45t-13.5 43.5t-8 42zM68 211v18.5t2 18.5q4 -12 8 -28t10 -30zM90 1065q0 -10 4 -31q2 -12 10 -26q-4 29 -3 55.5t1 54.5q-8 -31 -12 -53zM144.5 1024q13.5 -82 35.5 -139 l4 -15q29 -27 59.5 -50t53.5 -48q2 -4 10 -12q47 33 97.5 63.5t91.5 69.5q37 37 66.5 83t19.5 99t-46 99.5t-87 74.5q-76 16 -162 -4t-142 -63q-14 -76 -0.5 -158zM162 1237q84 45 184 51q-18 4 -38 5t-38 -3q-23 -4 -42 -11t-40 -17l-24 -23q0 -2 -2 -2zM244 76 q57 -16 125.5 0t134.5 53q-51 -14 -103.5 -24.5t-101.5 -20.5q-12 -4 -26.5 -5t-28.5 -3zM412 1309q33 -14 71 -35q18 -6 36 -12.5t34 -16.5q-29 23 -58.5 39.5t-64.5 22.5q-4 0 -9 1t-9 1zM416 526l39 -39zM428 51q2 0 3 1t3 1q35 2 65.5 8.5t59.5 20.5q27 14 60.5 37.5 t68.5 54.5l-22 19q-53 -47 -115 -83t-123 -59zM592 369q8 -10 15.5 -18.5t17.5 -16.5q16 -16 32.5 -29.5t32.5 -28.5q4 2 5 4.5t5 6.5q-29 18 -54 38.5t-54 43.5zM614 1196q8 -16 12.5 -33.5t8.5 -34.5q10 -27 1 -53t-13 -55l-7 -23q12 18 22.5 37t14.5 35q6 29 -4 56.5 t-16 56.5q-12 8 -19 14zM674 1188q6 -29 11 -57.5t9 -57.5v-14q4 10 8.5 19t4.5 18q0 47 -33 92zM735 242q8 -8 15 -11l18 19l-16 8q-4 -4 -8.5 -8t-8.5 -8z" />
<glyph unicode="'" horiz-adv-x="247" d="M53 1241q0 10 1 18.5t3 18.5q2 41 3 79t1 73q0 23 18.5 24.5t22.5 -20.5v-17l11 4q14 -25 21 -76t10 -109t3 -109.5v-75.5v-31t-2 -42.5t-7 -42t-17 -30.5q-10 4 -18.5 6t-18.5 4q-2 2 -2 7q-14 0 -21 16q-2 78 -7 152.5t-1 150.5zM100 1266q0 -107 6 -211q0 31 -1 91 t-5 120z" />
<glyph unicode="(" horiz-adv-x="436" d="M17 543.5q-11 124.5 1 247.5q2 51 7.5 100t13.5 96q4 23 7 42.5t7 39.5q14 59 35 121.5t55 114.5q8 12 21.5 23t28 22.5t25.5 24t15 26.5q10 18 26.5 14t12.5 -26l-6 -15q10 6 23.5 11.5t25.5 9.5l2 2v-2l2 2l25 -31l-12 -14q-14 -12 -29 -2q-78 -33 -125 -96.5 t-72 -149.5q41 78 105.5 140.5t157.5 103.5q6 -8 11 -16.5t9 -18.5q-33 -23 -63.5 -43.5t-59.5 -50.5q-96 -104 -134 -241.5t-34 -284t41 -291t92 -263.5q16 -27 35 -54.5t43 -64.5q4 -8 10.5 -24t14.5 -35q12 -14 25.5 -25.5t25.5 -25.5l-18 -33q-20 4 -51 47t-62 96 q-10 14 -17.5 28.5t-17.5 31.5q-31 57 -52.5 102t-25.5 51q-14 31 -26.5 69t-24.5 81q10 -41 19.5 -80t21.5 -78q49 -166 158 -295q12 -10 28.5 -22t29.5 -26.5t20.5 -31t3.5 -30.5l-21 -13q-18 4 -43.5 31t-52.5 62q-41 33 -57 67q-10 23 -20.5 42.5t-18.5 37.5 q-8 12 -14.5 25.5t-12.5 27.5q-23 47 -39 93.5t-35 121.5q-29 104 -40 228.5z" />
<glyph unicode=")" horiz-adv-x="452" d="M2 1313q4 10 9 18t12 17q92 -41 156.5 -103.5t105.5 -140.5q-25 86 -72 149.5t-125 96.5q-14 -10 -29 2l-12 14l25 31l2 -2v2l2 -2q12 -4 25.5 -9.5t23.5 -11.5l-6 15q-4 23 12.5 26.5t26.5 -14.5q4 -14 15 -26.5t24.5 -24t28 -22.5t22.5 -23q35 -51 55.5 -114t34.5 -122 q4 -20 7 -39.5t7 -42.5q8 -47 13.5 -96t7.5 -100q12 -123 0.5 -247t-39.5 -229q-18 -76 -34.5 -122t-39.5 -93q-6 -14 -12 -27.5t-15 -25.5q-8 -18 -18 -37.5t-20 -42.5q-16 -35 -58 -67q-27 -35 -52.5 -61.5t-43.5 -31.5l-21 13q-4 14 3.5 30.5t20.5 31t29.5 26.5t28.5 22 q109 129 158 295q12 39 21.5 78t19.5 80q-12 -43 -24.5 -81t-26.5 -69q-4 -6 -25.5 -51t-52.5 -102q-10 -16 -17.5 -30.5t-17.5 -29.5q-31 -53 -61.5 -96t-50.5 -47l-19 33q12 14 25.5 25.5t25.5 25.5q8 18 14.5 34.5t10.5 24.5q25 37 43 65t35 54q55 119 92 263.5t41 291 t-34 283.5t-134 242q-29 31 -59.5 51t-63.5 43z" />
<glyph unicode="*" horiz-adv-x="1038" d="M14 754q2 10 3 21t1 22h2q70 18 146 30q-35 2 -67.5 3t-67.5 1h-11q2 10 2.5 20.5t0.5 20.5q98 0 197 -4t198 0q16 0 24 2q-8 88 -13 174t-5 175q-6 6 -6 18q0 8 2 12q10 2 31 2q10 4 20 -4q0 13 2 19q2 8 14 12q-2 6 -2 18h41q14 -102 6 -207.5t-6 -209.5v-2l129 12 q80 8 161 14t163 6h6l10 -41h-16q-80 -6 -160 -10t-160 -10q-35 -4 -66.5 -7t-66.5 -7q0 -8 1 -14.5t1 -14.5q92 6 180.5 14t178.5 23q4 10 16 12l29 -4h2v-14l4 -25q-2 0 -4 -2h-4q-98 -20 -197.5 -30.5t-202.5 -16.5q8 -123 16.5 -244t6.5 -244l-31 -4q-6 0 -10 -4v4l-2 2 q-14 4 -16 17q-4 98 -13 196q-2 -29 -4 -54t-6 -54l6 -55q4 -10 -1 -18.5t-19 -10.5h-2l-19 16q-14 70 -0.5 143.5t17.5 139.5q2 35 3 70.5t1 70.5q-2 8 -2 25q-111 -4 -218.5 -3t-213.5 1q-4 -2 -9 -2zM117 539q72 68 147.5 131t145.5 135l8 8t8 10q-66 59 -128 118.5 t-122 123.5q-10 2 -16 10q-2 4 -4 5t-2 5q12 16 20 23q4 10 19 10q-4 4 -7.5 8.5t-5.5 8.5q-2 6 2 18q-4 2 -7 5l-7 7l31 27q82 -66 147.5 -147.5t136.5 -157.5v-2l88 96q53 59 108.5 119.5t115.5 116.5l4 4l35 -23l-13 -12q-53 -59 -109.5 -115.5t-109.5 -116.5 q-23 -27 -44 -51t-44 -49q4 -6 10 -10t11 -10q61 66 121.5 132t115.5 138q-4 8 4 20l23 17l2 2l10 -10l20 -17q-2 0 -2 -2v-2l-4 -2q-57 -82 -122.5 -157.5t-137.5 -149.5q88 -84 176 -167t172 -175l-20 -23q-4 -8 -4 -10l-2 2h-4q-14 -4 -23 2q-35 35 -70.5 69t-72.5 66 q18 -23 34.5 -43t32.5 -43l41 -37q10 -4 12.5 -14t-8.5 -20v-2h-26q-29 20 -52.5 47.5t-45 56.5t-41 58.5t-39.5 56.5q-23 27 -46.5 53.5t-48.5 52.5q-6 4 -18 17q-78 -78 -158 -152t-157 -145q-2 -4 -4 -7q-6 10 -12.5 18.5t-14.5 16.5h2q20 33 41.5 62.5t44.5 60.5 q-51 -43 -102 -90l-9 -6q-6 10 -12 16t-14 15zM225 797q57 0 112.5 1t113.5 3l-5 26q-55 -6 -111.5 -13t-109.5 -17zM317 621q41 41 81 78.5t81 78.5l-20 17q-37 -43 -72 -86t-70 -88z" />
<glyph unicode="+" d="M43 522q2 10 3 21.5t1 21.5h2q70 18 146 31q-35 2 -68 3t-68 1h-10q2 10 2 20.5v20.5q98 0 197.5 -4t197.5 0q16 0 25 2q-8 88 -13 174t-5 174q-6 6 -7 19q0 8 3 12q10 2 30 2q10 4 21 -4q0 12 2 18q2 8 14 13q-2 6 -2 18h41q14 -102 6 -207.5t-6 -210.5v-2l129 12 q80 8 161 14.5t163 6.5h6l10 -41h-16q-80 -6 -160 -10t-160 -11q-35 -4 -66.5 -7t-66.5 -7q0 -8 1 -14t1 -15q92 6 180 14.5t178 22.5q4 10 17 13l29 -5h2v-14l4 -24q-2 0 -4 -2h-5q-98 -20 -197 -30.5t-202 -17.5q8 -123 16.5 -243.5t6.5 -243.5l-31 -4q-6 0 -10 -4v4l-2 2 q-14 4 -17 16q-4 98 -12 197q-2 -29 -4 -54.5t-6 -54.5l6 -55q4 -10 -1 -18.5t-20 -10.5h-2l-18 17q-14 70 -1 143.5t17 138.5q2 35 3 71t1 71q-2 8 -2 24q-111 -4 -218 -3t-214 1q-4 -2 -8 -2zM254 565q57 0 112.5 1t112.5 3l-4 27q-55 -6 -111.5 -13.5t-109.5 -17.5z" />
<glyph unicode="," horiz-adv-x="385" d="M35 -178q-6 23 10 29t27 -13q2 -4 14 -4q-8 4 -10 12.5t6 18.5q35 35 45 76t12 86q-24 6 -53 6q-18 6 -18 21.5t18 19.5q31 0 55 -6q4 12 15 12q0 6 2 10q-27 -4 -51.5 -9t-38.5 -5q-18 6 -18.5 21.5t18.5 19.5q37 2 73.5 7t71.5 5q20 0 32.5 -12.5t16.5 -29.5t5 -35.5 t1 -33.5q0 -14 -1 -27.5t-3 -27.5q4 -31 -6 -62.5t-32.5 -60t-58.5 -50t-83 -32.5q-16 -2 -22.5 10.5t4.5 22.5q-23 6 -31 31zM127 -147q2 0 4 -3q12 8 14 9q14 8 25.5 19t22.5 26q8 18 13 38t7 40q-14 20 -35 30q-2 -43 -12 -84t-39 -75z" />
<glyph unicode="-" horiz-adv-x="917" d="M43 569q2 10 3 21.5t1 21.5h2q70 19 146 31q-35 2 -68 3t-68 1h-2h-8q2 10 2 20.5v20.5q49 0 72.5 -1t42 -3t42 -2t73.5 2q10 0 21 1t24 1q47 6 95 10t97 9q80 8 161 14t163 6h6l10 -41h-16q-80 -6 -160 -10t-160 -10q-41 -4 -82 -8.5t-82 -8.5q-35 -4 -42 -7t-10 -7 t-11 -9.5t-41 -11.5q82 0 139.5 3t109.5 8.5t108.5 13.5t138.5 20q4 10 16 13l29 -4h2v-15l4 -24q-2 0 -4 -2h-4q-111 -23 -198 -33t-171 -15.5t-172 -5.5h-201q-4 -2 -8 -2z" />
<glyph unicode="." horiz-adv-x="333" d="M55.5 100q1.5 23 14 39.5t31 23.5t32.5 -3q23 16 50.5 18t49.5 -20q37 -35 18.5 -66t-58.5 -47l-23 -25q-4 -12 -20 -16l-11 2q-20 -4 -35 8q-20 14 -24 39l-6 6q-20 18 -18.5 41zM127 94q12 10 26.5 18.5t26.5 12.5l25 -6q4 -12 4 -17q8 18 0 25.5t-22.5 5.5t-31 -11 t-24.5 -22z" />
<glyph unicode="/" horiz-adv-x="655" d="M11 62q1 26 14.5 52.5t32 51t28.5 41.5q16 25 28.5 55.5t22.5 50.5q10 27 20.5 52.5t20.5 50.5q61 156 111.5 314.5t97.5 318.5q27 90 50.5 181t64.5 177q10 4 18 5t19 3l4 -4q4 -12 4 -16l26 49q-4 12 7 22q4 4 12 9q16 -12 29 -29q-25 -41 -42.5 -70.5t-33 -58.5 t-28.5 -64.5t-25 -89.5q-8 -33 -13.5 -63.5t-11.5 -63.5q2 8 4 14.5t6 14.5l45 121q10 37 21.5 72.5t23 64.5t21.5 48.5t20 23.5t19 -4q14 14 26 20l27 -12q2 -2 2 -8q4 -14 -3 -20.5t-17 -6.5q-10 -10 -21.5 -30.5t-25 -47t-27 -57.5t-25.5 -62q-12 -47 -24.5 -94 t-26.5 -94q-33 -100 -67.5 -198.5t-69.5 -196.5l-25 -80q-12 -41 -28.5 -78t-34.5 -74l-15 -39q-23 -55 -41 -108t-32 -109l-13 -49q0 -6 -1 -11t-1 -9q-2 0 -10 4l-6 2l-14 4l-9 4q0 4 1 8t1 8l11 49q10 45 22.5 88.5t28.5 84.5l16 40q27 68 54.5 135.5t52.5 135.5l6 18 q12 39 22.5 78t20.5 80q-35 -86 -74 -166t-74 -166q-12 -31 -31.5 -99.5t-44 -138t-55 -123t-65.5 -55.5q-27 18 -26 44zM63 86q10 16 19.5 35.5t17.5 38.5q-14 -16 -25.5 -31.5t-11.5 -42.5zM377 868l16 45q14 49 25 99z" />
<glyph unicode="0" horiz-adv-x="1335" d="M8 568.5q-6 93.5 6 195.5q2 37 17 94q2 53 14 105.5t47 99.5q70 92 129.5 153.5t127 101.5t149.5 63.5t196 39.5q43 6 86 -8t86 -22q66 -12 113 -50t84 -90q96 -76 160.5 -177t68.5 -206q4 -63 14.5 -127.5t-8.5 -124.5q-10 -29 -15 -60.5t-12 -62t-18.5 -59t-29.5 -53.5 q-82 -102 -136.5 -161.5t-107.5 -88.5q-29 -31 -62.5 -58.5t-70.5 -46t-78 -24.5t-86 4q-20 4 -65.5 11.5t-98.5 19.5q-70 -10 -138.5 -1t-123.5 54q-82 63 -134 139t-80 161t-34 178.5zM45 662q-4 -129 32 -255t120 -217q25 -25 45 -41t42.5 -28t47 -21.5t57.5 -19.5 q2 -2 6 -2q-33 14 -51 31q-23 16 -50.5 53t-55.5 84l-37 37q-74 78 -106 160.5t-36 172.5zM102 748q4 -41 12.5 -80t18.5 -74q25 -90 67 -189.5t111 -171.5q45 -33 101.5 -57t122.5 -37q61 -4 125.5 7.5t126 31t115.5 46t93 57.5q31 23 57.5 50t51.5 58q37 98 52 207t4 211 t-51 188t-112 140q-20 14 -43.5 23t-48 15.5t-49.5 11.5t-49 13q-20 10 -10 26.5t28 8.5q49 -16 98.5 -32t98.5 -34q23 -8 43 -25.5t37 -39.5l-19 39q-10 6 -32.5 20.5t-38.5 24.5q-51 35 -100.5 62.5t-114.5 25.5q-70 -2 -144.5 -12.5t-148.5 -31t-142.5 -53t-125.5 -77.5 l-13 -17q-51 -78 -80.5 -163.5t-40.5 -171.5zM360 1217q100 49 222 73q59 14 126.5 22.5t129.5 -1.5q25 -4 75 -23.5t101 -46.5l-21 12q-90 57 -182 78v-12q-53 8 -104.5 14t-102.5 2q-12 -4 -25.5 -7t-25.5 -7q-96 -35 -193 -104zM729 119h10q29 8 56 16.5t47 16.5 q-51 -20 -113 -33zM911 147q33 12 68 31q20 23 38 47.5t34 53.5q-37 -31 -84 -62q0 -8 -2 -12q-23 -33 -54 -58zM1104 274q68 74 107 170.5t49 200.5q-23 -147 -113 -264q-8 -29 -17.5 -56.5t-25.5 -50.5zM1137 1118l28 -55q27 -55 50.5 -108.5t37.5 -110.5 q-29 156 -116 274zM1153 991q18 -51 28.5 -108.5t15.5 -114.5t5 -111.5t-6 -97.5q25 74 29 150.5t-19 154.5q-10 31 -23.5 63.5t-29.5 63.5z" />
<glyph unicode="1" horiz-adv-x="628" d="M23 1202q53 39 119.5 78t113.5 92v14q0 14 8 20.5t19 2.5l6 8q14 16 29.5 6t5.5 -30l-5 -7h5l14 29l37 -10q0 -18 -2 -42t2 -44q8 -37 24.5 -69.5t16.5 -71.5q0 -68 -14.5 -137.5t-22.5 -139.5q-2 -10 -3 -21.5t-1 -21.5q4 -190 -2 -376.5t-4 -375.5q37 4 68.5 6.5 t51.5 2.5h7q0 -12 4 -29q20 4 39.5 7t40.5 5q23 -4 22.5 -20.5t-22.5 -20.5l-54 -6q20 -4 19.5 -20.5t-21.5 -20.5q-78 -6 -155 -6v-16q-10 0 -20.5 -1t-20.5 -3v20q-59 -2 -115.5 -2h-114.5q-18 6 -18 21.5t18 19.5h4l4 27h3q4 0 9 1t9 1l-10 6q-10 16 -1 27.5t25 5.5 q14 -8 45 -10.5t68 -2.5q0 29 2 58.5t6 58.5q-4 59 -4 110.5v73.5q-4 94 -11 192.5t-10.5 198t1 197.5t20.5 193q0 10 -1 19t-1 20q-59 -61 -115 -97l-65 -61q-10 4 -18.5 8t-18.5 8q8 18 19.5 33.5t21.5 32.5q-4 0 -9 -1t-12 -1l-12 28h-2l-4 7zM96 1200q16 -8 13 -24 q2 0 6 -5q14 10 28.5 19.5t28.5 19.5q41 39 84 72v29l-6 -4q-27 -23 -57.5 -43.5t-59.5 -38.5q-10 -8 -18.5 -13.5t-18.5 -11.5zM299 1212q4 -135 9 -266t9 -262l15 170q-2 109 -4 215.5t-2 212.5l-13 -8q-4 -14 -7 -30t-7 -32zM303 207q2 -23 4 -43.5t4 -36.5q6 0 15 -8 q-2 59 -4.5 120.5t-2.5 122.5v35l-14 -166q0 -6 -1 -12t-1 -12zM319 1292l7 -6v14zM367 1214q0 -23 1 -46t1 -46q2 14 3 28t1 28q0 18 -6 36z" />
<glyph unicode="2" horiz-adv-x="960" d="M-29 1139q10 23 16.5 46t26.5 38q55 39 117 67q82 53 184.5 83t198.5 28t177 -40t124 -118q37 -35 64.5 -79t23.5 -83q-4 -35 -1 -69.5t-13 -67.5q-80 -178 -198 -318.5t-263 -275.5l-41 -37q-18 -25 -37.5 -48t-40.5 -46q-31 -39 -61.5 -72.5t-65.5 -62.5 q57 -2 113.5 -7t112.5 -9q35 4 81 9t95 11t96 11t84 10q23 2 41 8t39 6v-25q16 4 22 -18v-6l-16 -19q-20 -4 -39.5 -8t-40.5 -6h-6q-10 -2 -18.5 -3t-18.5 -1h-53q35 -4 83 -10.5t91 4.5q4 10 18 16q10 0 16.5 -1t12.5 -3l6 -37q-27 -16 -99.5 -21t-159.5 -4t-176 7t-147 12 l-147 -8q-10 -2 -17.5 -2h-17.5l-147 -10l-6 38h4v2h2q4 0 5 1.5t3 1.5l-10 20q2 12 41 44t87 66.5t88 63.5t46 33l90 76q10 14 20.5 26.5t20.5 26.5l65 86q57 78 113.5 166t99.5 175t68 168t16 148q-2 29 -12 56.5t-33 46.5l-20 14q-25 8 -49.5 13t-42.5 10 q-94 20 -162 7.5t-126 -43t-116.5 -69.5t-132.5 -72q-18 -6 -28.5 9.5t10.5 27.5q43 18 82 46t80 53q119 72 237 84q-41 4 -70 0q-41 -6 -79.5 -19.5t-79.5 -30.5q-18 -8 -41 -18t-43.5 -22.5t-38 -24.5t-25.5 -23q12 -16 -4 -28l-8 -6l-10 6q-6 -10 -19 -11h-2v-2 q-8 -16 -23.5 -11t-15.5 24zM33 51l18 -4q14 8 27.5 14.5t25.5 16.5v2q0 6 5 14q-23 -10 -44.5 -18t-31.5 -25zM127 45h14q-4 0 -8 4zM406 1352q72 2 144 -9.5t146 -31.5q-57 37 -134 45t-156 -4zM522 496q70 70 135.5 145.5t113.5 151t73.5 148.5t15.5 136q-2 16 -10 35 q2 -11 2 -31q0 -51 -32 -123.5t-81 -152.5t-107.5 -161t-109.5 -148zM752 915q29 49 44 92t15 74q0 20 -2 40t-6 36q-6 -12 -19 -12q2 -47 -7 -96.5t-11 -75.5q-2 -16 -6 -29.5t-8 -28.5z" />
<glyph unicode="3" horiz-adv-x="966" d="M-8 162l18 24q35 2 69 -9t67.5 -26.5t66.5 -32t66 -24.5q86 -23 173 -13.5t171 32.5l2 2l-2 -2l26 8h-6l33 8q72 45 103.5 123t0.5 199q-23 82 -73 141q-23 25 -47.5 39t-52 23.5t-58.5 14.5t-64 15q-72 20 -138 19t-140 -11q-10 -2 -18.5 -5t-18.5 -5q-4 -4 -10 -4 q-2 0 -4 1t-4 1l-9 8l-6 4l-4 4q-6 29 17 47q-8 4 -13.5 10.5t-9.5 20.5q0 20 15.5 23.5t23.5 -13.5q0 -4 8 -6v21q0 23 18.5 24.5t22.5 -20.5v-8q25 -12 55.5 -14.5t59.5 1.5l41 6q86 14 172 51.5t143 104.5q25 31 34 53.5t3 42t-24.5 40t-45.5 44.5q-111 100 -203 137 t-186 35q-63 -20 -115.5 -56t-62.5 -89q-8 -16 -23.5 -11t-15.5 23q6 37 29 70q-14 -10 -28.5 -2t-6.5 26l2 3q-4 -2 -10 -3q-10 -2 -16.5 3.5t-7.5 12.5t3 14t15 11l67 15l4 4q-14 -2 -27.5 -3t-29.5 -1q-18 6 -18 21.5t18 19.5q47 4 90 12t86 18q88 35 181.5 42.5 t150.5 -29.5q35 -23 57.5 -37t37.5 -23.5t24.5 -17.5t17.5 -19l25 -18q33 -18 58.5 -37.5t40.5 -43t17 -52.5t-12 -68q0 -18 -1 -36.5t-3 -36.5q-2 -27 -7 -43.5t-14.5 -29.5t-21.5 -24.5t-27 -29.5q-37 -55 -77 -80q-33 -18 -72 -31q45 -10 87 -24.5t81 -43.5 q70 -49 110.5 -113.5t50 -136t-12 -144t-79.5 -136.5q-43 -49 -100 -83t-119.5 -56.5t-128 -36.5t-127.5 -25q-39 -6 -80 -14t-79 4q-41 14 -82 49t-76 64v30q4 0 4 2q-16 10 -30.5 23.5t-18.5 32.5zM59 139q18 -12 41 -26.5t45.5 -26.5t41 -21.5t28.5 -11.5q18 -8 38.5 -8 t41.5 2l-25 6q-51 14 -104 44t-107 42zM76 1235q18 27 45 43q-4 -2 -8 -2q-20 -16 -37 -41zM127 49q35 -29 78 -49q29 -12 71.5 -3t67.5 13q-80 0 -125 6.5t-92 32.5zM211 1333l53 4q72 16 139 17q-47 4 -92 -1.5t-90 -15.5q-2 0 -10 -4zM395 1321q59 -18 125 -58t158 -106 q39 -29 60.5 -67.5t25.5 -81.5q2 4 2 14v4q-2 66 -29.5 128.5t-74.5 109.5q-6 4 -13.5 6t-11.5 6q-102 45 -217 45h-25zM504 741q61 -12 114.5 -26.5t100.5 -36.5q-10 8 -22.5 14.5t-24.5 12.5q-39 16 -82 24t-86 12zM582 686q20 -10 38.5 -14t37 -9.5t37 -12.5t36.5 -25 q14 -12 28.5 -34t28 -46.5t22.5 -48t11 -41.5q18 -147 -18 -240q37 47 50 101.5t7 106.5t-31.5 101t-68.5 88q-35 31 -82 47.5t-96 26.5zM625 115h2l4 2q-2 -2 -6 -2z" />
<glyph unicode="4" horiz-adv-x="1005" d="M15.5 838q11.5 80 21.5 155q12 111 23.5 221.5t19.5 221.5q8 16 22.5 15t18.5 -19q-10 -158 -30.5 -312.5t-33.5 -314.5q12 47 25.5 95t23.5 95l7 160q2 29 2 65.5t4 74.5t14 72t35 56q12 4 18 4q4 0 7 -2l16 -18q6 -37 -7.5 -83t-19.5 -85q-10 -57 -16 -112.5 t-16 -110.5q-4 -70 -5.5 -142.5t2.5 -132.5q41 4 75 2t77 -6q106 -4 210.5 10.5t209.5 20.5h6q-6 96 -15.5 188.5t-23.5 178.5q-10 66 -29.5 130t-23.5 130q0 23 18.5 24.5t22.5 -20.5q4 -68 24.5 -131.5t28.5 -130.5q8 -68 15.5 -135.5t11.5 -137.5q10 125 17 249t7 251 l13 2l28 23v-21q37 -102 33 -202.5t-10 -209.5q-10 -96 -13 -186h105q23 -4 22.5 -20.5t-22.5 -20.5q10 -14 0 -24h49q23 -4 23 -20.5t-23 -20.5h-160q-2 -47 -3 -91.5t-1 -89.5q0 -137 -6 -274q-2 -33 -4 -64.5t-6 -64.5q4 -2 8 -14q0 -14 -1 -30t-11 -26l-35 4l-6 19h-2 q-10 18 -14.5 40.5t-4.5 47.5q-16 92 -13 195.5t7 187.5q0 27 1 53.5t3 52.5q-2 12 -2 24.5v27.5q-76 -2 -149.5 -4.5t-147.5 -6.5q-47 -4 -126 -10t-144 -10q2 -6 -4 -13.5t-17 -9.5q-2 0 -3 1t-5 1l-18 17l-2 2v2l-2 4q-18 -2 -37 -2h-37q-18 6 -18 20.5t16 20.5 q-2 0 -2 2l-2 2l-19 2q-12 78 -0.5 158zM68 707q6 -2 32 -2q-2 0 -4 2l-12 22l4 8q8 12 14 15v55zM774 567q2 -20 1 -61t1 -92q0 121 6 248h-4q-2 -23 -3 -47.5t-1 -47.5zM786 770h2v6q0 -2 -1 -3t-1 -3zM797 887q8 74 15 151.5t3 149.5z" />
<glyph unicode="5" horiz-adv-x="940" d="M17 775q1 22 2 41.5t3.5 34.5t2.5 21q2 66 8 132.5t12 134.5q-6 59 -9 115.5t3 103.5q4 0 10 1t12 1v14q0 2 2 4l-6 2h-10q0 10 -1 20.5t-1 20.5h12q29 -2 47.5 -7t38.5 -11q31 2 64 -1t57 -3h41q117 6 230.5 21.5t230.5 17.5q10 10 24.5 5t10.5 -26q0 -4 -2 -8l-21 -12 q-29 0 -54.5 -1t-51.5 -3q39 -4 67.5 -12.5t38.5 -18.5q4 -8 8 -25q-6 -20 -28.5 -23t-51 1t-57 11t-45.5 7q-92 2 -190.5 1t-192.5 9q-4 0 -9 1.5t-9 1.5q-14 -4 -27.5 -6.5t-25.5 -2.5q0 -117 8 -238.5t10 -240.5q80 33 182 33q86 0 171 -20.5t161 -61.5q70 -37 114 -89 t64.5 -114.5t19.5 -132.5t-20 -141q-12 -45 -49 -84q-12 -47 -45 -76q-20 -23 -33.5 -36t-28 -23.5t-32 -19.5t-45.5 -25q-18 -10 -43 -17.5t-51.5 -13.5t-53 -9t-47.5 -5q-92 -8 -191.5 4t-185.5 43h-2q-2 0 -4 2l6 39l129 -23l-4 14l10 25l-20 6q-25 0 -46.5 3t-47.5 20 l12 37q25 2 44.5 -3.5t41.5 -15.5h26.5t28.5 -4q59 -16 97.5 -33.5t72.5 -27.5q33 -4 74 0q16 4 30.5 6t31.5 6q33 10 61 26q63 33 117 76q33 35 51 92q4 10 5 18.5t3 18.5v76q-25 84 -83 159t-126 115q-18 6 -36.5 13.5t-41.5 17.5q-4 0 -5 1t-5 1l-2 2q-33 4 -65.5 -4 t-65.5 -12q-18 6 -18 21.5t18 19.5q18 2 35.5 4t36.5 6l-8 4q-53 6 -99.5 -3t-90.5 -23.5t-89 -29.5t-96 -20l-6 23q0 2 -2 4q0 4 -1.5 5t-1.5 5q-4 16 -3 38zM88 1141q8 -84 13 -167t-3 -151l25 15q-4 125 -9 247.5t-5 247.5v4v2l-9 4q-4 -102 -12 -202zM184 819 q8 4 16.5 5t18.5 3q23 6 46.5 12.5t47.5 10.5q-70 -2 -129 -31zM227 106q16 -10 43 -14q-10 4 -21 8t-22 9v-3zM543 819q39 -16 80 -40.5t76.5 -53.5t63.5 -60.5t38 -64.5l33 -115q-2 135 -68 210t-205 120q-6 0 -18 4z" />
<glyph unicode="6" d="M14 534.5q2 45.5 6 81.5q8 68 35 159t66 182.5t89 171t107 128.5q74 66 156 132q37 29 86 35t94 18q16 -4 21 -17q16 4 31.5 6.5t31.5 4.5l2 2v-2l4 2l5 -13l14 5q0 -10 -1 -18.5t-3 -18.5l2 -7q-35 -10 -64.5 -17t-58.5 -17q-84 -35 -150 -80q-47 -37 -90 -82t-84 -94 q-14 -29 -28.5 -58.5t-30.5 -64.5q18 10 45 14q18 4 36.5 8t39.5 9q27 8 55 12q18 2 34.5 1t33.5 -7q29 -4 56.5 -15.5t55.5 -23.5q39 -14 79 -30.5t75 -38t62.5 -49.5t39.5 -62q41 -53 69 -117t38 -131q23 -49 21.5 -111.5t-27.5 -107.5l-11 -17q-20 -72 -61 -131 t-104 -100q-20 -14 -48 -20.5t-63 -10.5q-53 -23 -133 -27h-2q-88 -14 -177 13.5t-163 85.5q-78 25 -120 93.5t-58 151.5q-4 6 -4 13.5t-3 15.5q-4 12 -4 24.5v26.5q-4 47 -2 92.5zM68 362l6 -20v18zM82 530q4 14 9 29.5t13 32.5v4q18 117 91 195.5t178 115.5q23 14 46 18.5 t48 6.5q32 6 65 6q37 4 68 -8q27 -6 55 -19l-16 11q-59 27 -123 43q-37 6 -75 5t-74 -14q-78 -25 -146.5 -103.5t-109.5 -176.5q-6 -37 -23 -64q-2 -2 -2 -4q-2 -20 -3 -39.5t-1 -38.5zM133 414.5q8 -76.5 41 -142.5v-2q41 -53 100 -88q0 -2 2 -2l58 -10q23 -10 14 -25 q16 -8 34.5 -14t37.5 -12q70 6 136.5 34.5t122.5 73.5t100 103.5t71 122.5q0 90 -45 168q-23 39 -45.5 78.5t-47 74.5t-56 62.5t-72.5 44.5q-57 4 -124 -16.5t-124 -59.5t-96 -94.5t-39 -120.5q0 -20 7 -41t11 -41q4 -23 -14.5 -26t-24.5 16q-6 25 -17 49t-5 49l6 29 l-25 -60q-14 -74 -6 -150.5zM199 1034q23 35 46 67t52 62q68 98 164 154q43 33 94 59q-16 -4 -29.5 -9t-27.5 -11q-94 -53 -169 -136t-130 -186zM365 84q47 -18 100 -25q-25 6 -47.5 11.5t-44.5 13.5h-8zM514 96q29 -6 53.5 -9t46.5 -5q4 0 7 2q76 39 131 106.5t79 149.5 q-43 -76 -103 -138.5t-146 -82.5q-16 -4 -34 -10.5t-34 -12.5zM711 842q45 -53 78 -111.5t51 -87.5q27 -41 39 -88q10 53 0 102q-31 57 -73 105.5t-95 79.5zM739 117q27 14 50.5 30.5t46.5 38.5q29 29 47 56q23 43 36 88t19 82q2 18 3 36.5t-1 38.5l-12 52l-13 34 q2 -45 -12 -88l-10 -24q0 -96 -43 -187.5t-111 -156.5z" />
<glyph unicode="7" horiz-adv-x="993" d="M-53 1303q2 10 3 20t1 20h2q41 2 82 4.5t82 6.5q-16 2 -31.5 4t-26.5 6h-4l-2 2l6 39h25q4 -2 6 -2t4 -2q100 0 201.5 5t203 6t203 -5t199.5 -25q16 12 27 17l24 -31l-2 -2q10 -10 4 -29l-6 -10v-16q-10 -10 -30 -21q-14 -16 -30 -30.5t-32 -28.5q-29 -41 -53.5 -85 t-48.5 -87q-41 -84 -78 -168t-88 -160q-31 -47 -65 -91t-68 -87q-25 -37 -51.5 -73t-55.5 -70q-49 -66 -100 -128.5t-88 -134.5q-6 -12 -18.5 -35.5t-22.5 -37.5l-13 -13q-16 -29 -33.5 -49t-33.5 -35q-8 0 -25 -4l-18 17q-4 31 26.5 54.5t53.5 45.5q14 23 27.5 46.5 t29.5 49.5q-16 -16 -28.5 -33.5t-24.5 -33.5l-27 18l-8 4v2q47 92 98.5 182.5t112.5 174.5q8 12 14 18q82 154 185.5 295t210.5 281q14 18 33.5 45.5t42 60.5t47 65.5t51.5 61.5q-59 2 -124 -6t-116 -12q-158 -12 -323.5 -15.5t-323.5 9.5h-6zM319 459l105 121 q33 47 62.5 95t56.5 99l-117 -133q-23 -35 -43.5 -70.5t-40.5 -70.5q-6 -10 -11 -20.5t-12 -20.5zM549 780q12 8 22 2l41 74q-16 -20 -31.5 -38.5t-31.5 -37.5zM569 868q12 14 23.5 28t21.5 28q51 68 97 143q-37 -47 -72 -97t-70 -102z" />
<glyph unicode="8" horiz-adv-x="1087" d="M8 393.5q12 71.5 51 137t93 108.5q8 6 15 13t17 14q53 61 117 100q-47 16 -96 53t-86 85t-55.5 102.5t-4.5 105.5q-16 47 -12 92t45 80l31 25q35 70 96.5 118t147.5 50q29 0 56.5 1t55.5 1q37 6 77 -2.5t73 -24.5q66 -35 95.5 -48t48 -28.5t37.5 -41t67 -81.5 q25 -29 31.5 -73.5t-0.5 -91t-27.5 -88.5t-49.5 -62l-26 -20q-10 -12 -19.5 -23.5t-17.5 -24.5q-12 -18 -29.5 -29.5t-40.5 -19.5q29 -6 62 -20q35 -16 66.5 -32.5t64.5 -33.5q43 -23 80 -73t57.5 -109t21.5 -120.5t-24 -106.5l-82 -146q-29 -47 -78 -74.5t-94 -60.5 q-47 -35 -99 -52.5t-110 -23.5q-53 -10 -104 -7t-92 22l-48 12q-90 29 -145 80q-43 25 -80 55q-61 51 -79.5 121t-6.5 141.5zM42 327.5q-3 -71.5 48 -132.5q-27 63 -29 132.5t17 139.5q-33 -68 -36 -139.5zM59 1112q2 4 3 10t6 13q27 55 39 82.5t24 45t30.5 36t57.5 55.5 l14 12q10 4 21.5 7t21.5 7l13 17q47 18 100 20t109 -6l-6 -6q-27 -10 -56.5 -18.5t-60.5 -14.5q-12 -4 -24.5 -6t-24.5 -6q-4 0 -6.5 -1t-4.5 -1l-2 -2q-39 -14 -65 -33q-12 -10 -23.5 -17.5t-21.5 -17.5q6 10 14 21.5t19 21.5q-18 -6 -35 -14t-33 -19q-18 -29 -31.5 -59.5 t-17.5 -64.5l-4 -17q-23 -70 -2.5 -139.5t70.5 -123.5t125 -85t165 -25q59 4 113.5 31t95.5 69t62.5 97t17.5 117q-4 39 -22.5 84t-48 81.5t-69.5 61.5t-83 23l-15 -29q-8 -16 -23.5 -11t-15.5 23l19 41q-66 8 -129 0l-49 -12q-4 0 -13 -4q-25 -27 -47 -59.5t-45 -69.5 q-18 -29 -22 -75t2 -95t22.5 -94t38.5 -70q14 -14 23.5 -21.5t19.5 -10.5t22.5 -5t30.5 -6q23 -6 15 -25q29 -10 57 -12q6 0 10 2q47 20 87 22.5t75 -6.5q8 2 14 9q37 23 76 48t74 54q-41 -68 -81 -108.5t-91 -61.5l-10 4q-31 -10 -70 -14q-2 0 -4 -2l27 -4q-66 -10 -142 -4 l33 14h-12q-8 -4 -16.5 -7t-16.5 -7l-39 4q-10 2 -21.5 4t-21.5 6l25 12q-104 23 -175 94.5t-77 200.5q-8 14 -15 39zM101 309.5q5 -55.5 29 -105.5t69 -91l14 -7q-32 39 -57 78q-25 35 -27 81t8 93q-4 47 -3 92.5t11 79.5q-25 -53 -37 -109t-7 -111.5zM112 1117.5 q1 -19.5 3 -38.5q12 -29 26.5 -52t28.5 -46q0 -2 4 -6q-18 61 -14 131.5t22 136.5q8 27 21 45q-66 -59 -88 -131q-4 -20 -3 -39.5zM180 330q10 -78 49 -146.5t99 -115.5q78 -18 145 -17q53 0 106.5 17.5t101.5 47t87 70.5t61 88l9 33q4 10 10 12q16 51 10 106.5t-41 111.5 q-43 72 -104 110q-41 27 -88 39t-93 29h-51q-4 -6 -13 -7t-15 5q-20 -4 -39 -7.5t-37 -9.5q-51 -37 -91 -86t-63 -108q-16 -41 -27.5 -84t-15.5 -88zM225 1362l8 4q25 18 56 31l8 12q-18 -10 -37 -21.5t-35 -25.5zM330 723q12 8 39 14l14 15q-14 -6 -26.5 -13.5t-26.5 -15.5 zM496 1436q8 -12 2 -25q35 -4 68.5 -10t68.5 -17q-29 18 -57.5 29.5t-57.5 20.5q-6 0 -12 1t-12 1zM537 756q14 -2 27.5 -6.5t29.5 -8.5q55 -8 107.5 -25.5t96.5 -42t75.5 -55t44.5 -67.5q8 -27 23 -52.5t27.5 -51t17.5 -52t-3 -53.5l-4 -12q39 94 16.5 191t-131.5 181 q-27 18 -53.5 33t-54.5 25q-4 -4 -13 -4q-25 2 -46 9t-44 15q-4 -12 -20 -16l-39 8q-14 -4 -27.5 -8t-29.5 -8zM662 1339q49 -35 86 -89t53 -113q-12 53 -40 102t-63 88zM766 942l16 14q23 41 26 87.5t-7 93.5q10 -41 8 -83t-23 -77zM772 1319q41 -61 56.5 -138t13.5 -149 q25 41 26.5 90t-26.5 109q-27 49 -70 88zM807 119q10 6 18.5 12t16.5 14l35 31q33 35 50 79t15 95q-4 80 -40 145.5t-95 112.5l45 -45q49 -53 50 -129t-30 -153l-12 -61.5t-9 -34t-15.5 -27t-28.5 -39.5z" />
<glyph unicode="9" horiz-adv-x="1077" d="M19 1010.5q1 62.5 28 107.5l10 17q20 72 61.5 131t104.5 100q20 14 48 20.5t63 10.5q53 23 133 26h2q88 14 177 -13.5t163 -84.5q78 -25 120 -93.5t58 -152.5q4 -6 4 -13t2 -15q4 -12 4 -24.5v-27.5q4 -47 2 -92t-6 -82q-10 -68 -35.5 -159t-64.5 -182t-89 -171 t-108 -129q-74 -66 -155 -131q-37 -29 -86.5 -35t-94.5 -18q-16 4 -20 16q-16 -4 -31.5 -6t-32.5 -4l-2 -2v2l-4 -2l-4 12l-14 -4q0 10 1 18.5t3 18.5l-2 6q35 10 64.5 17.5t58.5 17.5q84 35 149 80q47 37 90 82t84 94q14 29 28.5 58.5t31.5 64.5q-18 -10 -45 -14 q-18 -4 -37 -8.5t-39 -8.5q-29 -10 -55 -12q-18 -2 -35 -1t-33 7q-29 4 -56.5 15.5t-56.5 23.5q-39 14 -78.5 30.5t-74.5 38t-62.5 49t-40.5 62.5q-41 53 -68.5 116.5t-37.5 131.5q-23 49 -22 111.5zM73 993.5q-1 -18.5 1 -39.5l12 -51l12 -35q-2 45 13 88l10 25 q0 96 43 187.5t110 156.5q-27 -14 -50 -30.5t-46 -39.5q-12 -12 -24.5 -25t-22.5 -30q-23 -43 -36 -88t-19 -82q-2 -18 -3 -36.5zM135 784q31 -57 73 -105t95 -79q-45 53 -78 111.5t-51 87.5q-27 41 -39 88q-10 -53 0 -103zM164 989q0 -90 45 -168q23 -39 45 -79t47 -74.5 t56.5 -62t72.5 -44.5q57 -4 124 16.5t124 59.5t96 94t39 121q0 20 -7 40.5t-11 41.5q-4 23 14 26t25 -16q6 -25 17 -49.5t5 -48.5l-6 -29l24 60q14 74 6 150.5t-40 141.5v2q-41 53 -101 89q0 2 -2 2l-57 10q-23 10 -14 24q-16 8 -35 14.5t-37 12.5q-70 -6 -136.5 -34.5 t-122.5 -74t-100.5 -103.5t-70.5 -122zM182 1102q43 76 103.5 138.5t146.5 82.5q16 4 33.5 10t34.5 13q-29 6 -53.5 9t-47.5 5q-4 0 -6 -2q-76 -39 -131 -106.5t-80 -149.5zM358 530l17 -10q57 -29 123 -43q37 -6 74.5 -5t74.5 13q78 25 146.5 104t109.5 177q6 37 23 63 q2 2 2 5q2 20 3 39.5t1 37.5q-4 -14 -9 -29.5t-14 -31.5v-4q-18 -117 -91 -196t-177 -115q-23 -14 -46.5 -18.5t-47.5 -6.5q-35 -6 -66 -6q-37 -4 -67 8q-29 6 -56 18zM459 66q16 4 29.5 9t27.5 11q94 53 169 136t130 186q-23 -35 -46.5 -67t-51.5 -62q-68 -98 -164 -154 q-43 -35 -94 -59zM549 1382q25 -6 47 -11t45 -13h8q-47 18 -100 24zM940 1081l6 -2l-6 21v-19z" />
<glyph unicode=":" horiz-adv-x="323" d="M55.5 100q1.5 23 14 39.5t31 23.5t32.5 -3q23 16 50.5 18t49.5 -20q37 -35 18.5 -66t-58.5 -47l-23 -25q-4 -12 -20 -16l-11 2q-20 -4 -35 8q-20 14 -24 39l-6 6q-20 18 -18.5 41zM55.5 831.5q1.5 22.5 14 39t31 23.5t32.5 -3q23 16 50.5 18t49.5 -20q37 -35 18.5 -65.5 t-58.5 -47.5l-23 -24q-4 -12 -20 -17l-11 2q-20 -4 -35 8q-20 14 -24 39l-6 7q-20 18 -18.5 40.5zM127 94q12 10 26.5 18.5t26.5 12.5l25 -6q4 -12 4 -17q8 18 0 25.5t-22.5 5.5t-31 -11t-24.5 -22zM127 825q12 10 26.5 18.5t26.5 12.5l25 -6q4 -12 4 -16q8 18 0 25t-22.5 5 t-31 -11t-24.5 -22z" />
<glyph unicode=";" horiz-adv-x="358" d="M35 -178q-6 23 10 29t27 -13q2 -4 14 -4q-8 4 -10 12.5t6 18.5q35 35 45 76t12 86q-24 6 -53 6q-18 6 -18 21.5t18 19.5q31 0 55 -6q4 12 15 12q0 6 2 10q-27 -4 -51.5 -9t-38.5 -5q-18 6 -18.5 21.5t18.5 19.5q37 2 73.5 7t71.5 5q20 0 32.5 -12.5t16.5 -29.5t5 -35.5 t1 -33.5q0 -14 -1 -27.5t-3 -27.5q4 -31 -6 -62.5t-32.5 -60t-58.5 -50t-83 -32.5q-16 -2 -22.5 10.5t4.5 22.5q-23 6 -31 31zM55.5 831.5q1.5 22.5 14 39t31 23.5t32.5 -3q23 16 50.5 18t49.5 -20q37 -35 18.5 -65.5t-58.5 -47.5l-23 -24q-4 -12 -20 -17l-11 2 q-20 -4 -35 8q-20 14 -24 39l-6 7q-20 18 -18.5 40.5zM127 -147q2 0 4 -3q12 8 14 9q14 8 25.5 19t22.5 26q8 18 13 38t7 40q-14 20 -35 30q-2 -43 -12 -84t-39 -75zM127 825q12 10 26.5 18.5t26.5 12.5l25 -6q4 -12 4 -16q8 18 0 25t-22.5 5t-31 -11t-24.5 -22z" />
<glyph unicode="&#x3c;" horiz-adv-x="1114" d="M20 479l27 19l-10 10q0 20 -2 31q137 102 288.5 175.5t305.5 143.5q90 51 179 103.5t187 89.5q18 0 23 -13l22 -24q-2 0 -3 -1t-3 -1v-2q-41 -25 -82 -46.5t-86 -43.5q-180 -92 -357 -184.5t-347 -207.5l45 -10q113 33 211 97.5t193.5 133t193.5 129t215 87.5 q20 2 24.5 -13.5t-12.5 -23.5q-106 -25 -199.5 -83.5t-180.5 -124t-175 -128t-186 -94.5q201 -53 395.5 -127t372.5 -181l-8 -38q-16 -2 -34 -1t-34 1q27 -16 43 -31l-2 -29l-4 -4q-14 -6 -22.5 -2t-12.5 14q-27 23 -61.5 40.5t-73.5 31.5q-68 14 -135.5 37.5t-132.5 52.5 q-66 25 -133.5 50.5t-135.5 52.5q-76 29 -138 53t-142 24zM133 487q6 -4 12.5 -7t14.5 -7q23 -4 48 -14t50 -21q23 -8 46.5 -14t47.5 -16q41 -16 82 -35t84 -39q76 -25 169 -57.5t175 -67.5q23 -4 47.5 -7t48.5 -5q-164 88 -334 150.5t-350 109.5q-16 4 -29.5 7t-27.5 7 q-2 -2 -6 -2q-18 0 -27 6z" />
<glyph unicode="=" horiz-adv-x="1069" d="M6 821q4 0 6 -1t6 -1v2q102 23 212 13.5t221 -25.5l258 12t260 6h2l24 -41h-26l-54 -6v-32h-2q-123 -14 -239.5 -6t-239.5 24h-33q-80 -4 -159.5 -7t-159.5 -3q-18 6 -19 20l-45 4zM43 420q2 10 3 21.5t1 21.5h2q70 19 146 31q-35 2 -68 3t-68 1h-2h-8q2 10 2 20v21 q98 0 197.5 -4.5t197.5 0.5q10 0 21.5 1t24.5 1q47 6 95 10t97 8q80 8 161 14t163 6h6l10 -40h-16q-80 -6 -160 -10.5t-160 -10.5l-82 -8l-82 -8q-68 -6 -135 -14.5t-135 -20.5q166 2 332 11t329 34q4 10 17 12l29 -4h2v-14l4 -25q-2 0 -4 -2h-5q-221 -43 -451.5 -48 t-455.5 -5q-4 -2 -8 -2z" />
<glyph unicode="&#x3e;" horiz-adv-x="1138" d="M20 190q178 106 373 180t395 128q-98 33 -186 95t-175 127.5t-180 124t-200 83.5q-16 8 -12 23.5t24 13.5q78 -18 146.5 -51t134.5 -75t128 -89.5t126.5 -91.5t133.5 -80.5t144 -59.5l46 10q-170 115 -347.5 207t-357.5 185q-45 23 -86 44t-82 46v2q-2 0 -3 1t-3 1l22 24 q4 12 23 13q98 -37 187 -89.5t180 -103.5q154 -70 305 -143.5t288 -175.5q-2 -10 -2 -31l-10 -10l27 -19l-12 -37q-80 0 -142.5 -24.5t-138.5 -52.5q-68 -27 -135.5 -52.5t-132.5 -50.5q-66 -29 -133.5 -52.5t-135.5 -37.5q-39 -14 -73.5 -31.5t-61.5 -40.5q-4 -10 -12 -14 t-23 2l-4 4l-2 29q14 14 43 31q-16 0 -33.5 -1t-33.5 1zM121 197q25 2 49.5 5t46.5 7q82 35 175 67.5t169 57.5q43 20 84 38.5t82 35.5q25 10 48.5 16t45.5 14q25 10 50.5 20.5t48.5 14.5l14 7t12 7l-51 -12q-8 -6 -27 -6q-4 0 -6 2q-14 -4 -27.5 -7t-29.5 -7 q-180 -47 -350 -109.5t-334 -150.5z" />
<glyph unicode="?" horiz-adv-x="821" d="M-14 1323q4 18 16 33.5t31 27.5q10 20 39.5 29.5t66.5 13.5q53 12 105.5 17.5t79.5 3.5q117 -4 220 -62.5t175 -146.5q29 -37 33 -82q2 -23 2 -42v-38q18 -41 19 -85t-15.5 -83t-51 -69.5t-85.5 -42.5q-72 -18 -115 -30.5t-70.5 -20t-47 -11.5t-46.5 -8q-20 -4 -37 -4 q-16 -4 -26 -4q16 -31 30.5 -70t21.5 -80t6 -79.5t-15 -71.5q-20 -4 -35 -8l-15 12q0 -25 1 -45.5t-1 -32.5v-4l-16 2h-25q-6 53 -8 108.5t-4 110.5q-4 33 -4 62.5t2 56.5v43l-4 29h6q-16 0 -29 6h-2l-2 2l7 39l43 4q14 4 18 0l84 4q51 8 103.5 25.5t96.5 46t77.5 69.5 t50.5 101q6 20 5 40.5t-5 40.5q-41 45 -98.5 83t-120 65t-124 41t-110.5 14q-51 0 -87 -12t-73 -29q-4 -16 -8 -31.5t-10 -31.5q-8 -16 -23.5 -11t-15.5 23q4 8 6 15.5t4 17.5l-16 33q2 0 3 1t3 1zM102 1352q66 24 127 30h-27.5t-27.5 -2q-39 -6 -72 -28zM186.5 100 q1.5 23 14 39.5t31 23.5t32.5 -3q23 16 50.5 18t50.5 -20q37 -35 18.5 -66t-59.5 -47l-23 -25q-4 -12 -20 -16l-11 2q-20 -4 -34 8q-20 14 -25 39l-6 6q-20 18 -18.5 41zM258 94q12 10 26.5 18.5t26.5 12.5l25 -6q4 -12 4 -17q8 18 0 25.5t-22.5 5.5t-31 -11t-24.5 -22z M268 631q2 -41 7.5 -79t17.5 -75q0 76 -25 154zM422 1389q45 -18 92 -43q33 -16 63.5 -33t57.5 -37q-43 41 -98.5 68.5t-114.5 44.5zM535 834q47 16 85.5 44.5t65.5 67.5q14 25 25 60q4 18 0 41q-2 2 -2 8v-11q4 -59 -47.5 -114.5t-126.5 -95.5z" />
<glyph unicode="@" horiz-adv-x="1378" d="M24 551q1 29 11 57q0 2 2 4v25q-2 47 9 95t38 87q25 35 47.5 68t46.5 65q33 47 92.5 69.5t112.5 37.5q49 12 95 21.5t87 13.5q47 20 93.5 31.5t86.5 7.5q53 -6 110.5 -6.5t105.5 -26.5q82 -47 134 -82t88 -77t61.5 -99.5t53.5 -147.5q10 -39 -4 -77.5t-22 -79.5 q-8 -47 -58 -82q-31 -35 -65 -43q-29 -8 -57.5 -20.5t-59.5 -6.5q-55 -10 -104 -9t-82 11q-12 4 -21 8q-37 10 -61 29q-25 -37 -58.5 -67.5t-70.5 -52t-75 -30t-68 1.5l-78 31q-23 10 -37.5 29.5t-22.5 46.5q-37 51 -38 101.5t21.5 93.5t64.5 74.5t96 43.5q31 14 69 21 q4 14 25 12q27 -4 53.5 -4t44.5 -16l4 -4q57 -23 78 -74q29 -29 35 -65t-8 -74q47 -6 89 -24.5t87 -31.5q63 29 103 96.5t18 153.5q-16 61 -81 110.5t-144.5 84t-158.5 53t-124 16.5q-66 -2 -124 -25.5t-108 -62.5q-37 -39 -67.5 -82t-59.5 -84l-41 -61q-14 -35 -25 -67.5 t-18 -67.5q-4 -16 -6 -30.5t-4 -31.5q29 -59 72 -114.5t93 -103.5t104.5 -87t109.5 -63q43 -16 87 -25.5t87 -13.5q49 16 90 37l2 2q55 35 113.5 70.5t118.5 58.5l28 -27q-6 -16 -14 -27l18 -20l-2 -2h2q-2 -2 -4 -2q-45 -51 -100 -82q-16 -16 -31.5 -30.5t-38.5 -18.5 q-41 -10 -81.5 -23.5t-83.5 -9.5q-8 2 -25 2q-47 -10 -98.5 -11t-110.5 13q-127 10 -224 80t-136 192q-23 33 -45.5 65t-24.5 71q0 31 -5 61.5t-9 61t-3 59.5zM99 566.5q1 -7.5 1 -15.5q12 33 35 72q25 66 56.5 108.5t78.5 89.5q45 66 111 121l-39 -22q-27 -16 -53.5 -31 t-52.5 -31q-57 -53 -94.5 -121.5t-41.5 -152.5q-2 -10 -1 -17.5zM135 332q14 -37 39 -75t62 -81q25 -31 53 -59l8 -6q72 -47 162 -80q14 -4 28.5 -7.5t28.5 -5.5q-33 10 -63.5 26.5t-59.5 39.5q-90 51 -160 121q-20 20 -45.5 54t-52.5 75v-2zM197 897q39 35 87 60.5 t101 43.5q-57 -12 -107.5 -33.5t-80.5 -70.5zM399 393q41 -31 84 -35t82 11q-29 4 -57.5 14t-50.5 27q-6 4 -13.5 10t-11.5 12q-12 12 -18 29q-10 20 -15 45q-16 -61 0 -113zM440 512q14 -51 60 -78q16 -10 30 -10q41 -2 69.5 -4t59.5 12q37 41 52 80q-4 12 -9 37h-2 q-12 -4 -24 2q-16 16 -34.5 45t-41.5 47q-63 -6 -110.5 -45t-49.5 -86zM578 993q4 -2 14 -2q70 -14 139.5 -22t130.5 -39q57 -27 107.5 -56.5t97.5 -70.5q37 -31 57.5 -76t20.5 -92q0 -72 -24.5 -121t-63.5 -80h4q72 31 115 94.5t26 147.5q-12 66 -50 116t-87 91 q-51 35 -111.5 61.5t-124 41.5t-128 17.5t-123.5 -10.5zM659 639q10 -12 18.5 -25.5t18.5 -23.5q0 2 4 6v6l7 8q-8 8 -16.5 14.5t-16.5 12.5q-4 0 -7 1t-8 1zM702 1040q29 -2 57.5 -6t59.5 -10q-23 8 -40.5 14.5t-33.5 10.5q-4 0 -9 1t-9 1q-4 -4 -11 -5.5t-14 -5.5z M758 1085q68 -16 136.5 -47.5t147.5 -85.5l13 -8q41 -23 73.5 -50.5t53.5 -57.5q16 -29 32.5 -56.5t32.5 -56.5q4 -8 4 -10q-8 63 -41 121q-90 160 -206.5 214t-245.5 37zM852 434q12 -4 25.5 -8t27.5 -8q2 0 3 1t3 1z" />
<glyph unicode="A" horiz-adv-x="1300" d="M86 -10q-2 14 -2 28q0 12 2 26q4 28 12 56h-2v9q2 59 28 110t54 103q10 47 22.5 95t32.5 95q20 49 44 98t51 97q49 154 106.5 305t145.5 286q14 29 24 57.5t14 61.5q10 20 29 13q14 8 25 -9l22 25q10 -4 17.5 -10t15.5 -13l-25 -57l17 -37q8 -12 10 -18 q14 -27 26.5 -50.5t22.5 -60.5l72 -139q78 -147 148.5 -295t134.5 -301q23 -55 45 -113.5t42.5 -114t41 -103.5t41.5 -81l-25 -30q-31 12 -59.5 47.5t-53.5 83.5q18 -49 31 -93q4 -23 -14.5 -25.5t-24.5 15.5q0 4 -5 16.5t-11 26.5q-8 16 -15 35q-18 45 -30.5 72.5 t-24.5 55.5t-29.5 65.5t-46.5 103.5q-23 47 -42 95t-40 95q-117 -4 -232.5 -16t-231.5 -16q-43 -104 -89.5 -208t-93.5 -208q-12 -27 -23.5 -50.5t-23.5 -45.5q-23 -59 -55 -117l-37 18q10 33 25.5 64t31.5 59q16 47 29.5 95.5t26.5 97.5q-10 -14 -19.5 -29.5t-19.5 -32.5 q-10 -41 -20.5 -82t-26.5 -82q-8 -23 -13.5 -44t-17.5 -39zM264 399q0 2 4 7v4q-4 -8 -4 -11zM291 322q23 53 46 105t46 105l-57 -106q-4 -6 -7.5 -12t-7.5 -15q-2 -2 -2 -6zM358 571l25 50v2h2l27 53v12l-2 14h2q8 0 12 3q33 66 60.5 133t52.5 137q4 16 7 29.5t7 29.5 q-27 -53 -55.5 -104t-57.5 -105l-24 -77zM498 1016q31 57 56.5 115.5t45.5 119.5q-20 -37 -40 -73.5t-34 -77.5q-8 -23 -14 -43.5t-14 -40.5zM500 713q35 4 70.5 7t76.5 5q49 10 99.5 18.5t101.5 14.5q-14 29 -27.5 58.5t-23.5 62.5q-8 20 -13.5 41.5t-9.5 44.5l-26 73 q-23 61 -44.5 121t-37.5 123l-17 -45q-27 -144 -74 -281q-16 -61 -34.5 -122.5t-40.5 -120.5zM606 1266q4 4 8 4q0 4 1 7t1 7zM727 1217l2 -5q6 -14 9 -27.5t7 -25.5zM735 647q41 4 80 5t80 3l-6 19q-39 -8 -77 -14.5t-77 -12.5zM807 1059q4 -25 6 -48.5t6 -45.5 q23 -61 47.5 -122t48.5 -122q2 0 2.5 1t2.5 1v-2q2 -2 6 -2l-2 -14q41 -72 83 -140.5t83 -140.5q16 -29 36.5 -81t47.5 -107q-20 53 -38 106t-40 107q-63 154 -134 299t-147 292q-2 2 -3 7.5t-5 11.5zM1032 440l62 -127q-10 27 -20.5 49.5t-18.5 38.5z" />
<glyph unicode="B" horiz-adv-x="1007" d="M-23 1362q2 14 25 29l2 8q33 14 86 23.5t110.5 13.5t111 5t87.5 1h69t48.5 -1t47 -4t65.5 -7q66 -6 109.5 -19.5t70.5 -40.5t37 -67.5t10 -104.5q0 -4 -1 -10t-1 -10q10 -18 17.5 -37t5.5 -39q-2 -29 3 -62.5t-18 -56.5q-23 -27 -43 -56.5t-53 -41.5q-23 -8 -73 -31 t-109 -39q131 -45 223 -135q73 -59 107 -142q27 -64 26 -132q0 -20 -2 -39q3 -23 3 -45v-12q-1 -28 -15 -50q-18 -35 -37 -67.5t-39 -67.5q-27 -43 -76 -64.5t-92 -48.5q-53 -33 -132 -50q-79 -16 -163 -22q-38 -3 -77 -3q-45 -1 -89 3q-82 6 -141 19h-2l4 21v20l72 8 q-4 23 2 58q10 18 26.5 14t12.5 -27q0 -8 -4.5 -16t-4.5 -17q2 -2 4 -2h13q-6 158 -27.5 311.5t-28.5 309.5q0 10 -1 21.5t-1 23.5l-32 -6l-17 -232q6 -92 11.5 -183t5.5 -183v-12h-7q-4 2 -14 2q-2 0 -4 1t-4 1h-4v-52l-41 -22v20q-7 94 -7 188v24v71q0 71 -1 141 q-2 57 -2 113.5v114.5q-25 4 -37 8q-4 8 -5 15t-5 14q20 29 45 49q-2 137 -2 274v275q-2 10 -3.5 22t-1.5 29q-4 -2 -4 -6q-8 -16 -23.5 -11.5t-15.5 23.5zM59 1354q0 -12 2 -19l7 19h-9zM74 782q2 2 6 2q0 14 1 27.5t3 28.5q-4 0 -6 1t-4 1v-60zM74 915q10 4 16 3 q6 80 11 177q2 32 2 63q0 61 -7 116q-4 0 -6 2q-16 -77 -16 -156v-18q1 -44 1 -87t-1 -85v-15zM115 719l30 6v37l-28 -6zM121 807l26 12v8q-8 0 -24 4zM121 1354l4 -11l27 11h-31zM125 868q8 -2 25 -2q4 113 14 224.5t14 226.5l-43 -17q4 -30 5 -64q0 -17 0.5 -33.5 t-0.5 -32.5q-1 -32 -3 -59.5t-2 -39.5q-2 -51 -4 -101t-6 -102zM186 667.5q0 -12.5 2 -24.5q6 -154 17.5 -314.5t17.5 -316.5l21 3q22 3 46.5 6.5l45.5 6.5l22 3q29 10 55.5 21t53.5 22q51 18 119.5 36.5t127 48t93.5 77.5q24 33 24 79q0 22 -6 47q-18 84 -81.5 147.5 t-148.5 105.5t-180 62.5t-175 20.5q-27 0 -54 -6v-24.5zM186 733q14 2 27.5 4t26.5 2q84 0 170 -15t164.5 -48t145 -84t109.5 -123q14 -23 23.5 -48.5t11.5 -51.5q2 -16 2 -32q0 -23 -4 -42q-6 -33 -16 -62q47 71 53 173q-10 72 -48 138t-93 120q-72 47 -159 70.5t-165 33.5 q-12 2 -45 3t-71.5 1t-74.5 -1t-57 -3v-35zM190 866l50 4q12 6 41.5 10.5t61.5 8.5t58.5 7t34.5 7q43 18 89 40t90 46.5t84 54t69 68.5q0 37 -20 76q-16 31 -41 55.5t-54 44.5q-66 30 -131 48q-53 14 -91 15q-9 0 -17 -1q-2 0 -27 -2t-57.5 -5.5t-64.5 -6.5t-46 -7 q-4 -117 -14 -231.5t-15 -231.5zM385 -25h33q63 4 133 24.5t133 55.5q-31 -12 -61.5 -22t-55.5 -21q-92 -31 -182 -37zM463 29q39 6 80 18q23 6 45 14.5t47 18.5q-33 -10 -64.5 -18.5t-66.5 -18.5q-10 -4 -20.5 -7t-20.5 -7zM475 842q2 0 4 -1t4 -1q31 2 73 13t82 25.5 t69.5 25.5t33.5 16q29 14 50.5 36.5t35.5 49.5q18 34 18 68q0 26 -11 52q-6 -18 -23 -43l-18 -22q-16 -49 -53.5 -91t-86.5 -67q-27 -12 -77 -31.5t-101 -29.5zM492 799q35 -6 77 -19q-16 6 -32.5 11.5t-32.5 9.5q-4 0 -6 -1t-6 -1zM551 1382l12 -6q4 0 12 -4 q16 -8 42 -19.5t54.5 -26.5t59 -34.5t57.5 -42.5q-27 59 -93 90t-144 43z" />
<glyph unicode="C" d="M18 723q-1 14 -1 29q0 62 14 127q23 102 72 192t118 160q23 35 54.5 61.5t60.5 57.5q31 33 74 46t82 34q27 14 58 14q14 0 29 -3q48 -9 97 -28.5t95 -40t85 -24.5q16 -4 19.5 -13.5t-3.5 -19.5q2 0 3.5 -1t3.5 -1q0 -2 4 -2l-13 -13l-10 -22q-82 39 -168 39q-18 0 -36 -2 q-104 -10 -199 -70q-92 -55 -166 -127t-123 -158q-50 -86 -70 -184q-13 -62 -13 -128q0 -39 5 -79q10 -27 20.5 -52.5t24.5 -51.5q16 -20 33.5 -40t30.5 -40q10 -18 19 -37.5t20 -38.5q2 -4 4 -5t4 -3q23 -27 47 -49.5t55 -38.5q35 -16 107.5 -28.5t149.5 -14.5h23 q62 0 116 9q62 11 77 40q10 18 26.5 14t12.5 -26q-10 -31 -38.5 -46.5t-62.5 -21.5t-69 -6h-59q-86 0 -169 9.5t-155 49.5h2q72 -47 155 -72.5t171 -29.5h21q42 0 81 6q49 8 97 31q10 4 21 11l22 14q12 8 26 16l2 2l8 -12l21 -19q-51 -61 -125 -97t-154 -44q-22 -2 -45 -2 q-58 0 -114 14q-78 20 -140 72q-37 29 -67 70q-86 49 -145.5 121.5t-73.5 174.5q-4 16 -5.5 32t-3.5 32q-14 33 -16 65q-23 72 -27 148zM131 975q100 186 305 305q115 66 232 72q-40 8 -79 8q-177 0 -337 -160l-7 -7l-7 -7q-68 -98 -107 -211zM147 360q27 -45 66 -92 q0 4 -2 6q-16 23 -31.5 43.5t-32.5 42.5zM395 100q70 -51 157 -62q29 -4 58 -3q57 0 113 14h-16h-20q-63 1 -133 11q-81 12 -159 40zM510 1391q16 4 31.5 6t31.5 2q-8 1 -17 1q-24 0 -46 -9z" />
<glyph unicode="D" d="M8 137l21 19l8 12l2 -2l24 -16l22.5 -13.5t23.5 -11.5q25 -12 55.5 -19.5t64 -11.5t65.5 -5t58 -1q88 4 171 29.5t155 72.5h2q-72 -41 -155 -50t-169 -9h-65.5t-83.5 6t-79 21.5t-46 46.5q-4 23 12.5 27t26.5 -15q10 -20 46 -30.5t85 -14.5q39 -3 84 -3h24q58 1 112 7 t98 15.5t69 19.5q31 16 55.5 38.5t46.5 49.5q2 2 4.5 3t4.5 5q10 18 19 38t19 38q12 20 30 39.5t34 40.5q14 27 24.5 52.5t20.5 51.5q4 39 4 77q1 67 -13 130q-22 98 -71 184t-121.5 158t-165.5 127q-47 29 -104 47q-56 17 -116 22q-21 2 -42 2l-78 -6q-60 -10 -108 -32 l-10 22l-13 13q4 0 4 2q2 0 3.5 1t3.5 1q-6 10 -3 19.5t19 13.5q39 4 92 24.5t110.5 40t111.5 28.5q17 3 33 3q35 0 63 -14q39 -20 82 -34t73 -46q29 -31 60.5 -57.5t54.5 -61.5q70 -70 119 -160t71 -192q13 -66 13 -129q-1 -14 -1 -27q-4 -76 -26 -148q-2 -33 -16 -65 q-2 -16 -3 -31.5t-5 -32.5q-14 -102 -74 -174.5t-146 -121.5q-31 -41 -67 -70q-61 -52 -147 -72q-62 -15 -126 -14q-25 0 -49 2q-88 8 -169 44t-132 97zM27 455l4 -208t28 -206q10 0 31 -4v-4q-4 -8 -4 -17q0 -2 1 -4t1 -6l41 4q6 45 8 86q1 27 1 55v27q-1 41 -2 86t-1 98 q0 215 6 431v22l6 92l11 185q0 16 2 24q6 66 13 134q4 43 4 84q0 24 -1 48v4l-16 -2l-25 2q-10 -92 -13 -183t-9 -183q-6 -135 -17.5 -268.5t-15.5 -268.5q-2 -45 -4 -89t-6 -87q-2 37 -2 74v76q-2 108 -2 215q0 134 3 266q5 240 7 481q-4 18 -18 19h-2q-13 0 -21 -15 q-4 -245 -8 -485q-2 -120 -2 -240.5t2 -242.5zM219 49q41 -12 92 -15q17 -1 34 -1q33 0 67 4q50 6 97.5 22.5t82.5 40.5q-78 -29 -158 -41q-69 -10 -132 -10h-21h-62zM319 1352q117 -6 232 -72q205 -119 305 -305q-39 113 -106 211q-4 4 -7.5 7t-7.5 7q-160 160 -337 160 q-39 0 -79 -8zM414 1399q16 0 31.5 -2t31.5 -6q-22 9 -46 9q-9 0 -17 -1zM774 268q39 47 66 92q-16 -23 -32 -43t-32 -43q-2 -2 -2 -6z" />
<glyph unicode="E" horiz-adv-x="876" d="M2 18l8 25q2 10 2 20.5v20.5q8 2 17.5 4t19.5 4q-2 12 -3 24.5t-1 18.5v385l6 795l-33 12v37q8 2 15.5 4t17.5 6v37q0 23 18.5 25t22.5 -21h8v15q0 22 18 24q1 0 3 1q16 0 20 -21v-19q35 -2 69 -6q23 -3 44 -3q10 0 20 1l183 10q86 7 174 17q48 5 95 6q40 0 79 -4h6 l-4 -41h-2h-55l10 -29q-2 0 -2 -2h-2q-10 -4 -20.5 -8t-24.5 -8q10 -8 7 -20.5t-20 -14.5q-51 0 -119.5 -5t-143.5 -10.5t-151 -6.5h-17q-67 0 -126 7q4 -147 7.5 -290.5t5.5 -288.5q29 4 57.5 4t56.5 4l99 10l30 6q63 11 122 25q46 11 96 11q14 0 28 -1l12 -37l-8 -4h-6 q-23 -8 -39 -10l-104 -12q41 0 75.5 -3t59.5 -12l14 5l-10 -37v-6h-2v-3h-4q-104 -22 -202 -22q-7 1 -13 1q-104 2 -215 1q-14 2 -19 14q-20 0 -26 -2v-64q0 -242 -13 -483q70 6 154 10q53 2 105 2q30 0 59 -1q80 -2 147.5 -9.5t106.5 -17.5h4v-2h4l-2 -6q33 2 59.5 -1 t44.5 -7q8 -10 15 -27q0 -4 -2 -6l-21 -12q-23 -2 -33 -3t-39 -4l-370 -12q-43 -2 -92.5 -9t-99.5 -11q-22 -2 -44 -2q-27 0 -53 3q-47 5 -84 29zM85 390v-87q0 -86 1 -172q0 -10 1 -17.5t3 -15.5h10q13 254 13 512v37h-11.5t-15.5 2q0 -129 -1 -259zM92 1305l2 -600l17 4 q-2 147 -5.5 295.5t-5.5 298.5q-2 2 -8 2zM193 68q31 0 61 -1h19q19 0 38 1q37 0 74 2l74 4q-34 1 -68 1q-35 0 -69 -1q-68 -2 -129 -6zM246 1339q24 -3 54 -3q33 0 76 4q81 6 163 18q-78 -4 -147.5 -9.5t-145.5 -9.5z" />
<glyph unicode="F" horiz-adv-x="839" d="M20 1309v37q8 2 15.5 4t17.5 6v37q0 23 18.5 24.5t22.5 -20.5h8v14q0 23 18 25h3q16 0 20 -21v-18q35 -3 69 -7q20 -3 39 -2q13 0 25 1l183 10q86 8 174 17q47 5 93 4q41 0 81 -3h6l-4 -41h-2q-22 1 -43 1h-22q-32 -1 -62 -3l-117 -8l-78 -6q-35 -4 -68.5 -6t-68.5 -4 q-4 0 -10 -1t-10 -1q-45 -4 -89 -8.5t-89 -8.5q-2 -2 -5 -2h-2v-8q56 -7 124 -7h17q78 1 154 6t144.5 10t117.5 5q23 -4 23 -20.5t-23 -20.5q-51 0 -119.5 -5t-143.5 -10t-151 -6h-17q-67 0 -126 7q4 -147 7.5 -290.5t5.5 -289.5q29 4 57.5 4t56.5 5l99 10l30 6 q63 11 122 25q46 11 96 11q14 0 28 -1l12 -37l-8 -4h-6q-23 -8 -39 -10l-104 -13q41 0 75.5 -3t59.5 -11l14 4l-10 -37v-6h-2v-2h-4q-104 -22 -202 -22q-7 1 -13 1q-104 2 -215 1q-14 2 -19 14q-20 0 -26 -2q1 -59 1 -118q0 -87 -2 -175q-3 -146 -14 -295v-2h-16l-25 -2v20 q13 264 13 530v38h-11.5t-15.5 2q0 -129 -1 -259v-87q0 -86 1 -172q0 -18 6 -37t6 -37l-22 -21h-6q-14 4 -17.5 13.5t0.5 17.5q-4 14 -6 37t-2 31v385l6 794zM94 1286l2 -600l17 4q-2 147 -5.5 296t-5.5 298q-2 2 -8 2z" />
<glyph unicode="G" horiz-adv-x="1298" d="M18 723q-1 14 -1 29q0 62 14 127q23 102 72 192t118 160q23 35 54.5 61.5t60.5 57.5q31 33 74 46t82 34q27 12 57 12q14 0 28 -2q46 -8 93 -27q30 1 60.5 1t59.5 -1q60 -2 110 -15.5t84 -39t44 -68.5q10 -41 13 -57t8 -45q4 -10 8 -26.5t14 -20.5q10 -10 9 -19.5 t-7 -13.5q-4 -23 -22.5 -20.5t-18.5 24.5q0 10 -12 18.5t-23 26.5q-8 16 -12 36.5t-14 35.5q-16 25 -42 42t-55 32l-4 -5l-10 -22q-82 39 -168 39q-18 0 -36 -2q-105 -10 -199 -70q-92 -55 -166 -127t-123 -158t-70 -184q-12 -62 -12 -128q0 -39 4 -79q10 -27 20.5 -52.5 t24.5 -51.5q16 -20 33.5 -40t30.5 -40q10 -18 19 -37.5t20 -38.5q2 -4 4 -5t4 -3q23 -27 47 -49.5t55 -38.5q27 -12 79 -23.5t111 -16.5q48 -4 97 -4h19q59 1 102 11v4q18 31 48 52.5t52 46.5q23 23 41 51t33 57q14 31 28.5 67.5t32.5 71.5v29.5t2 30.5l-260 -25 q-6 -6 -14 -6q-6 0 -11.5 1t-11.5 1h-4q0 10 1 20.5t1 20.5q-20 0 -30 2v41l28 6q2 2 13 10q43 25 112.5 40.5t146.5 22.5q66 6 131 6h18q73 -1 124 -9v-2q2 0 4 1t6 1l-6 -41h-4q-98 -6 -197 -19l-2 -24q10 2 27 2q2 12 8 22q10 0 19.5 1.5t19.5 1.5l6 -21l154 12h2v-14 l4 -27q-78 -16 -154 -18q2 -35 2 -76t-3 -82t-8 -81l-9 -72l6 -58q12 -63 16 -125q2 -17 2 -33q0 -46 -10 -92l-41 5q-2 23 -1 44t1 44q-2 -4 -2 -15q0 -20 -1 -39.5t-3 -38.5l-22 -20h-7l-18 18q-4 20 1 40t9 38q0 53 -5 108.5t-13 108.5q-2 0 -4 -2q-20 -33 -41 -64.5 t-45 -60.5l6 -4q-51 -61 -125 -97t-154 -44q-22 -2 -45 -2q-57 0 -114 14q-78 21 -140 72q-37 29 -67 70q-86 49 -145.5 121.5t-73.5 174.5q-4 16 -5.5 32t-3.5 32q-14 33 -16 65q-23 72 -27 148zM131 975q100 186 305 305q115 66 232 72q-40 8 -79 8q-177 0 -337 -160 l-7 -7l-7 -7q-68 -98 -107 -211zM147 360q27 -45 66 -92q0 4 -2 6q-16 23 -31.5 43.5t-32.5 42.5zM319 182q70 -43 150 -66.5t166 -27.5q14 -1 27 -1q27 0 54 3q40 4 81 19l-11 8q6 16 19 33h-4q-41 -16 -90 -17.5t-80 -1.5q-84 0 -163 8t-149 43zM395 100q70 -51 157 -62 q29 -4 58 -4q57 0 113 15h-16h-20q-63 0 -133 11q-81 12 -159 40zM750 1380q0 -2 4 -2q61 -10 120.5 -33.5t106.5 -64.5q-12 28 -37 51q-35 27 -85 37t-109 12zM823 629q33 -2 67 -2t68 2q10 0 19.5 1t19.5 1l2 24q-45 -6 -88 -12t-88 -14zM856 223q4 -4 4 -8q8 2 25 10 l14 17q29 35 68 110q4 14 6 27.5t4 28.5q-23 -47 -51.5 -95.5t-69.5 -89.5zM995 309l4 15l-2 -2q0 -4 -1 -6.5t-1 -6.5zM1036 590l2 2h-2v-2zM1038 592l17 -4v4h-17zM1053 305q2 -16 4 -31.5t6 -31.5q0 10 2 16z" />
<glyph unicode="H" horiz-adv-x="1054" d="M35 1374h12l29 6l-2 -4h2l2 -2q4 0 20 4q8 -39 8 -89t-4 -103q10 -74 15.5 -149.5t5.5 -151.5q0 -4 1 -9.5t-1 -9.5l8 -98q100 -6 186 -8q43 -1 85 -1t83 1q82 2 167 9t186 17q2 160 4 319t6 318q8 16 22 16v0q14 0 19 -20l-8 -626q8 0 14 2v-2q2 0 3 1t3 1l-4 -21l4 -20 q-6 -2 -11 -3t-11 -1v-25h16h10q6 74 11.5 147.5t9.5 147.5q6 92 9 183t13 183l25 -2l16 2v-4q1 -24 1 -48q0 -42 -4 -85q-7 -67 -13 -133q-2 -8 -2 -24l-10 -185l-7 -92v-22q-6 -215 -6 -431q0 -53 1 -98t2 -86v-27q0 -27 -1 -55q-2 -41 -8 -86l-41 -4q0 4 -1 6t-1 4 q0 8 4 17v4q-20 4 -31 4q-27 102 -28.5 205.5t-3.5 208.5q-2 57 -2 113.5v113.5q-70 -2 -125.5 -5t-107.5 -8t-108.5 -9.5t-125.5 -6.5q-18 0 -46 -3t-60 -5t-64.5 -4t-59.5 0q4 -66 7.5 -133.5t7.5 -134.5q2 -25 7 -68t5 -90t-6 -88t-27 -61l-35 8q-8 14 -10 32 q-2 -33 -5 -56t-9 -27q-16 -6 -26.5 4t-0.5 26h2q2 22 2 44q0 35 -4 69q-5 43 -5 86q0 14 1 29l4 94t6 94q-4 84 -5 170t-1 164v140.5t2 98.5v29.5t2 32.5q-6 68 -11 136.5t-7 133.5zM102 479q6 -69 6 -136v-34v-18q0 -75 15 -148q6 27 6 60t-3 64.5t-6 59t-5 46.5 q-4 41 -5 85t-6 87l-2 -53v-13zM135 727q0 -20 2 -29q41 4 81 5.5t81 5.5q16 2 34 3t34 5q-57 0 -114.5 3t-117.5 7zM528 702q49 2 86 6.5t70 7.5t68.5 5t85.5 2v18q-66 -10 -132.5 -12t-136.5 -10q-16 -2 -18 -4t-2 -4t-2.5 -4.5t-18.5 -4.5zM879 567.5q0 -55.5 2 -110.5 v-76t2 -74q4 43 6 87t4 89q2 51 4 100.5t6 100.5h-2q-6 0 -11 -1t-11 -3v-112.5z" />
<glyph unicode="I" horiz-adv-x="579" d="M-6 1346q4 10 7 18t7 18q14 0 27.5 -1t27.5 1v33h5q184 6 366 6q41 2 79 3h8q34 0 67 -7v-39q-2 0 -4 -2h-2q-20 -6 -43 -7t-45 -1v-16q-25 0 -66 -6.5t-90 -12.5q10 -27 14 -71.5t4 -91t-3 -84t-3 -50.5l-6 -174q10 -127 15.5 -253t7.5 -255q0 -14 1 -40.5t2 -60.5 t2 -70v-24q0 -23 -1 -44l98 6l41 6h2v-14l4 -25h2q23 -4 23 -20.5t-23 -20.5q-41 -2 -79 -4t-79 -6l-6 -21q-12 -10 -26.5 -4t-10.5 21l-65 -17q-43 -10 -88 -10t-90 4h-4q2 10 2 20.5v20.5h2h12q-4 8 0 16.5t16 12.5q37 2 74 7t74 9q2 45 3 89t5 87q2 78 2 155 q0 116 -4 231q-6 191 -6 386q0 25 -2 60t-5 71.5t-4 74.5v15q0 30 3 56q-48 -4 -94 -4q-24 0 -46 1q-68 3 -108 28zM291 977q0 -55 1 -111.5t3 -113.5q4 31 5 62.5t3 62.5q0 4 -1 8t-1 8zM293 102q16 4 26 4v210t-2 210l-8 -98l-8 -98q0 -59 -2 -114.5t-6 -113.5zM312 1201 q3 -36 7 -71q0 37 -1 73t-5 69q-2 -20 -2 -40q0 -16 1 -31z" />
<glyph unicode="J" horiz-adv-x="692" d="M14 152q-6 8 -6 16t8 16q13 13 29 -4q14 -20 65 -28q33 -4 67 -4q21 0 42 2q57 4 109.5 16t70.5 29q27 25 43.5 56.5t28.5 65.5q20 51 28.5 89t10.5 77q1 26 1 55v29v33q0 35 1 80q-2 180 -17.5 356t-21.5 328q0 16 12 20q6 12 19 13v16q0 23 18.5 25t22.5 -21 q10 -217 21 -426q7 -117 7 -235q0 -92 -4 -185q12 109 15 221q1 63 1 125q0 49 -1 97q-2 110 -6.5 213.5t-6.5 195.5q0 23 19 25h2q16 0 20 -21q2 -104 14.5 -246.5t17.5 -294.5q1 -44 1 -88q0 -107 -8 -212q-12 -150 -59 -271l-29 -86q-10 -41 -35 -76.5t-45 -72.5 q-8 -12 -33.5 -25.5t-60.5 -24t-76 -16.5q-31 -4 -59 -4h-19q-25 -3 -50 -3q-32 0 -63 5q-55 8 -83 31q-10 16 -1 27.5t25 5.5q12 -8 53 -15q-4 4 -4 7.5t-2 7.5q0 20 15.5 23t23.5 -13q8 -27 44 -32q20 -3 43 -3q19 0 40 2q29 16 60.5 27.5t58.5 34.5q0 2 2 4q4 6 7 11t7 9 q-35 -18 -92 -25q-43 -6 -87 -6h-30q-59 3 -108 14t-66 30zM422 100l14 9q18 18 31.5 40.5t24.5 45.5z" />
<glyph unicode="K" horiz-adv-x="944" d="M123 1353q0 40 8 81q10 18 26.5 14t12.5 -27l-6 -41q12 53 39 76l33 -8q4 -16 4 -23q10 4 18 0t12 -16l-8 -258q0 -16 -1 -30.5t-1 -30.5q-6 -121 -6 -244l55 43l35 31q61 72 119.5 138t117 129.5t120 126t130.5 126.5l5 4l26 -31l-2 -2h2q-16 -16 -28.5 -32.5 t-24.5 -32.5q33 27 74 36l18 -34q-57 -74 -115.5 -139.5t-120 -127t-127 -121t-137.5 -122.5q-16 -14 -32.5 -26.5t-32.5 -27.5l4 -4q29 -66 79 -121t95 -108l195 -229l86 -103q12 -14 38.5 -40.5t50.5 -58.5t40 -64q11 -23 12 -45q0 -8 -2 -15q-12 -4 -27 -10l-8 4 q-10 6 -12 8q-8 8 -13.5 15t-11.5 16l-28 -25l-9 6q-4 4 -4 6t-2 7q-20 33 -47 58t-55 54l-25 25q16 -33 33.5 -62.5t38.5 -60.5q6 -4 10 -17v-4l-39 -8q-45 66 -79.5 137.5t-73.5 141.5l-25 35q-35 47 -65.5 94t-61.5 96l-95 95t-81 106q0 -10 1 -19.5t1 -19.5 q6 -168 28.5 -332t24.5 -334v-16h-2q-2 0 -2 1t-2 1q-10 2 -17 2h-18v6q-2 172 -24.5 336t-28.5 334v8l-2 -2v-10q4 -51 6 -101.5t4 -101.5q5 -97 9 -197q1 -21 0 -41q0 -79 -13 -157q4 -10 6 -16.5t5 -33.5v-10l-25 -4l-8 -31l-33 -8q-16 20 -18 84q-1 25 -1 50q0 41 2 85 q-10 53 -13 110.5t-5 111.5q-1 49 -1 98q0 98 5 194q8 144 12 289v25l-8 96q-2 39 -6 80t-6 82t-2 81zM188 1020q2 -29 3.5 -54.5t5.5 -52.5q4 37 10 73t10 73l6 125q-2 33 -8 60.5t-8 60.5q-2 14 -1 29.5t-1 31.5q-8 -33 -11 -72q-4 -40 -5 -78q0 -19 -0.5 -37t0.5 -35 q1 -34 1 -54q0 -18 -1 -36t-1 -34zM483 967q43 39 82 74.5t76 70.5t74 73t73 85q-27 -23 -48 -45.5t-31 -32.5q-33 -31 -60.5 -57.5t-54.5 -53t-53.5 -54.5t-57.5 -60zM547 428q16 -29 32.5 -55.5t32.5 -55.5q59 -80 133 -153q27 -29 51.5 -52.5t47.5 -52.5q-4 6 -6 11.5 t-4 11.5q-25 45 -54.5 84t-60.5 78q-41 47 -85 92t-87 92z" />
<glyph unicode="L" horiz-adv-x="899" d="M18 1397q0 20 16 23h4q12 0 19 -13l6 -25v2l41 -14v-6q0 -51 -2 -90t-6 -74q-2 -81 -2 -162q0 -120 4 -240q6 -200 11 -403q4 -14 5 -26.5t3 -26.5q7 80 7 160q0 68 -5 134q-10 146 -15 292q-1 39 -1 77q-1 81 5 161q8 116 9 235l41 4v-6q0 -117 -8 -233q-6 -79 -6 -159 q0 -37 1 -75q2 -102 9 -204q6 -102 7 -204q0 -15 1 -29q0 -89 -6 -175q-6 -102 -27 -201q47 4 94 4t94 4q86 8 171 18.5t171 16.5q55 10 109 14q15 1 29 1q36 0 69 -7v-39q-4 -2 -8 -2h-2q-38 -6 -76 -6h-19q-16 1 -32 1q-32 0 -63 -3q-4 0 -9.5 -1t-9.5 -1 q-39 -6 -78 -14.5t-73 -16.5q72 2 143.5 3t142.5 1l6 -39q-2 0 -2 -2h-6q-72 -23 -152.5 -30t-162.5 -8h-41q-61 0 -121 2q-80 3 -151 3q-27 6 -19 27h-16q-10 -51 -23 -63q-8 2 -24 2q-16 18 -24.5 74.5t-10.5 119t-2 118.5v75q-5 147 -9 293q-3 87 -2 175q0 59 1 117 q2 41 10 80t16 80q-2 78 -8.5 150t-22.5 131z" />
<glyph unicode="M" horiz-adv-x="1249" d="M14 1382q0 20 17.5 22.5t21.5 -13.5q4 20 8 30l31 13q25 -18 37 -54q33 -25 65.5 -56.5t63.5 -68t58.5 -74.5t54.5 -73l75 -72l70 -67l4 4l80 61q0 2 4 6l19 13l73 59q90 86 189.5 169t193.5 142q12 10 23.5 2t9.5 -18h2q14 -4 20.5 -15.5t-6.5 -21.5q0 -186 12.5 -369.5 t22.5 -369.5q8 -104 13 -209v-16.5t-2 -16.5q4 -78 4 -156.5t-13 -156.5q-20 4 -32 4l-9 -2v4q-10 35 -11 73v19q0 30 2 58q3 38 9 77t9 76q0 20 -1.5 40.5t-1.5 43.5q-2 47 -4 96t-6 99q-6 82 -13 169t-17 164l4 -79q5 -95 5 -189q0 -59 -2 -117q-5 -152 -7 -305 q0 -59 7 -121q3 -25 3 -50q0 -36 -6 -73l-9 -10q-4 0 -6 -2q-16 -6 -27.5 7.5t3.5 25.5q3 28 3 56q0 30 -3 58q-6 56 -6 113q2 151 6 301q2 60 2 120q0 90 -4 181q-4 82 -11.5 163t-7.5 161l37 16l19 -28q-2 23 -2.5 46t-0.5 48l-36 -21q-23 -43 -64 -94t-88 -101t-93 -98.5 t-79 -84.5q-18 -18 -43 -40t-41 -46q0 -8 -2 -13q-4 -4 -6 -13t-8 -17q-8 0 -25 -5q-47 23 -83 66t-77 74q-31 23 -68.5 48t-77.5 52t-78 56.5t-71 60.5v-13q1 -174 3 -348q0 -21 1 -42q0 -153 -10 -308q-4 -63 -12 -126.5t-16 -129.5q3 -28 3 -54q0 -35 -5 -65v-14h-5 q0 -6 -4 -18l-26 8h-15v4q0 33 2.5 64.5t6.5 64.5v14q-4 47 -11.5 94.5t-7.5 94.5q0 139 -1 276t-7 275q-4 117 -15.5 231.5t-13.5 230.5zM55 1311l6 -72v45q0 4 -2 11.5t-4 15.5zM102 1042q2 -111 3 -219t1 -219q4 118 4 234v29q0 130 -4 261v37q-2 -33 -3 -63.5t-1 -59.5z M147 1200q47 -53 117 -102t133 -90l-37 49q-20 18 -38.5 37.5t-38.5 40.5q-23 23 -45.5 42t-44.5 42q-10 8 -22.5 17t-23.5 19v-55zM545 940l10 -8l2 2l53 51q-2 0 -4 2zM547 893l6 -10l45 -49q14 35 45 61.5t53 52.5q23 27 55.5 60.5t67.5 70.5t71 75t64 75 q-41 -35 -80.5 -71t-80.5 -71q-41 -39 -83 -72.5t-81 -74.5q0 -10 -8 -16q-8 -4 -13 -9l-4 5l-16 -15q-8 -6 -16.5 -6t-12.5 4zM1038 1348l4 -5l45 23v14z" />
<glyph unicode="N" horiz-adv-x="1011" d="M10 1292q-1 4 -1 8t1 9q-2 6 -2 11q0 13 15 15v54q0 23 18 24.5t22 -20.5v-13q18 -6 15 -26q16 -18 40.5 -49t48 -62t39.5 -53l17 -23q129 -154 239.5 -324.5t215.5 -342.5q0 -4 4 -8q2 -4 10 -13q27 -35 49 -78q23 -35 42.5 -70.5t35.5 -72.5l25 -27v56q-4 45 -8.5 89 t-6.5 87q-3 58 -3 114v27v47q0 46 -1 92v103q-6 106 -13 211.5t-11 212.5l-8 28q-6 12 2 21q-6 4 -14.5 10t-12.5 14q0 16 10 21.5t21 -0.5v25q0 23 18.5 24.5t22.5 -20.5v-68q0 -6 4 -14q-2 31 -2 68.5t28 54.5q3 1 7 1q11 1 19 -11q10 -14 -7 -27q-6 -4 -7 -17.5t-1 -30 t2 -33t2 -22.5q0 -59 -1 -118.5t-1 -118.5q4 -66 7 -129.5t7 -122.5q13 -168 27 -334q7 -88 8 -176q0 -78 -6 -156q18 -25 24 -43l-20 -26q-8 0 -10 2l-2 -15q2 -2 3 -4t5 -4l-11 -10l-2 -12v-11h-2v-2l-14 4q-6 2 -14 2q-14 -6 -28.5 2.5t-18.5 28.5q-2 8 -2 15.5v13.5 l-19 20q-86 92 -169 190.5t-146 207.5q-59 104 -112.5 207.5t-111.5 205.5l-83 107q-29 37 -59 74.5t-56 76.5l20 -188q14 -141 22.5 -280.5t12.5 -280.5q2 -52 5 -104q2 -39 2 -76v-25q-1 -49 -9 -98t-29 -99l-39 5q-2 29 -1 55t4 53q0 18 1 32.5t1 26.5 q-4 270 -19.5 535.5t-23.5 534.5l-7.5 15t-7.5 17zM133 1219q45 -63 84 -129t76 -134q10 -10 19.5 -22t19.5 -23q31 -41 64.5 -78.5t66.5 -76.5l-17 24q-39 55 -75.5 111.5t-75.5 109.5q-6 6 -22.5 29t-39 53.5t-49 66.5t-51.5 69zM387 782q35 -66 71 -131t77 -131 q53 -86 113.5 -162.5t125.5 -152.5q18 -20 39 -39q-10 35 -18 51l-11 21q-16 18 -22 32q-14 23 -24.5 45.5t-22.5 44.5l-8 17l-48 76q-66 86 -134 166.5t-138 162.5z" />
<glyph unicode="O" horiz-adv-x="1357" d="M8 568q-2 31 -2 64q0 64 8 132q2 37 17 94q2 53 14 105.5t47 99.5q70 92 129.5 153.5t127 101.5t149.5 63.5t196 39.5q13 2 26 2l60 -10q43 -14 86 -22q66 -12 113 -50t84 -90q96 -76 160.5 -177t68.5 -206q4 -64 14 -128q4 -23 5 -45q0 -41 -13 -79q-10 -29 -15 -60.5 t-12 -62t-18.5 -59t-29.5 -53.5q-82 -102 -136.5 -161.5t-107.5 -88.5q-29 -31 -62.5 -58.5t-70.5 -46t-78 -24.5q-15 -2 -31 -2q-27 0 -55 6q-20 4 -65.5 11.5t-98.5 19.5q-37 -5 -73 -5q-33 0 -65 4q-68 9 -124 54q-82 63 -134 139t-80 160.5t-34 178.5zM45 662v-26 q0 -116 32 -229q36 -126 120 -217q25 -25 45 -41t42.5 -28t47 -21.5t57.5 -19.5q2 -2 6 -2q-33 14 -51 31q-23 16 -50.5 53t-55.5 84l-37 37q-74 78 -106 160.5t-36 172.5zM102 748q4 -41 12.5 -80t18.5 -74q25 -90 67 -189.5t111 -171.5q45 -33 101.5 -57t122.5 -37 q16 -1 32 -1q45 0 93 8q64 12 126 31.5t116 46t93 57.5q31 23 57.5 50t51.5 58q37 98 52 207q9 63 9 123q0 44 -5 88q-11 102 -51 188t-112 140q-20 14 -43.5 23t-48 15.5t-49.5 11.5t-49 13q-20 10 -10 26.5t28 8.5q49 -16 98.5 -32t98.5 -34q23 -8 43 -25.5t37 -39.5 l-19 39q-10 6 -32.5 20.5t-38.5 24.5q-50 34 -100 62q-46 26 -106 26h-9q-70 -2 -144.5 -12.5t-148.5 -31t-142.5 -53t-125.5 -77.5l-13 -17q-51 -78 -80.5 -163.5t-40.5 -171.5zM360 1217q100 49 222 73q58 14 126 22q31 4 61 4q35 0 69 -5q25 -4 75 -23.5t101 -46.5 l-21 12q-90 57 -182 78v-12q-53 8 -105 14q-31 4 -61 4q-20 0 -41 -2q-12 -4 -25.5 -7t-25.5 -7q-96 -35 -193 -104zM729 119h10q29 8 56 16.5t47 16.5q-51 -20 -113 -33zM911 147q33 12 68 31q20 23 38 47.5t34 53.5q-37 -31 -84 -62q0 -8 -2 -12q-23 -33 -54 -58z M1104 274q68 74 107 170.5t49 200.5q-23 -147 -113 -264q-8 -29 -17.5 -56.5t-25.5 -50.5zM1137 1118l28 -55q27 -55 50.5 -108.5t37.5 -110.5q-29 156 -116 274zM1153 991q18 -51 28.5 -108.5t15.5 -114.5t5 -111.5t-6 -97.5q25 75 29 151q1 11 1 22q0 65 -20 132 q-10 31 -23.5 63.5t-29.5 63.5z" />
<glyph unicode="P" horiz-adv-x="956" d="M20 649l3 10v9l2 2l8 41q2 8 10 12q-2 61 -2 122.5v123.5q1 54 1 109t-1 110v15q0 102 25 200l18 16h10l17 -10q8 4 16 -1t10 -17v-11q20 10 46 18.5t50.5 15.5t44 12.5t31.5 7.5q40 7 81 7q52 1 106 -11q94 -20 176 -68.5t144.5 -121.5t90.5 -161q9 -26 9 -54 q0 -31 -11 -64q0 -14 -4 -25.5t-8 -22.5q3 -16 3 -30q0 -23 -7 -43q-12 -34 -35 -63t-50.5 -55t-47.5 -46q-25 -23 -66 -40.5t-92 -28.5q-52 -11 -110 -14q-25 -1 -49 -1q-33 0 -64 2q-73 -20 -146 -20q-18 0 -36 1q-2 -137 -2.5 -274t-0.5 -274q-6 0 -11 1t-9 1q-6 2 -20 2 v257t2 257q-6 -41 -11.5 -80t-7.5 -80l-6 -106q0 -57 1 -115t1 -115q2 -20 0 -41v-28l-41 32v43l-8 37q-4 2 -8 12q-4 129 -10.5 256t-12.5 256l-22 13zM113 928l4 -283h6q10 63 16 126.5t8 129.5q0 63 -7 126t-17 126q-4 -63 -8 -121q-3 -38 -3 -72q0 -16 1 -32zM147 1268 q2 -18 4.5 -37t6.5 -37v80zM195 682q10 -8 24 -14t31 -11h6q-16 8 -32.5 16.5t-28.5 20.5v-12zM195 758q23 2 53.5 -1t61 -9.5t59 -11.5t51.5 -7q10 -1 20 -1q70 0 145 24q85 28 152 65q6 8 13.5 15.5t13.5 17.5q29 41 43 80t18 74q-33 74 -108 122q-41 29 -88 47.5 t-97 28.5q-66 16 -134 18.5t-136 10.5q-18 6 -18 21.5t18 19.5q37 -4 74 -4t73.5 -2t72.5 -7.5t69 -19.5q51 -20 105.5 -32.5t91.5 -51.5l35.5 -35.5t27.5 -25.5q-10 18 -21.5 35.5t-25.5 33.5q-41 37 -94.5 63.5t-108.5 45t-110.5 28t-100.5 13.5q-10 0 -20.5 1t-20.5 1 q-31 -4 -58.5 -8t-51.5 -15q0 -135 -1 -267t-3 -267zM233 719q29 -23 68 -33t82 -10q18 4 36.5 6t39.5 6h-15q-35 0 -66.5 2t-66.5 8q-14 4 -34.5 10.5t-43.5 10.5zM338 1358l53 -6l70 -6q-23 6 -45.5 9t-42.5 5h-17.5t-17.5 -2zM393 1401l31 -6q66 -20 97.5 -29.5t52 -18 t41 -20.5t63.5 -39q49 -20 92 -53q-39 37 -88 66.5t-99.5 50t-99.5 33t-90 16.5zM516 639q61 10 115.5 26.5t95.5 41.5q61 39 94 96q-27 -27 -61.5 -47.5t-75.5 -36.5q-2 0 -2 -1t-2 -1q-39 -20 -80 -40t-84 -38z" />
<glyph unicode="Q" horiz-adv-x="1335" d="M8 568q-2 32 -2 64q0 64 8 132q2 37 17 94q2 53 14 105.5t47 99.5q70 92 129.5 153.5t127 101.5t149.5 63.5t196 39.5q13 2 26 2l60 -10q43 -14 86 -22q66 -12 113 -50t84 -90q96 -76 160.5 -177t68.5 -206q4 -63 14 -128q4 -22 4 -45q0 -40 -12 -79q-10 -29 -15 -60.5 t-12 -62t-18.5 -59t-29.5 -53.5q-35 -43 -62.5 -77t-52.5 -62q63 -80 126.5 -160t121.5 -164l4 -2l-2 -2l-15 -18q8 -12 3 -27l-5 -6q-20 0 -30 -2l-64 71l-26 23l69 -96q10 -18 -2 -27q-7 -6 -14 -6t-14 4q-59 84 -117 166t-117 166q-20 -16 -47 -31q-29 -31 -62.5 -58.5 t-70.5 -46t-78 -24.5q-15 -2 -31 -2q-27 0 -55 6q-20 4 -65.5 11.5t-98.5 19.5q-37 -5 -73 -5q-33 0 -65 4q-69 9 -124 54q-82 63 -134 139t-80 161t-34 178zM45 662v-26q0 -116 32 -229q36 -126 120 -217q25 -25 45 -41t42.5 -28t47 -21.5t57.5 -19.5q2 -2 6 -2 q-33 14 -51 31q-23 16 -50.5 53t-55.5 84l-37 37q-74 78 -106 160.5t-36 172.5zM102 748q4 -41 12.5 -80t18.5 -74q25 -90 67 -189.5t111 -171.5q45 -33 101.5 -57t122.5 -37q17 -1 34 -1q37 0 75 6q56 8 111.5 23t106.5 37.5t92 47.5q-29 23 -58.5 41t-57.5 43l20 35 q4 -2 10 -3t11 -6q-10 18 3 32t29 -3l78 -104l6 -6l17 12l-6 10q-14 16 -42 46t-34 57l20 22q2 2 6 2q14 -4 18.5 -13t0.5 -18q8 -20 27.5 -35.5t33.5 -31.5l6 -10q16 16 30.5 32.5t31.5 34.5q37 98 52 207q9 63 9 123q0 45 -5 88q-11 102 -51 188t-112 140q-20 14 -43.5 23 t-48 15.5t-49.5 11.5t-49 13q-20 10 -10 26.5t28 8.5q49 -16 98.5 -31.5t98.5 -34.5q23 -8 43 -25.5t37 -39.5l-19 39q-10 6 -32.5 20.5t-38.5 24.5q-51 35 -100 62q-47 26 -106 26h-9q-70 -2 -144.5 -12.5t-148.5 -31t-142.5 -53t-125.5 -77.5l-13 -17 q-51 -78 -80.5 -163.5t-40.5 -171.5zM360 1217q100 49 222 73q59 14 126 22q32 4 61 4q35 0 69 -5q23 -4 71.5 -22.5t98.5 -45.5l-15 10q-90 57 -182 78v-12q-53 8 -105 14q-30 4 -61 4q-21 0 -41 -2q-12 -4 -25.5 -7t-25.5 -7q-96 -35 -193 -104zM729 119h10q16 4 32.5 8 t33.5 10q-18 -6 -37.5 -10t-38.5 -8zM911 147q33 12 68 31l18 23l-16 24l-14 -8q0 -8 -2 -12q-23 -33 -54 -58zM1022 254q2 -2 3 -4t5 -4q2 4 4 7t4 7l-4 4q-4 -2 -12 -10zM1067 201q0 -2 2 -2q45 -47 88 -98.5t86 -100.5q-41 53 -82 105.5t-82 105.5zM1104 274 q68 74 107 170.5t49 200.5q-23 -147 -113 -264q-8 -29 -17.5 -56.5t-25.5 -50.5zM1137 1118l28 -55q27 -55 50.5 -108.5t37.5 -110.5q-29 156 -116 274zM1153 991q18 -51 28.5 -108.5t15.5 -114.5t5 -111.5t-6 -97.5q25 74 29 151q1 11 1 22q0 66 -20 132q-10 31 -23.5 63.5 t-29.5 63.5zM1243 0l2 -2z" />
<glyph unicode="R" horiz-adv-x="962" d="M20 649l3 10v9l2 2l8 41q2 8 10 12q-2 61 -2 122.5v123.5q1 54 1 109t-1 110v15q0 102 25 200l18 16h10l17 -10q8 4 16 -1t10 -17v-11q20 10 46 18.5t50.5 15.5t44 12.5t31.5 7.5q40 7 81 7q52 1 106 -11q94 -20 176 -68.5t144.5 -121.5t90.5 -161q9 -26 9 -54 q0 -31 -11 -64q0 -14 -4 -25.5t-8 -22.5q3 -16 3 -30q0 -23 -7 -43q-12 -34 -35 -63t-50.5 -55t-47.5 -46q-29 -29 -81 -47.5t-116 -28.5q41 -66 80 -129t80 -129q49 -61 90 -121q16 -23 39.5 -59.5t48.5 -71.5q18 -16 37.5 -30.5t28.5 -36.5l-35 -21q-16 10 -29.5 24.5 t-26.5 30.5l-12 15h-2l16 -23q2 -6 9 -8l-29 -10l-10 -11q-70 68 -121 146l-52.5 52.5t-47.5 51.5q-72 80 -140.5 160t-142.5 156q-59 -12 -114 -12q-17 0 -33 1q-2 -137 -2.5 -274t-0.5 -274q-6 0 -11 1t-9 1q-6 2 -20 2v257t2 257q-6 -41 -11.5 -80t-7.5 -80l-6 -106 q0 -57 1 -115t1 -115q2 -20 0 -41v-28l-41 32v43l-8 37q-4 2 -8 12q-4 129 -10.5 256t-12.5 256l-22 13zM113 928l4 -283h6q10 63 16 126.5t8 129.5q0 63 -7 126t-17 126q-4 -63 -8 -121q-3 -38 -3 -72q0 -16 1 -32zM147 1268q2 -18 4.5 -37t6.5 -37v80zM195 682 q10 -8 24 -14t31 -11h6q-16 8 -32.5 16.5t-28.5 20.5v-12zM195 758q23 2 53.5 -1t61 -9.5t59 -11.5t51.5 -7q10 -1 20 -1q70 0 145 24q85 28 152 65q6 8 13.5 15.5t13.5 17.5q29 41 43 80t18 74q-33 74 -108 122q-41 29 -88 47.5t-97 28.5q-66 16 -134 18.5t-136 10.5 q-18 6 -18 21.5t18 19.5q37 -4 74 -4t73.5 -2t72.5 -7.5t69 -19.5q51 -20 105.5 -32.5t91.5 -51.5l35.5 -35.5t27.5 -25.5q-10 18 -21.5 35.5t-25.5 33.5q-41 37 -94.5 63.5t-108.5 45t-110.5 28t-100.5 13.5q-10 0 -20.5 1t-20.5 1q-31 -4 -58.5 -8t-51.5 -15 q0 -135 -1 -267t-3 -267zM233 719q29 -23 68 -33t82 -10q18 4 36.5 6t39.5 6h-15q-35 0 -66.5 2t-66.5 8q-14 4 -34.5 10.5t-43.5 10.5zM338 1358l53 -6l70 -6q-23 6 -45.5 9t-42.5 5h-17.5t-17.5 -2zM391 592q59 -63 116.5 -129t115.5 -131q-35 63 -68 128.5t-70 131.5 q-24 -2 -47 -2zM393 1401l31 -6q66 -20 97.5 -29.5t52 -18t41 -20.5t63.5 -39q49 -20 92 -53q-39 37 -88 66.5t-99.5 50t-99.5 33t-90 16.5zM530 641q119 18 197 66q61 39 94 96q-27 -27 -61.5 -47.5t-75.5 -36.5q-2 0 -2 -1t-2 -1q-35 -18 -73 -38t-77 -36v-2zM643 373 q27 -47 54.5 -92t58.5 -88l53 -58l-55 80l-68 100z" />
<glyph unicode="S" horiz-adv-x="1048" d="M10 1101.5v53.5q0 49 35 87t87 65.5t113.5 45t110.5 27.5q2 2 4 2q31 8 62 13h2q70 31 142 44q39 7 73 7q29 0 57 -5q60 -11 103 -47t57 -100q18 -25 31 -61q-4 -16 -8 -25l-9 -6q-4 -2 -12 -2q0 -10 -2 -21.5t-4 -23.5l-41 4v2q0 8 2 13q7 33 7 62q0 24 -5 46 q-29 25 -68.5 36t-68.5 15q-51 4 -93 10.5t-81 10.5q-41 -16 -89 -43t-94.5 -62t-83 -75.5t-53.5 -86.5q38 -53 100 -79q50 -22 104 -22q12 0 24 1q16 -4 20 -16q31 -10 61.5 -21.5t59.5 -17.5q55 -14 106.5 -34.5t98.5 -57.5q27 -20 44 -38t29.5 -36t20.5 -38.5t20 -47.5 l31 -25q31 -27 43 -66.5t29 -76.5q14 -34 15 -67q0 -13 -3 -26q-8 -46 -31.5 -88t-58.5 -79t-66 -66q-78 -70 -165.5 -106.5t-186.5 -50.5q-72 -16 -147 -19q-76 -4 -149.5 -4t-141.5 33h-2q-2 0 -2 2l6 39l82 -6l-12 20q-12 10 -25.5 19.5t-28.5 13.5q-10 -10 -22 -4 t-12 22q0 2 1 4.5t1 4.5l6 4q-10 6 -10 17t14 20q12 4 50 -4.5t81 -18.5t82 -21.5t51 -13.5q28 -4 61 -4q28 0 60 3q68 7 136.5 28.5t132 55.5t108.5 79l18 23q16 33 29 69q0 10 6 17q0 4 2 6q6 25 10 49t4 49q-4 14 -10 26.5t-10 24.5v2q-12 29 -23.5 63t-27.5 68 q-68 45 -146 64.5t-159.5 35t-162.5 39t-151 74.5q-12 8 -18 25q-6 4 -11.5 8t-11.5 8q-16 8 -29.5 18.5t-27.5 20.5q-29 20 -43 37.5t-20.5 35t-6.5 40zM50 1092q7 -24 30 -48q-5 18 -5 37q1 40 21 83q30 63 88 116l29 25q-59 -23 -104.5 -59t-57.5 -91q-4 -21 -4 -37 q0 -15 3 -26zM118 1052q5 -30 27 -57q0 4 -1 5.5t-1 5.5q-8 25 -8 49q0 12 2 24q-8 18 -14 37q-7 -22 -7 -43q0 -11 2 -21zM135 137l6 -14q8 -4 15 -4q23 -4 44 -8.5t44 -8.5q10 -2 19 -2h20zM160 1141q16 29 37.5 54.5t50.5 49.5q-39 -23 -66 -49q-23 -23 -23 -47 q0 -4 1 -8zM174 1032q0 -14 2 -28.5t10 -28.5q29 -14 59.5 -24.5t63.5 -20.5h47.5t46.5 -2l37 -6q-25 8 -47 16t-49 8q-4 0 -6 2t-6 4q-43 10 -85 31t-73 49zM264 893q31 -18 68 -29.5t74.5 -20.5t73.5 -15.5t67 -14.5q39 -10 66.5 -14t51 -9.5t45 -12.5t50.5 -21 q-25 31 -51 47q-47 27 -93.5 39t-95.5 18t-100 11.5t-107 17.5q-12 0 -24.5 1t-24.5 3zM344 61q54 1 109 7q41 10 78.5 22t72.5 31q-66 -25 -133.5 -39t-126.5 -21zM557 881l94 -25q-23 10 -46 18.5t-48 16.5v-10zM657 1386l50 -4q-19 4 -37 4h-13zM768 1352q4 -4 10 -5 t10 -4q-4 4 -8 8.5t-8 8.5q0 -2 -2 -4t-2 -4zM793 219q29 25 51 52.5t33 56.5l-3 -4q-25 -47 -67 -88zM899 592q8 -35 8 -80q8 -39 12.5 -75t8.5 -66q17 41 17 86q0 9 -1 18q-4 55 -45 117z" />
<glyph unicode="T" horiz-adv-x="845" d="M4 1362h14l203 16h-2q-37 0 -75 -5q-21 -3 -42 -3l-34 2l-7 39l5 2l12 4q14 4 20 -6q31 2 60.5 5t60.5 3q14 1 29 1q28 0 56 -3q42 -4 83 -4q100 2 198.5 10.5t198.5 12.5q37 6 72 8q12 1 23 1q23 0 45 -3h18l-6 -12q4 0 16 -5v-34l-2 -2q-10 -4 -16 0q-10 0 -17.5 2 t-17.5 2q-27 -6 -51.5 -14.5t-50.5 -16.5q29 0 56.5 -2t55.5 -4h11l-7 -41h-4q-78 0 -154.5 -3t-154.5 -5q0 -23 -5 -49.5t-10 -48t-10.5 -37t-5.5 -17.5q-4 -23 -6 -45.5t-6 -44.5l-6 -107q-2 -57 -2 -114q0 -86 4 -172q2 -53 2 -107q0 -90 -6 -180q-4 -41 -7 -83t-7 -83 q2 -29 3 -58.5t5 -58.5l6 -8q10 -47 10 -86l-41 -4l-6 25q-2 -4 -2 -6.5t-2 -4.5l-4 -4q-8 0 -15.5 -1t-15.5 -1l-6 6q-8 8 -10 13q-8 16 -6 36.5t8 42l12 43t6 40.5q0 18 -1 65t-2 98.5t-2 93.5t-1 50q-6 203 -13 402.5t-12 402.5q-109 0 -215 8t-215 8h-2q-2 10 -4 20.5 t-6 20.5zM487 1305l5 -88q4 23 8 45t12 43h-25zM514 967q4 84 13 165.5t32 165.5q-16 -27 -25.5 -64.5t-14.5 -81.5t-5 -92v-93z" />
<glyph unicode="U" horiz-adv-x="1110" d="M23 926q0 102 3 204.5t25 204.5v15h2l8 30q4 8 9 11q0 8 1 14t1 14q8 16 22.5 15.5t18.5 -19.5q-4 -115 -10.5 -235.5t-6.5 -245.5q4 -35 11.5 -71t11.5 -72q6 -76 7 -151t5 -148q10 -47 23.5 -91.5t29.5 -85.5q37 -96 92.5 -154.5t118.5 -84.5q19 -2 38 -2q53 0 107 16 q72 22 138.5 67.5t121 109t87.5 134.5q27 125 30 251q1 30 1 60q0 96 -8 192q-10 126 -24 253t-18 254q0 23 18 25h3q16 0 20 -21q4 -121 16.5 -239.5t22.5 -237.5q-8 111 -19 220.5t-16 213.5q0 23 21 23v6q0 4 1 6t1 6l37 8q23 -33 33 -90t14 -118.5t4 -120t4 -95.5 q10 -100 13 -196q2 -58 1 -118v-81q-2 -109 -13 -196t-47 -156.5t-103.5 -120.5t-182.5 -86q-45 -14 -89 -31.5t-91 -21.5q-72 -6 -104 -10q-18 -3 -34 -3q-12 -1 -20 1q-22 4 -47.5 18t-83.5 45q-33 16 -54 60t-38 98q-4 8 -8 15t-8 15q-39 82 -58.5 168t-27.5 173 t-9 176.5t-1 179.5zM160 276q4 -16 7 -30.5t7 -28.5q12 -16 24.5 -29.5t24.5 -25.5q-18 29 -33.5 59.5t-29.5 54.5zM229 104q41 -54 103 -74q36 -12 83 -11q35 0 77 6h-74h-10q-30 0 -54 10q-28 12 -53 33l-8 4q-16 4 -31.5 13t-32.5 19zM657 88q50 25 93 62 q-23 -18 -45.5 -33t-47.5 -29zM782 123q72 37 115 83t65.5 104.5t29.5 131t9 164.5q1 45 1 91v47q-1 70 -5 137q-8 92 -12 182t-14 180q-4 23 -7 44.5t-8 43.5q6 -106 17.5 -216.5t17.5 -222.5q3 -56 3 -112t-3 -110q-6 -110 -39 -213l-12 -36t-14 -34q0 -4 -1 -6t-1 -6 q-16 -72 -52 -137.5t-90 -114.5z" />
<glyph unicode="V" horiz-adv-x="1122" d="M-4 1356q-2 14 -2 28t2 27l37 10q12 -18 17 -39.5t13 -44.5q16 -41 26.5 -82t21.5 -81q10 -16 19 -32t20 -30q-12 49 -25.5 97t-30.5 96q-16 29 -31.5 59.5t-25.5 62.5l37 19q33 -59 55 -117q12 -23 23.5 -46t23.5 -50q59 -135 119.5 -270.5t114.5 -272.5 q23 -61 41 -122.5t34 -123.5q47 -137 74 -280l16 -45q16 63 38 122.5t44 120.5l27 74q4 23 9 44.5t14 41.5q16 43 34.5 83t40.5 81q57 143 123 289q29 66 46.5 103.5t29.5 65t24.5 55.5t30.5 73q6 18 15 35q6 14 11 26.5t5 16.5q6 18 24.5 15t14.5 -26q-6 -23 -14.5 -47 t-18.5 -51q25 49 54.5 87t60.5 50l24 -30q-20 -35 -40.5 -82t-41 -102.5t-43 -114t-45.5 -113.5q-63 -154 -133.5 -301.5t-148.5 -294.5l-72 -139q-10 -37 -22.5 -60.5t-26.5 -50.5q-2 -6 -10 -18l-17 -37l25 -58q-8 -6 -15.5 -12t-17.5 -10l-22 25q-10 -16 -25 -9 q-19 -7 -29 13q-4 33 -14 61.5t-25 56.5q-88 135 -145 287t-106 305q-27 47 -50.5 96.5t-44.5 98.5q-20 47 -32.5 95t-22.5 95q-29 51 -54.5 102.5t-27.5 110.5v8h2q-8 28 -12 56zM174 1001q0 -2 4 -10v4q-4 4 -4 6zM201 1079l18 -71q0 -4 2 -7l7 -14t8 -12l57 -107 q-23 53 -46 105.5t-46 105.5zM268 829l56 -176l24 -78q29 -53 57.5 -104t55.5 -104q-4 16 -7.5 29.5t-7.5 29.5q-35 104 -79.5 203.5t-98.5 199.5zM408 385q8 -20 14 -40.5t14 -43.5q14 -41 33.5 -78t40.5 -73q-20 61 -46 119.5t-56 115.5zM516 135l10 -18q0 4 -1 7t-1 7 q-4 0 -8 4zM637 182q2 2 2 6q6 14 10 28.5t8 27.5q-6 -14 -11 -30t-9 -32zM717 342q4 6 5 11t3 7q76 147 146.5 293t134.5 299q23 53 40 106.5t37 106.5q-27 -55 -47 -107t-37 -81q-41 -76 -87 -148.5t-87 -148.5q-25 -61 -49 -121.5t-47 -122.5q-4 -23 -6 -46t-6 -48z M942 961l23 38q8 16 18 39t21 49z" />
<glyph unicode="W" horiz-adv-x="1933" d="M-4 1356q-2 14 -2 28t2 27l37 10q12 -18 17 -39.5t13 -44.5q16 -41 26.5 -82t21.5 -81q10 -16 19 -32t20 -30q-12 49 -25.5 97t-30.5 96q-16 29 -31.5 59.5t-25.5 62.5l37 19q33 -59 55 -117q12 -23 23.5 -46t23.5 -50q59 -135 119.5 -270.5t114.5 -272.5 q23 -61 41 -122.5t34 -123.5q47 -137 74 -280l16 -45q2 10 4.5 18t6.5 19l-6 4q6 16 12 31.5t14 31.5l51 139l23 64q-16 12 -2 31l12 14q4 14 8 26.5t9 24.5q16 43 34.5 83t40.5 81q27 39 48.5 74t43.5 63q31 96 48 187q-14 8 -12.5 21t18.5 18q-6 25 2 29.5t37 -27.5 q18 4 35.5 6t35.5 4h15q25 25 31 16.5t-3 -35.5q10 -16 12.5 -40.5t6.5 -45.5q8 -43 15 -70.5t24 -66.5q20 -29 41.5 -62.5t48.5 -70.5q23 -41 41 -81t35 -83q8 -20 13 -41.5t9 -44.5l27 -74q23 -61 44 -120.5t38 -122.5l16 45q27 143 74 280q16 61 34.5 123t41.5 123 q53 137 113.5 272.5t119.5 270.5q12 27 23.5 50.5t23.5 45.5q20 57 55 117l37 -19q-10 -33 -25.5 -63.5t-31.5 -58.5q-16 -47 -29.5 -95.5t-25.5 -97.5q10 14 19 29.5t20 32.5q10 41 20 81.5t27 81.5q8 23 13 44.5t17 39.5l37 -10q2 -14 2 -27.5t-2 -27.5q-4 -28 -12 -56h2 v-8q-2 -59 -27.5 -110.5t-54.5 -102.5q-10 -47 -22.5 -95t-32.5 -95q-20 -49 -44 -98.5t-50 -96.5q-49 -154 -106.5 -305t-145.5 -287q-14 -29 -24.5 -57t-14.5 -61q-10 -20 -29 -13q-14 -8 -24 9l-23 -25q-10 4 -17.5 10t-15.5 12l25 58l-17 37q-8 12 -10 18 q-10 16 -17 30.5t-16 31.5l4 -15q9 -29 21 -63q7 -19 6 -38q0 -15 -4 -30q-8 -16 -23.5 -11t-15.5 23q0 29 -8 55.5t-16 53.5q-16 66 -36 123t-43.5 110.5t-52 106.5t-63.5 111q-6 10 -21.5 33.5t-34 53t-38 63.5t-33.5 65q-51 -117 -106.5 -229.5t-114.5 -223.5l-72 -139 q-10 -37 -22.5 -60.5t-26.5 -50.5q-2 -6 -10 -18l-17 -37l25 -58q-8 -6 -15.5 -12t-17.5 -10l-22 25q-10 -16 -25 -9q-18 -8 -29 13q-4 33 -14 61.5t-25 56.5q-88 135 -145 287t-106 305q-27 47 -50.5 96.5t-44.5 98.5q-20 47 -32.5 95t-22.5 95q-29 51 -54.5 102.5 t-27.5 110.5v8h2q-8 28 -12 56zM174 1001q0 -2 4 -10v4q-4 4 -4 6zM201 1079l18 -71q0 -4 2 -7l7 -14t8 -12l57 -107q-23 53 -46.5 105.5t-45.5 105.5zM268 829l56 -176l24 -78q29 -53 57.5 -104t55.5 -104q-4 16 -7.5 29.5t-7.5 29.5q-35 104 -79.5 203.5t-98.5 199.5z M408 385q8 -20 14 -40.5t14 -43.5q14 -41 33.5 -78t40.5 -73q-20 61 -46 119.5t-56 115.5zM516 135l10 -18q0 4 -1 7t-1 7q-4 0 -8 4zM639 188v5v2v-7zM729 438l53 88l-43 -59zM907 795l8 16q10 25 23.5 49.5t26.5 48.5q-25 -33 -41 -65zM946 928l17 20q-4 6 -9 19 q-2 -10 -3 -19.5t-5 -19.5zM963 948l6 -12l2 -10q6 14 11 27.5t9 27.5l-2 4l2 2v2q-4 10 -6 8t4 -12zM997 877q8 -12 11 -23l18 45l-10 23zM997 1016l7 -10h2q2 4 10 12q-6 -2 -19 -2zM1024 942l12 -18q-2 -8 -10 -25q59 -139 124.5 -272.5t135.5 -266.5q2 -2 3 -7t5 -11 q-4 25 -6 48.5t-6 45.5l-33 84q-6 -10 -19 -8t-18 16q-25 80 -62.5 156t-64.5 158l-49 82l13 24q-6 6 -10.5 12.5t-8.5 12.5zM1049 948l12 -18l-6 37zM1354 240q6 -12 9 -24.5t7 -25.5zM1485 117l10 18q-4 -4 -8 -4q0 -4 -1 -7t-1 -7zM1501 150q20 37 40 73.5t34 77.5 q8 23 14 43.5t15 40.5q-31 -57 -56.5 -115.5t-46.5 -119.5zM1550 367q27 53 55.5 104t57.5 104l25 78l55 176q-53 -100 -98 -199.5t-80 -203.5q-4 -16 -7.5 -29.5t-7.5 -29.5zM1718 868l58 107q4 6 7 12l7 14q2 2 2 7l18 71q-23 -53 -46 -105t-46 -106zM1833 991q4 8 4 10 q0 -2 -4 -6v-4z" />
<glyph unicode="X" horiz-adv-x="1146" d="M31 26q-3 4 -3 10t3 13q63 111 128.5 220.5t135.5 217.5q43 72 87 141.5t91 139.5q-25 33 -41 66q-33 53 -58.5 102t-51 96t-53 94.5t-62.5 96.5q0 2 -1 2t-1 2q-16 12 -29.5 30.5t-28.5 36.5q-12 8 -12 19q-16 23 -35.5 41t-44.5 26q-20 10 -10 26.5t29 8.5q12 -4 18 -8 q-4 10 1 20.5t22 6.5q12 -4 32 -17q-8 16 1.5 24.5t25.5 4.5q33 -16 48.5 -54t33.5 -67q29 -47 65.5 -84t65.5 -80q31 -41 59.5 -82t57.5 -82l65 -94q66 86 135.5 168t149.5 158q6 6 14.5 12t16.5 12l55 62q33 35 60.5 82t58.5 76q8 2 14 4q2 1 4 1l8 -3q4 -6 7.5 -12.5 t7.5 -14.5q-2 -10 -7.5 -16.5t-11.5 -12.5q10 -6 10.5 -18t-12.5 -17q-23 -29 -47 -52t-49 -46q-51 -82 -103.5 -160.5t-111.5 -156.5l-129 -170l29 -39q106 -139 207.5 -279.5t195.5 -287.5q16 -27 23.5 -44.5t10.5 -33t8 -32.5t20 -46q-4 -4 -7 -4l-24 -23 q-37 43 -61.5 95.5t-55.5 99.5q-76 115 -149.5 228.5t-151.5 228.5l-74 100l-18 -25q80 -117 163 -229.5t167 -226.5q8 -10 26.5 -47t40.5 -80q45 -62 76 -112q27 -45 27 -66v-5q-8 -2 -14.5 -4t-14.5 -6q-18 8 -47 57.5t-58 104.5l-94 123q-78 104 -162 207.5t-161 214.5 q-41 -55 -80 -111.5t-74 -114.5q-25 -41 -47.5 -85t-50.5 -85q-27 -41 -58.5 -76.5t-60.5 -76.5q-23 -35 -40 -65.5t-46 -63.5q-8 0 -15.5 -1t-15.5 -1q-8 12 -6 30q-10 0 -16 8zM119 1389q25 -25 43 -50q4 2 5 1t5 1q-16 16 -29.5 28.5t-23.5 19.5zM131 135l29 39 q23 33 48.5 61.5t45.5 61.5q68 102 129 204.5t133 200.5l-12 17q-47 -63 -90 -129t-86 -131l-56 -92q-35 -59 -73.5 -115.5t-67.5 -116.5zM184 1327l21 -29q0 2 1 2t1 3zM360 1100q39 -66 80 -130.5t82 -129.5q4 4 7 10t8 10q-29 35 -55.5 71t-53.5 73q-8 10 -26.5 35.5 t-41.5 60.5zM422 926q33 -61 74 -123q2 2 2 4q-18 29 -38 58.5t-38 60.5zM530 756l13 -19h2l-15 21v-2zM555 791l12 -19l19 23l-15 18q-4 -6 -8 -11t-8 -11zM602 854l14 -18q57 78 115 154.5t111 156.5q-63 -72 -123 -144.5t-117 -148.5z" />
<glyph unicode="Y" d="M-4 1356q-2 14 -2 28t2 27l37 10q12 -18 17 -39.5t13 -44.5q16 -41 26.5 -82t21.5 -81q10 -16 19 -32t20 -30q-12 49 -25.5 97t-30.5 96q-16 29 -31.5 59.5t-25.5 62.5l37 19q33 -59 55 -117q12 -23 23.5 -46t23.5 -50q59 -135 119.5 -270.5t114.5 -272.5 q23 -61 41 -122.5t34 -123.5q47 -137 74 -280l6 -17q31 72 60.5 145t58.5 144q4 23 9 44.5t14 41.5q16 43 34.5 83t40.5 81q57 143 123 289q29 66 46.5 103.5t29.5 65t24.5 55.5t30.5 73q6 18 15 35q6 14 11 26.5t5 16.5q6 18 24.5 15t14.5 -26q-6 -23 -12.5 -43t-16.5 -43 q25 43 52.5 78t58.5 47l24 -30q-20 -35 -40.5 -82t-41 -102.5t-43 -114t-45.5 -113.5q-63 -154 -133.5 -301.5t-148.5 -294.5l-72 -139q-10 -37 -22.5 -60.5t-26.5 -50.5q-2 -6 -10 -18l-17 -37l25 -58q-8 -6 -15.5 -12t-17.5 -10l-22 25q-4 -6 -15 -11l-39 -86 q-25 -53 -53.5 -106t-56 -108.5t-49 -112t-33.5 -113.5q-10 2 -20.5 3t-20.5 1v10v6q-2 -2 -4 -3t-4 -5l-35 4q-6 16 3 52t28.5 83.5t44 98.5t49 98t46 85t32.5 56q16 29 30.5 54.5t28.5 54.5q-4 16 -11 30.5t-14 30.5q-88 135 -145 287t-106 305q-27 47 -50.5 96.5 t-44.5 98.5q-20 47 -32.5 95t-22.5 95q-29 51 -54.5 102.5t-27.5 110.5v8h2q-8 29 -12 56zM174 1001q0 -2 4 -10v4q-4 4 -4 6zM201 1079l18 -71q0 -4 2 -7l7 -14t8 -12l57 -107q-23 53 -46.5 105.5t-45.5 105.5zM268 829l56 -176l24 -78q29 -53 57.5 -104t55.5 -104 q-4 16 -7.5 29.5t-7.5 29.5q-35 104 -79.5 203.5t-98.5 199.5zM356 -342q27 37 43 70q14 33 28.5 65.5t31.5 63.5q-8 -12 -16.5 -25t-12.5 -27q-41 -72 -74 -147zM408 385q8 -20 14 -40.5t14 -43.5q14 -41 33.5 -78t40.5 -73q-20 61 -46 119.5t-56 115.5zM502 -53l24 47z M516 135l10 -18q0 4 -1 7t-1 7q-4 0 -8 4zM719 375l10 16l2 2l10 19q55 111 113.5 222t97.5 228q-31 -45 -58.5 -89t-49.5 -87q-27 -53 -51.5 -104.5t-49.5 -104.5l-14 -41q-4 -16 -6 -30.5t-4 -30.5zM942 961l23 38q8 16 18 39t21 49z" />
<glyph unicode="Z" horiz-adv-x="1171" d="M-35 -14h6l66 20t67 19q-10 2 -20 2h-21q-12 -2 -27.5 -1t-29.5 1v4q0 4 1 6t1 6v25h37l-18 14v2q8 16 14 25q-10 6 -4 24q35 49 54.5 102.5t47.5 104.5l146 240q104 166 217.5 323.5t218.5 321.5q-125 -18 -251 -24.5t-253 -8.5q-47 0 -92 -4q-15 -1 -30 -1q-30 0 -62 5 q-20 6 -18.5 24.5t24.5 14.5q26 -2 51 -2l39 1q45 3 88 3q131 2 265 8t268 27q6 12 13 23.5t15 23.5q-160 -8 -318.5 -14.5t-316.5 -18.5q-31 -6 -61.5 -11t-63.5 -9l-6 38q35 18 75 29.5t81 16.5q-23 4 -47.5 7t-46.5 7l-13 37l21 22q8 5 15 5q5 0 11 -4q10 -9 7 -25 q113 -14 226 -14h9q118 0 236.5 9t236 18t234.5 9h18l-6 -41h-6q-100 -4 -198.5 -9t-198.5 -13q100 4 198.5 8t198.5 12q16 0 24 2h7l-4 -41h-3q-10 -2 -21 -3t-22 -1v-2l-30 -33l4 -6l-8 -4h-6l-3 -2l7 -6q-8 -45 -32 -88t-54.5 -82t-65.5 -75t-61 -68q-86 -98 -162 -205 t-160 -211l-199 -246l-30 -33q-23 -41 -43.5 -80.5t-42.5 -80.5q45 8 99 17t89 13q94 8 187.5 9.5t187.5 13.5q41 6 83 16t84 19.5t84 14.5q23 3 47 3q19 0 38 -2l12 -37q-2 0 -4 -2q-4 -2 -8 -2q-12 1 -24 1q-29 0 -56 -4q-37 -5 -77 -13.5t-83 -18.5t-98 -16 q-92 -10 -186.5 -12.5t-188.5 -10.5q-35 -4 -85 -16t-99 -21l71 -6q117 23 234 35t235 21q39 2 89.5 8t102.5 9q31 2 61 2q20 0 40 -1q49 -2 86 -14l-4 -17h27.5t27.5 -4q4 0 7.5 -2t7.5 -4t10 -4l6 -31q-8 -12 -49 -21t-89 -16.5t-92 -11.5t-59 -4q-93 -5 -185 -5h-31 q-107 1 -216 5q-117 -18 -231.5 -35.5t-231.5 -19.5q-4 0 -6 -2l-6 41v2zM84 98h2h12.5t22.5 4q-14 12 -15 29zM160 291q127 182 265 350t280 340q45 61 96 127q25 37 56.5 78t60.5 71q0 2 -1.5 2.5t-1.5 2.5q-35 -10 -69.5 -16.5t-69.5 -12.5q-111 -174 -228.5 -339 t-228.5 -339q-16 -25 -34.5 -55.5t-39 -63.5t-39 -64.5t-32.5 -56.5q-6 -8 -14 -24zM168 -2q25 2 50 6t54 8q-6 0 -13 1t-15 1l-40 -8t-36 -8zM416 43q10 -2 18 -2h17l114 18q-37 -4 -74.5 -8t-74.5 -8zM696 35q86 0 176 6q23 2 48.5 7t50.5 9q-45 -2 -91 -5t-85 -6t-65 -6 t-30 -3q-2 -2 -4 -2zM805 1278q43 8 87 18.5t87 22.5l6 8q-39 -4 -78 -5t-78 -3z" />
<glyph unicode="[" horiz-adv-x="393" d="M11 116.5q1 73.5 4 147.5t3 144v14q-4 121 -5 238.5t3 238.5q2 29 3 88.5t6 128.5q-4 68 -6.5 136.5t-2.5 138.5q0 23 18.5 24.5t22.5 -20.5v-2q59 10 115.5 20t114.5 19l4 -35q27 -4 41 -19v-35q-16 -10 -63.5 -15t-100.5 -9q-4 -350 -17.5 -694t-15.5 -695 q-4 -12 -10 -16q43 0 89 -6t81 -29l-8 -20q2 0 3 -1t5 -1h2v-13l4 -26h-4v-2h-6q-72 -14 -133.5 -16.5t-102.5 -12.5q-16 -2 -21 7t-1 20h-2v12q-12 70 -16.5 143.5t-3.5 147zM72 -129v-21q39 14 86 21q-16 2 -31.5 1t-32.5 -1v-6l-8 6h-14zM94 770q4 -72 6 -142.5t4 -142.5 q6 209 13.5 416t9.5 416h-21q-10 -102 -11 -206.5t-1 -209.5v-131zM96 -78v-10q2 0 4 1t6 1q-8 4 -10 8z" />
<glyph unicode="\" horiz-adv-x="692" d="M-8 1391q0 6 2 8l26 12q12 -6 27 -20q8 8 19 4q8 -4 19 -23.5t22.5 -48.5t22.5 -64.5t22 -72.5l45 -121q4 -8 6 -14.5t4 -14.5q-6 33 -11.5 63.5t-13.5 63.5q-12 53 -25.5 89t-28.5 65t-32.5 58.5t-42.5 70.5q12 16 29 29q8 -4 12 -9q10 -10 6 -22l27 -49q0 4 4 16l4 4 q10 -2 18.5 -3t18.5 -5q41 -86 64.5 -177t50.5 -181q47 -160 97 -319t112 -314q10 -25 20 -50.5t21 -52.5q10 -20 22 -51t29 -55q10 -16 28.5 -41t32 -51.5t14.5 -52t-26 -44.5q-35 2 -65.5 55.5t-55 123t-44 138t-32.5 99.5q-35 86 -73.5 166t-73.5 166q10 -41 20.5 -80 t22.5 -78l6 -18q25 -68 52.5 -135.5t54.5 -135.5l16 -40q16 -41 28.5 -84t22.5 -89l10 -49q0 -4 1 -8t1 -8l-8 -4l-14 -4l-6 -2q-8 -4 -11 -4q0 4 -1 9t-1 11l-12 49q-14 55 -32.5 108.5t-41.5 108.5l-14 39q-18 37 -34.5 74t-28.5 78l-25 80q-35 98 -69.5 196.5 t-67.5 198.5q-14 47 -26.5 94t-24.5 94q-12 31 -25.5 62t-27 57.5t-26 47t-20.5 30.5q-10 0 -17 6.5t-3 20.5zM256 1012q9 -50 25 -99l16 -45zM573 160q8 -18 17.5 -38t19.5 -36q0 27 -11 42t-26 32z" />
<glyph unicode="]" horiz-adv-x="378" d="M-4 1343v35q14 14 41 19l4 35q57 -8 113.5 -18.5t115.5 -20.5v2q4 23 22.5 20.5t18.5 -24.5q0 -70 -2 -138.5t-6 -136.5q4 -70 5 -129t3 -88q4 -121 3 -238.5t-5 -238.5v-14q0 -70 3 -144t4 -147.5t-3 -147t-16 -143.5v-12h-2q4 -10 -1.5 -19.5t-21.5 -7.5 q-41 10 -102 12t-133 17h-6v2h-4l4 26v13h2q4 0 5 1t3 1l-8 20q35 23 81 29t89 6q-6 4 -10 16q-2 350 -15.5 694.5t-17.5 694.5q-53 4 -100.5 9t-63.5 15zM170 -129q47 -6 86 -21v21h-14l-9 -6v6q-16 0 -31.5 1t-31.5 -1zM201 1317q2 -209 9 -416t13 -416q2 72 4 142.5 t6 142.5v131q0 104 -1 208.5t-11 207.5h-20zM221 -86q4 0 6 -1t4 -1v10q-2 -4 -10 -8z" />
<glyph unicode="^" horiz-adv-x="753" d="M8 1018q2 16 24.5 49t56.5 73t76 84t80 86t69.5 76.5t47.5 57.5l31 -23q31 -6 82 -50t100.5 -99t85 -107.5t37.5 -74.5l-22 -21q-6 0 -10 2q10 -29 0 -63q-10 0 -19.5 -1t-19.5 -1q-23 47 -54.5 88t-68.5 78.5t-75 73.5t-71 77l-22 -45q-55 -76 -101.5 -155t-117.5 -142 q-2 -2 -2 -4l-21 18l-12 9q10 20 23.5 39.5t25.5 39.5l-86 -82q-10 4 -18.5 8.5t-18.5 8.5zM362 1329l3 2l18 25q8 -6 15.5 -9.5t15.5 -7.5v4q0 12 8 19q-8 6 -14.5 9t-10.5 7q-4 -4 -12 -4q-4 -6 -9 -16.5t-11 -22.5q0 -2 -1.5 -3t-1.5 -3zM457 1333q2 -4 2 -8 q12 -6 20 -14zM483 1307q2 -2 3 -4.5t6 -4.5q20 -23 40.5 -53.5t42.5 -58.5q36 -26 56 -51q-27 37 -67 84t-81 88z" />
<glyph unicode="_" horiz-adv-x="868" d="M0 -113h6q16 6 32.5 11.5t33.5 9.5q-18 2 -35 5t-29 13q-10 16 -1 27.5t26 5.5q14 -10 37.5 -12t49 -1t50.5 4t41 3q25 2 49.5 3t48.5 1q59 8 115.5 12t116.5 8q47 10 97 14.5t93 -7.5h14l-6 -9q37 0 66 -12l10 -18q2 -20 -18.5 -33.5t-49 -22t-55 -12.5t-37.5 -6 q-86 -16 -173 -26.5t-177 -14.5q-23 0 -49.5 -1t-52 -2t-44 -3t-20.5 -4q-16 -12 -29.5 0t-0.5 28q0 2 2 2q-27 -2 -52.5 -3t-52.5 -1l-6 39v2zM252 -92q16 2 31.5 3t31.5 5h-12zM291 -129h14q37 2 95.5 6t122 10.5t124 17.5t101.5 29q-31 2 -69 -2t-76 -11t-73 -14t-55 -9 q-47 -6 -92 -12.5t-92 -14.5z" />
<glyph unicode="`" horiz-adv-x="436" d="M6 1393.5q4 11.5 19 9.5l16 29q33 -4 63.5 -19.5t59.5 -38.5q27 -10 55.5 -35.5t54 -56.5t47 -63.5t33.5 -57.5q2 -4 11 -12l-37 -14l-4 -2h-2q-2 0 -3 4q-25 29 -60.5 74.5t-76.5 86.5q8 -8 13.5 -15t13.5 -17q37 -41 70.5 -84t62.5 -95l6 -6l-33 -26q-25 27 -49 61 q-78 29 -142.5 98t-113.5 132q-10 14 -2 26q-6 10 -2 21.5zM59 1350q35 -45 76 -91.5t88 -76.5l-20 30l-72 82l-31 29q-10 8 -20 14t-21 13z" />
<glyph unicode="a" horiz-adv-x="978" d="M2 433q6 50 27.5 94t55.5 81t75 56q45 53 93 90t95 41q41 2 81 8q11 2 22 2q28 0 55 -12q35 -14 69.5 -26.5t67.5 -31.5q14 -2 27.5 -4t27.5 -6q25 -4 49.5 -17.5t38.5 -35.5q2 -4 4.5 -7t4.5 -8q0 4 -1 8.5t-1 8.5q-10 53 -25.5 117.5t-50.5 113.5l-4 4q-53 39 -124 55 q-56 12 -114 12q-15 0 -29 -1q-57 -16 -106 -47t-95 -61.5t-91 -53t-95 -22.5l-18 16q-4 27 12.5 49.5t38.5 38.5l6 16q111 72 240 102.5t256 39.5h7q31 1 59 -15q32 -18 65 -30q27 -10 49.5 -38t41 -60.5t32.5 -66.5t20 -57q35 -111 41 -225.5t9 -228.5q0 -53 3 -120 q1 -14 1 -28q0 -51 -9 -96q-6 0 -11 1t-9 1q0 -35 -3 -68.5t-13 -58.5l-41 4q-2 14 -2 28q0 21 5 44q9 37 17 72v47t-2 49l-6 -17q-6 -23 -26.5 -44t-46 -40.5t-54.5 -36t-53 -28.5q-57 -31 -123 -49q-58 -15 -114 -15q-9 1 -17 1q-64 2 -122.5 27.5t-98.5 80.5 q-78 31 -130.5 93.5t-52.5 158.5q-10 32 -10 65q0 15 2 30zM53 354q4 -10 7 -20t10 -21q33 -68 73 -114q-6 25 -11 50t-9 50q-9 47 -19 113q-3 23 -4 45q0 39 11 73q-29 -51 -45 -108q-10 -39 -13 -68zM88 834q51 12 99.5 46.5t86.5 57.5l13 6q-41 -12 -74 -31 q-12 -8 -33.5 -16t-42.5 -20q-8 -8 -16 -11q-10 -8 -18.5 -15t-14.5 -17zM141 456q4 -56 13 -102q-2 4 -2 6t2 0q0 -8 2 -12q2 18 10 45q20 74 51 118t74 70.5t96 40t119 23.5q27 4 52.5 -2t51 -17.5t51 -22.5t50.5 -19l2 -2q-39 64 -113 92q-69 27 -149 26h-11 q-86 -18 -160.5 -58t-113.5 -91q-25 -34 -26 -82q1 -6 1 -13zM154 352q0 -4 1 -5t1 -5v4q0 2 -1 3t-1 3zM166 610l35 31q-4 -4 -8.5 -5t-8.5 -5zM199 258q6 -55 33.5 -94t66.5 -64q15 -1 31 -1q36 1 74 7q54 10 105.5 33t96.5 62t80 94q30 49 48 111q10 32 9 63q0 29 -8 57 q-27 18 -60.5 32.5t-66.5 24t-60.5 14.5t-41.5 7q-13 1 -25 1q-57 -1 -107 -23q-60 -28 -102 -78q-43 -50 -62 -114q-13 -45 -13 -92q0 -20 2 -40zM295 719q23 8 70 14q14 2 33 3t42 1q20 4 40 6t40 2l-31 9q-26 5 -52 5q-24 -1 -48 -5q-49 -10 -94 -35zM354 23 q41 -11 85 -11q38 0 77 8q-28 -2 -53 -2t-49 2q-13 -1 -24 -1q-20 0 -36 4zM432 66q72 3 123 38q-55 -27 -123 -38zM565 70q61 18 114.5 58t86.5 93t42 117q2 16 2 32q0 48 -19 97l-5 6q-2 -53 -24.5 -105.5t-38.5 -91.5q-27 -66 -82 -114q4 -14 0 -25q-23 -35 -76 -67z M737 659l31 -30l-12 14zM748 592l18 -35l25 -18zM803 201q4 2 8 10q14 20 22.5 39.5t14.5 40.5q0 4 -1 8t-1 8q-12 -59 -43 -106zM807 793q20 -68 29.5 -136.5t19.5 -138.5l4 -20l6 -13q-2 84 -14 163t-45 145z" />
<glyph unicode="b" horiz-adv-x="1107" d="M23 444q-7 39 -7 78q0 61 17 123l4 316q0 47 5 98t7 101q1 20 1 40q0 30 -2 60q-3 50 -17 92q-2 4 -2 14l39 10q20 -47 24 -99q2 -30 2 -60q0 -23 -1 -47q-3 -54 -9 -108t-6 -106l-2 -211l12 21l6 10q8 147 12 299v36v72t2.5 90t7.5 89t13 70.5t23 33.5l28 -18 q6 -49 6 -96q-2 -20 -22 -21l-8 -483q63 61 150 103q88 41 180 55q38 6 75 6q54 0 106 -12q89 -20 160 -78q66 -55 111 -105.5t72 -108.5q26 -56 36 -122q8 -47 8 -106q0 -22 -1 -46q0 -45 -23 -86q-4 -18 -9 -32.5t-16.5 -32t-32 -44t-50.5 -69.5q-25 -35 -71 -58.5 t-99.5 -39t-107.5 -21.5t-93 -6h-10q-33 -4 -62 -4q-15 0 -28 1q-41 3 -70 19l-27 15q-57 18 -107 46t-91 68v-159h-9l-32 -2q-6 53 -8.5 109.5t-4.5 111.5h-2q-2 -35 -2 -72v-72v-2l-8 -2q0 -27 -2 -50t-12 -52l-21 -12h-8l-18 16q-4 39 -4 78q0 18 1 38q3 58 3 118l2 165 q-4 10 -5 20.5t-3 20.5zM72 485q4 47 8 96.5t8 100.5q-2 -2 -2 -6l-12 -31v-2zM150 610l32 86q18 47 58.5 91t89.5 57l20 6q23 20 44.5 36.5t47.5 20.5q35 4 67 7.5t64 5.5q25 4 50.5 7t54.5 7q14 -4 19 -15.5t-5 -21.5q45 -18 94.5 -50t90.5 -69t71.5 -74.5t42.5 -70.5 q6 -23 19 -41q-4 20 -11.5 38.5t-15.5 37.5q-59 131 -165.5 205.5t-228.5 90.5q-32 4 -64 4q-89 0 -175 -32q-117 -43 -196 -143q-2 -45 -3 -90.5t-1 -92.5zM160 512q-7 -47 -7 -88q0 -88 32 -150q48 -92 139 -139q-43 33 -75 73t-46 85l-37 125q-5 19 -5 38q0 14 3 28 q6 34 14 65q16 72 54 127t87 100q-10 0 -12 6q-57 -41 -95 -108.5t-52 -161.5zM209 484q-2 -20 -2 -39q1 -59 19 -111q24 -70 77 -122t124 -80q61 -24 132 -24h23q84 4 172 48q63 33 122.5 87t88.5 122q20 50 20 97q-1 17 -3 33q-10 62 -43.5 115.5t-85 96t-108.5 71.5 q-72 36 -139 52q-53 12 -103 13q-13 0 -26 -1l-35 -19q-113 -63 -176 -174q-49 -84 -57 -165z" />
<glyph unicode="c" d="M29 508q-2 16 -2 32q0 81 43 152q51 84 141 150q43 37 88 65.5t82 46.5q29 14 57.5 18.5t59.5 4.5q39 8 83 12q18 2 35 2q25 0 49 -4q40 -6 73.5 -24.5t52.5 -53.5h12q23 -4 22.5 -20.5t-22.5 -20.5h-2q-4 -10 -15.5 -11t-19.5 11l-4 6l-23 5h-2q-14 -2 -22 6 q-53 14 -105.5 29.5t-105.5 19.5q-10 -2 -16.5 -4t-14.5 -4q-16 -6 -32.5 -15.5t-32.5 -19.5q12 0 25 1t26 1q41 16 82 18q20 0 40.5 -7t40 -16t39 -18.5t39.5 -11.5q23 -4 23 -20.5t-23 -20.5q-57 6 -87.5 22.5t-59.5 24.5q-6 -6 -14 -6q-29 -4 -56 0q-16 -8 -36.5 -19.5 t-47.5 -29.5q-41 -31 -77.5 -85t-62.5 -120.5t-40 -140.5q-11 -58 -11 -113q0 -16 1 -31q31 -66 78 -118q10 -6 20 -10.5t21 -8.5q60 -24 123 -24q13 0 27 2q76 6 151 24q29 6 77 24.5t95 47.5q14 10 27.5 20.5t29.5 18.5l14 -29q12 8 23.5 15.5t26.5 13.5l24 -31 q-14 -27 -36.5 -48t-45.5 -46q-16 -16 -32.5 -33.5t-36.5 -34.5l39 17q35 16 75.5 42.5t48.5 67.5q10 19 26 15q13 -3 14 -19q0 -4 -1 -8q-4 -25 -19 -44t-34.5 -36.5t-43 -31t-44.5 -21.5q-53 -23 -106.5 -45.5t-106.5 -44.5q-35 -14 -90 -16h-13q-50 0 -102 10 q-60 12 -112 32.5t-80 47.5l-6 4l-29 14q-25 10 -42 31.5t-28 50.5l-26 27q-33 35 -45.5 81t-32.5 89q-13 31 -13 65q0 31 5 78zM72 516q6 -53 32 -106v6q-1 9 -1 19q1 34 11 80q14 60 40 126l20 61q16 53 51 97q-16 -10 -28.5 -22.5t-24.5 -22.5q-84 -106 -100 -238z M80 358q12 -47 37 -94q-2 10 -3 22.5t-1 22.5q-10 12 -17.5 24.5t-15.5 24.5zM143 342q4 -8 17 -25l16 -24v6l-24 51zM156 258q12 -53 41 -98q4 -4 6 -5t4 -5q-6 18 -11.5 36.5t-9.5 40.5q-16 13 -30 31zM166 468q2 -26 10 -54q4 57 12.5 106t18.5 78q23 63 63.5 130 t98.5 114q-68 -33 -119 -106.5t-80 -166.5q-2 -10 -3 -22t-1 -23q-1 -14 -1 -28.5t1 -27.5zM238 186q16 -35 38.5 -62.5t57.5 -43.5q16 -8 51 -8q-14 6 -27 18l-73 68q-14 6 -25.5 13t-21.5 15zM373 125q45 -33 90 -47q33 6 66.5 14t66.5 19q18 10 35.5 21t36.5 22 q-29 -8 -58.5 -15.5t-60.5 -13.5q-43 -9 -87 -9t-89 9zM500 23h24q-4 0 -12 4q-8 -4 -12 -4zM580 56q37 0 79 14q35 10 80 41.5t86 72.5q-14 -10 -28.5 -19.5t-28.5 -19.5q-72 -47 -168 -77z" />
<glyph unicode="d" d="M8 473q-2 22 -2 44q0 67 18 131q24 85 89 138q27 23 50 50.5t52 46.5q51 43 107 71q53 27 98 27h6l256 -20q23 -4 23 -20.5t-23 -20.5l-23 2q8 -4 8.5 -13.5t-3.5 -15.5q12 -6 39.5 -13.5t39.5 -17.5l5 -4l28 -14q2 104 5 208.5t10 209.5q-2 2 -3 6q-6 23 -1.5 43 t10.5 41v2l10 -4l31 -2q0 -2 -1 -3.5t-1 -3.5h2q0 -2 -2 -4q0 -4 -1 -10t-1 -10l6 2v-2q12 -71 13 -143v-29q0 -58 -3 -117q20 4 24 -18q0 -59 4.5 -120t8.5 -120l2 -2q-4 160 -8 315.5t-4 315.5q0 23 18 25h2q16 0 21 -21q0 -170 4 -337t8 -337q16 -18 24 -45 q52 -80 54 -177v-7q0 -94 -64 -197q4 -77 6 -155v-23q0 -66 -10 -129q-10 2 -20.5 3t-20.5 1q-10 55 -10 111.5t-2 113.5l-33 -35l2 -94q0 -18 2 -38.5t0 -41t-12 -35t-33 -20.5q-3 -1 -5 -1q-6 0 -11 4q-6 5 -7.5 12.5t3 14.5t14.5 11q8 2 10 14.5t2 27.5t-2 29.5t-2 18.5 q0 16 -1 31.5t-1 32.5v-103q-4 -23 -22.5 -20.5t-18.5 24.5v70q-51 -33 -111.5 -52.5t-126 -31.5t-132 -18.5t-130.5 -8.5h-10q-64 0 -113 46q-53 50 -87 122t-48 151q-9 51 -9 94q0 23 3 44zM63 291q16 -86 67.5 -149.5t150.5 -82.5q47 -10 96 -10t96 10q-53 6 -103.5 26.5 t-97.5 43.5q-35 10 -71.5 30.5t-75.5 55.5q-35 29 -62 76zM74 451q10 -49 32.5 -93.5t55.5 -81.5q-46 78 -60 174q-3 24 -4 46q0 70 31 133q-12 -12 -25 0q-30 -81 -30 -159v-19zM137 643q4 10 19 29q31 41 43 59.5t23 30.5t29.5 26.5t59.5 45.5q23 16 72 32 q-27 -2 -51.5 -5t-46.5 -11q-84 -47 -142 -143l-6 -62v-2zM158 374q24 -98 116 -173q25 -23 50 -37q10 -4 21 -7t22 -7q31 -4 65.5 -7.5t75.5 -9.5l2 -2q35 6 70.5 15.5t76.5 15.5q18 8 52 19.5t53 25.5l10 10q1 93 1 185v92.5v92.5q0 92 1 185l-24 29l-17 8h4 q-43 14 -104.5 26.5t-108.5 20.5q-23 -4 -43 -10t-41 -10q-104 -29 -178 -103t-102 -167q-15 -49 -14 -100q0 -46 12 -92zM836 672q2 -88 6 -176t8 -179l2 2q0 2 4 7q15 39 15 83v6q-1 48 -3 107l-8 82q-10 33 -24 68zM836 807l6 -2l-4 41v-19.5t-2 -19.5zM838 752 q4 -6 6 -11.5t4 -11.5v12zM942 412q22 59 22 113q0 12 -1 24l-11 -90q-2 -12 -4 -23.5t-6 -23.5z" />
<glyph unicode="e" d="M29 494q-3 20 -3 40q0 24 4 48q7 45 29 82q23 41 44.5 81.5t50.5 75.5q57 66 107 104t99 57q48 20 98 24q30 3 62 2q21 0 43 -1q55 -3 120 -10.5t142 -9.5q10 -2 19 -10h30q14 -4 18.5 -13.5t0.5 -17.5q14 4 21.5 -11t-7.5 -26q-31 -18 -57.5 -41.5t-48.5 -52.5 q18 0 14 -27l-4 -8l2 2q16 10 27.5 -1t3.5 -27l-80 -76q-35 -63 -82 -132t-98.5 -135.5t-104.5 -129t-98 -115.5h45q80 0 156 5q98 7 196 46q20 8 40 26.5t39.5 37t40 32t42.5 11.5q6 -4 11 -7.5t10 -7.5q4 -8 4 -14q4 -20 -13.5 -25.5t-25.5 11.5q-29 -10 -54.5 -41 t-50.5 -47q-18 -12 -42.5 -19.5t-45.5 -15.5q-63 -23 -130.5 -29t-135.5 -6q55 -12 112 -13q25 0 50 3q68 6 128 25.5t115 58.5l86 61q10 14 24.5 8t12.5 -22q17 8 27 -8q4 -6 4 -11q0 -9 -10 -16q-61 -47 -120.5 -86t-123.5 -62q-23 -16 -45 -31.5t-49 -29.5 q-62 -30 -137 -30h-14q-83 3 -160.5 32t-143 80t-98.5 117l-10 20q-20 -8 -27 14l-27 84q-6 16 -9 28.5t-7 31.5l-4 16q-4 8 -4 15.5t-2 15.5q-2 10 -2 20.5v22.5zM84 467q0 -92 42 -176t140 -137l33 -19q0 4 4 8q-6 2 -6 11q-23 12 -41 26.5t-35 30.5q-2 0 -4 -2l-24 31 q-41 47 -70 103t-39 124zM121 586q-1 -12 -1 -25q0 -24 3 -47q4 -31 12.5 -61.5t18.5 -59.5q25 -66 69 -121q43 47 82 98.5t82 98.5q55 61 111.5 120.5t109.5 121.5q35 39 67 74.5t68 70.5q-25 16 -48 32.5t-52 26.5q-55 19 -110 19q-21 0 -43 -3q-76 -11 -143.5 -49 t-123 -97.5t-90.5 -127.5q-10 -35 -12 -71zM256 238q25 -27 53 -48q29 51 59.5 99.5t63.5 95.5q-29 -23 -53.5 -43t-46.5 -37q-20 -16 -38 -33.5t-38 -33.5zM293 88q78 -50 163 -66q33 -6 65 -6q52 0 104 15q-18 -2 -35 -2q-26 0 -51 4q-23 4 -49.5 5t-51.5 11 q-35 12 -72.5 18.5t-72.5 20.5zM338 119q35 -16 66.5 -24.5t66.5 -14.5q-35 6 -65.5 18.5t-61.5 28.5zM373 391l157 131l45 62q20 27 40 56.5t42 59.5q-59 -66 -120.5 -130t-120.5 -130zM377 225q70 78 143.5 170t136.5 185l-102 -93q-47 -63 -92 -128.5t-86 -133.5z M670 948q25 -12 49 -28.5t55 -36.5l6 6q8 6 23.5 18.5t21.5 24.5q0 2 1 3t1 3q-39 2 -77.5 4t-79.5 6zM682 655l51 50q10 16 18.5 34.5t14.5 34.5l-84 -117v-2zM862 936q0 -2 1 -3t1 -3l8 6h-10z" />
<glyph unicode="f" horiz-adv-x="901" d="M-14 732.5q0 15.5 18 19.5h57.5t57.5 2q0 39 6 98q1 26 1 51t-1 51q-2 50 -2 93t5 77.5t17 57.5t32 46t42 44l6 6q14 14 31 25l37 22q45 43 111 63q54 16 109 16q11 0 23 -1q66 -4 126.5 -29.5t97.5 -75.5q37 -47 39 -110.5t2 -118.5q-2 -14 -15 -18q0 -6 1 -12.5 t1 -12.5q-8 0 -14 -1t-14 -1l-12 -4q0 2 -1.5 3t-1.5 3q-6 18 -8 36.5t-6 37.5q-27 86 -91.5 147.5t-141.5 81.5q-51 -4 -100.5 -16.5t-84.5 -28.5q-25 -27 -41 -61q-27 -49 -36 -105.5t-10 -115.5v-29q0 -44 2 -89q3 -61 3 -118l2 -8l294 20t294 10l13 -38l-27 -11 q-12 -2 -21 9q-135 -2 -270 -11.5t-270 -17.5q0 -10 2 -14q68 8 147.5 10t157.5 2t145.5 -1t108.5 -1h8l-6 -41h-2q-39 -2 -77 -3t-77 -5l-4 -25v-8q-4 0 -8 -2q-12 -2 -20 6q-35 4 -79 8t-98 8l-190 -14q-2 0 -3 -1t-3 -1q0 -43 -2 -85t-6 -83l8 -240q0 -14 -1 -27.5 t-3 -27.5q3 -31 3 -59q0 -14 -1 -27q-2 -39 -15 -68q-10 2 -19 3.5t-19 1.5q-2 8 -2.5 16t-0.5 16l-6 4q-8 12 -5 21.5t14 11.5l6 43q2 18 2 37v37q-4 33 -9.5 64.5t-11.5 60.5l4 -215q-4 -18 -19 -19.5t-22 15.5l-4 112q0 -53 1 -106t1 -107v-6h-2q-4 0 -6 1t-4 1 q-8 0 -14 1t-15 1q0 137 -1 276v15q0 131 16 258q2 8 14 12l-4 56q-25 -2 -50.5 -6t-49.5 -9h-11q-2 0 -3 1t-3 1l-6 25q2 8 16 14q23 4 46.5 7.5t48.5 7.5l8 6q25 10 57 16h12v2l58 9v-7q28 1 56 1t56 -1q58 -2 111 -5t98 -8t76 -11h6v-2h4l-2 -6l-209 -13q-47 2 -98 3 t-98 1v-20h-29.5t-30.5 -2v18h-20q0 -12 2 -18l-45 -4v16q-23 -4 -42.5 -7t-35.5 -9q-4 -10 -20 -15h-2q-6 -2 -11 0h-6v2q-10 8 -6 25q-2 2 -2 4t-2 6q41 25 123 35v25q-29 -2 -58.5 -2h-58.5q-18 6 -18 21.5zM162 756h28v21t3 22q-4 35 -15.5 69.5t-13.5 71.5 q-4 -17 -4 -34q0 -11 2 -22q4 -26 2 -55q-2 -20 -2 -38.5v-34.5zM164 694h14q8 0 12 2v19h-26v-21zM170 635q4 -29 7 -56.5t9 -62.5q2 -16 5.5 -35t7.5 -39q-4 57 -7.5 102.5t-3.5 90.5h-18zM174 991l12 76l-10 -25q-2 -14 -2 -26v-25zM186 1114q6 -2 9 -8q4 16 7 33.5 t9 38.5v-2q-8 -16 -14.5 -31t-10.5 -31zM635 1303q39 -37 76 -86q-12 28 -37 57q-10 10 -19.5 16t-19.5 13zM717 1284q16 -23 25.5 -45t15.5 -45q-6 45 -31 78z" />
<glyph unicode="g" horiz-adv-x="987" d="M-37 518q-2 12 -2 24q0 32 13 64q16 43 32 80q37 80 115 137.5t176 85.5l2 2q43 23 88 33t92 17q29 2 67 7q32 4 63 4h13q37 -1 72 -10.5t58 -33.5q8 -23 -7 -31l39 -29q-4 18 -8 37t-6 39q0 20 17.5 22.5t21.5 -14.5q6 16 21.5 15.5t19.5 -19.5v-56.5t2 -55.5l20 53 q10 18 26.5 14t12.5 -26q-14 -39 -23 -60.5t-14 -38.5q35 -47 54 -96q16 -44 16 -88v-10q-2 -49 -12 -99.5t-27 -97.5q2 -29 4 -54.5t2 -51.5q8 -72 15 -158q4 -53 4 -106q0 -33 -2 -65q-4 -85 -23.5 -163t-61.5 -133t-111 -82q-43 -17 -100 -17q-36 0 -77 7l-80 10 q-33 0 -53 -6q-16 -2 -30.5 -11.5t-31.5 -13.5l-26 25q0 12 8 33q6 14 17.5 16t17.5 -6v2q-6 2 -15 10q-12 10 -14 29.5t-6 36.5q0 20 15.5 23t23.5 -13q4 -12 6 -24.5t8 -22.5q12 -18 34 -25.5t50 -7.5q6 0 10 -2q43 2 89.5 3t87.5 11q-72 -35 -154 -44q-17 -2 -32 -2 q-61 0 -103 28l4 27q4 0 6 1t6 1q12 -4 19 -13l67 -10q39 2 83 17.5t84 37t69.5 47t38.5 48.5q33 82 41 171t10 175q-6 -6 -13.5 -11.5t-15.5 -9.5q-51 -29 -112.5 -41t-120.5 -12q-72 -23 -144 -23q-24 0 -49 2q-96 11 -174 56t-129 120.5t-57 174.5l-6 10 q-14 31 -15.5 66.5t-5.5 70.5zM25 618q35 88 114 168q-83 -68 -114 -168zM35 477q-3 -24 -3 -47q0 -50 15 -96q10 -25 25 -41q35 -47 81 -85t99 -65q102 -53 221 -59q109 6 195 62.5t143 138.5q3 69 3 137v34q-1 85 -1 171l-14 24q10 -35 12 -63q1 -16 1 -33q0 -63 -18 -130 q-22 -85 -69 -153.5t-119 -110.5q-60 -35 -135 -35q-14 0 -29 1l-118 14q-35 4 -63 17.5t-52.5 32t-46 41t-45.5 44.5q-25 25 -39.5 63t-14.5 73q0 39 -1 76v13q0 31 4 64v13q-20 -47 -31 -101zM98 522q-2 -20 -2 -39q0 -37 8 -73q11 -56 43 -105q39 -59 103.5 -93 t135.5 -42q22 -3 44 -3q49 0 98 13q70 17 121 64q51 45 80 104.5t38 123.5q4 30 4 59q0 35 -6 71q-11 66 -40 123q-55 39 -128 62.5t-149 27.5q-14 1 -28 1q-62 0 -120 -16q-71 -18 -122 -63q-33 -49 -53.5 -104t-26.5 -111zM100 184q33 -41 78 -67.5t94 -40.5 q-102 35 -172 108zM295 838q57 20 116 20q27 0 55 -4q87 -14 204 -49q-14 16 -31 29.5t-33 25.5q-43 27 -94 39q-23 0 -47.5 -2t-46.5 -6h-2q-31 -10 -61.5 -22.5t-59.5 -30.5zM381 -401v-5q4 1 4 3zM477 -382h-2l2 -1h8h2q-6 0 -10 1zM666 -369q55 10 100 41q33 27 52.5 69 t28.5 89t12 95t7 85q4 49 5 98v33q0 33 -1 66l-12 -29q-6 -111 -21.5 -217t-43.5 -207q-10 -37 -45 -68.5t-82 -54.5zM678 98q31 8 57.5 20.5t48.5 33.5l23 24q0 10 1 18.5t1 16.5q-57 -70 -131 -113zM678 860q20 -20 36.5 -43.5t33.5 -48.5q39 -27 61 -63q0 -2 1 -4.5 t1 -4.5v74l-8 33q-16 14 -31.5 25.5t-34.5 23.5q-4 -8 -13 -11t-19 3zM868 717q0 -14 1 -29.5t3 -38.5q2 -14 3.5 -26.5t5.5 -26.5q10 -23 12 -45q0 -14 2 -27.5t2 -27.5q6 35 6 68q0 24 -3 46q-7 56 -32 107z" />
<glyph unicode="h" horiz-adv-x="972" d="M23 1419q-2 5 -2 10q0 11 10 17q14 8 26 -4q23 -43 31 -91q7 -43 7 -87v-12q-1 -50 -5 -100t-6 -95q-1 -20 -1 -40.5t1 -41.5q2 -41 4 -80q2 23 3 46.5t1 49.5q0 2 4 6q8 180 13 365l20 14h2q0 16 1 32.5t1 33.5q8 15 21 15h2q14 -1 18 -19q-2 -125 -6 -250t-10 -250 q12 14 24 25q23 16 46.5 32.5t45.5 32.5q55 38 121 38q13 0 27 -2q82 -9 160 -48q27 -10 52 -21.5t52 -23.5q43 -18 91 -43t77 -66q33 -49 44 -105.5t12 -116.5v-17q0 -53 -5 -105q-6 -62 -10 -119q4 -39 6 -74.5t4 -66.5q9 -52 11 -106v-10q0 -48 -21 -85l-25 6 q-4 -8 -5 -15t-5 -13q-14 -10 -28.5 -2t-6.5 26q0 92 10.5 190.5t14.5 196.5q-14 109 -43 217.5t-74 174.5q-20 29 -44.5 53t-53.5 45q-38 15 -79 15q-10 0 -18 -1q-50 -4 -95.5 -23.5t-86.5 -53t-69 -74.5q-35 -49 -47 -111q-13 -64 -16 -128q-2 -32 -2 -64t2 -64 q3 -64 3 -119q-2 -61 -6 -121q-2 -30 -2 -60t2 -60l-31 -4q-4 0 -6 -1t-4 -1v2l-20 94t-21 94q0 -55 -6 -100q4 -23 5 -46.5t3 -46.5q-6 -27 -28 -18q-2 -6 -4.5 -11l-4.5 -9h-4q-4 -16 -10 -23q-20 0 -31 -2q-16 14 -18 36.5t2 47.5t10 48.5t8 39.5l7 66h-15q-7 62 -7 125 q0 43 3 85q8 106 8 209q0 100 -9 202q-6 71 -6 140q0 31 1 62q2 41 6 88t5 95v14q0 41 -5 79q-6 45 -26 82zM139 532q6 -74 18.5 -147.5t26.5 -138.5v33.5t2 33.5q0 31 -1 72t-1 84t1 86t5 78q6 51 26 105.5t51.5 101.5t74.5 81.5t98 47.5q16 4 40 12t46 12l-8 4 q-36 7 -70 7q-79 0 -147 -38q-96 -54 -149 -169zM784 868q33 -41 53.5 -91t30.5 -109q-4 51 -14 95t-33 73l-18 18t-19 14z" />
<glyph unicode="i" horiz-adv-x="366" d="M70 1200q0 22 11 44t29.5 41.5t32.5 27.5q12 8 36 10t28 4q16 -4 21 -18.5t-15 -22.5q-33 -6 -55.5 -19.5t-34.5 -29.5q12 8 27.5 14t31.5 11q10 6 20.5 10t24.5 0q10 -2 17 -8q31 -6 39 -29q1 -5 1 -9q0 -12 -6 -22q-10 -14 -28.5 -24.5t-42 -17.5t-45.5 -9 q-23 -4 -33 0q-14 0 -31 8q-28 14 -28 39zM90 47q0 35 8 75t19 81q0 137 2 273q1 34 1 68q0 103 -5 208q-2 55 -8.5 110.5t-8.5 108.5q0 23 18.5 24.5t22.5 -20.5q0 -31 3 -61.5t8 -61.5q4 47 8 92t14 90q10 0 20.5 -1t20.5 -3q8 -127 8 -253v-51q-2 -152 -18 -302 q4 -102 6 -204v-40q0 -81 -6 -162v-2l-41 4v19q4 45 4 91v93q-4 -8 -8 -28v-43q0 -31 -7.5 -63t-23.5 -60zM143 1200q18 0 32.5 2t27.5 23l-4 -4q-14 -12 -27 -4q-10 -4 -16 -8.5t-13 -8.5z" />
<glyph unicode="j" horiz-adv-x="432" d="M-348 -379q-6 9 -6 16q0 8 7 15q13 14 30 -2q14 -20 65 -28q33 -4 69 -4q19 0 39 1q58 4 110 16.5t71 28.5q27 25 43 56.5t29 66.5q41 104 56 227t19 258q-2 180 -17 356.5t-22 327.5q0 16 13 21q6 12 18 12v17q0 23 18.5 24.5t22.5 -20.5q10 -217 21 -426q7 -123 7 -247 q0 -86 -3 -173q12 109 14 222q1 56 1 111.5t-1 110.5q-2 109 -6 212.5t-6 195.5q0 23 18.5 24.5t22.5 -20.5q0 -70 4 -166t5 -204v-111.5v-114.5q-1 -117 -10.5 -229.5t-28.5 -215t-50 -182.5l-19 -98q-10 -41 -34.5 -77t-45.5 -73q-8 -12 -33.5 -25t-60.5 -23.5t-76 -16.5 q-30 -4 -58 -4h-19q-25 -3 -50 -3q-32 0 -63 5q-55 8 -84 31q-10 16 -1 27t26 5q12 -8 53 -14q-4 4 -4 7t-2 7q0 20 15 23.5t24 -12.5q8 -27 44 -32q20 -3 43 -3q19 0 40 2q29 16 60.5 27.5t57.5 33.5q0 2 2 4q4 6 7.5 11.5t7.5 9.5q-35 -18 -93 -25q-45 -6 -91 -6h-25 q-59 2 -108.5 13.5t-65.5 29.5zM59 -430l15 8q18 18 31.5 41t23.5 45zM70 1210q4 25 27.5 49.5t52.5 38.5q21 10 42 10q6 0 12 -1q27 -4 40 -37v-6q29 6 51 0l12 -33q-14 -16 -53 -38t-80 -34q4 -18 -20 -22l-27 6l-6 8q-27 0 -43 13q-10 10 -10 28q0 8 2 18zM115 1200 q2 -4 10 -8q31 39 82 59v2l-6 15h-4q-8 0 -21 -6q-18 -7 -33.5 -18t-26.5 -24q-5 -6 -5 -12q0 -4 4 -8z" />
<glyph unicode="k" horiz-adv-x="872" d="M29 1403v2h8l31 6v-4h2v-4q16 -49 18 -111q4 29 9 53.5t16 53.5l20 16q31 -2 41 -30.5t10 -65.5t-6 -69.5t-6 -43.5q-2 -35 -4 -71.5t-6 -73.5q-8 -104 -19.5 -204.5t-21.5 -203.5q0 -33 -1 -64.5t-2 -64.5q14 14 30 26.5t32 24.5q20 29 43 55.5t45 53.5q-16 45 4 57 q10 6 21.5 4t23.5 -6l109 111q14 14 32.5 38.5t41 48.5t46 43t46.5 24q4 -4 10 -7.5t10 -7.5q0 -2 1 -3t1 -3q4 -16 -7 -24.5t-23 -0.5q-16 -10 -36 -30.5t-38 -42t-33.5 -40t-21.5 -24.5q-27 -29 -52.5 -53.5t-50.5 -52.5l6 -4q86 66 177 139q43 41 80.5 76t70.5 57l10 10 l13 -32l8 -7q-39 -35 -78 -68.5t-80 -68.5l-162 -151q72 -86 127.5 -177.5t112.5 -187.5l14 -22q0 -4 4 -5q18 -18 42 -35.5t46.5 -38t40 -43t21.5 -51.5l-10 -18q-25 -8 -46.5 4t-41 31.5t-35 43t-23.5 38.5l-31 47q-61 70 -113 139.5t-102 143.5q35 -59 74 -117t80 -113 q53 -70 107.5 -134.5t103.5 -135.5q6 -4 10 -10l4 -11l-39 -16q-37 61 -79.5 111.5t-90.5 105.5q-63 78 -117.5 162t-107.5 170l-35 51q-14 -10 -27.5 -19.5t-27.5 -19.5q53 -57 107.5 -114.5t101.5 -122.5q53 -74 104.5 -147t112.5 -138q10 -18 -2 -27.5t-29 -1.5 q-61 68 -112.5 140.5t-104.5 144.5q-47 66 -104.5 126t-112.5 120q-6 -4 -18 -9l-4 -6l-4 4l-5 2q-18 -14 -35.5 -29.5t-27.5 -31.5q0 -10 -7 -16q-1 -71 0 -142v-71q1 -107 0 -213h-3q-8 -2 -16.5 -3t-16.5 -6q-10 4 -17.5 35t-11.5 72q-2 2 -2 8q-5 28 -5 52q0 8 1 16 q-2 39 -3 76.5t-1 68.5v52.5v27.5q-2 117 -3 229.5t-1 229.5q0 35 4 94t6 130q1 36 1 72q0 37 -1 73q-2 74 -16 135q-4 8 -4 14zM76 631q0 6 2 13t2 13l4 279q-2 -18 -3 -33.5t-1 -21.5q0 -59 -2 -122t-2 -128zM123 1083q2 23 6 55.5t7 68.5q3 37 4 71v22q0 22 -1 41 q-12 -61 -15 -127q-2 -39 -2 -78q0 -27 1 -53z" />
<glyph unicode="l" horiz-adv-x="258" d="M27 455q-2 122 -2 243q0 122 2 242q4 240 8 483q8 16 22 16h1q14 0 18 -20q-2 -241 -8 -481q-3 -125 -2 -252q0 -114 2 -229v-76t2 -74q4 43 6 87t4 89q4 102 11 202.5t13 203.5q-2 20 -3 39.5t-1 40.5q-4 111 -4 222t-12 222q0 23 18.5 25t22.5 -21l6 -67q0 10 1 18 t3 18l25 -2l16 2v-4q1 -24 1 -48q0 -42 -4 -85q-7 -67 -13 -133q-2 -8 -2 -24l-11 -185l-2 -14q10 -135 24.5 -268t25.5 -269q4 -51 4 -100t2 -100q14 -4 16 -19q-2 -14 -3 -36.5t-11 -34.5q-10 4 -18.5 6t-18.5 4q-6 70 -7 139.5t-5 138.5q-4 51 -8.5 101.5t-10.5 103.5 v-197q0 -53 1 -98t2 -86v-27q0 -27 -1 -55q-2 -41 -8 -86l-41 -4q0 4 -1 6t-1 4q0 8 4 17v4q-20 4 -31 4q-27 102 -28.5 205.5t-3.5 208.5z" />
<glyph unicode="m" horiz-adv-x="1634" d="M-7 136q3 44 9 84t6 54q12 170 29.5 336t21.5 334v41l17 -4q-7 35 -19 43q-10 16 -3 26q5 8 15 8q4 0 9 -1q6 3 11 3q8 0 15 -7q27 -51 35 -108.5t15 -113.5q0 -4 1 -9t1 -9l2 4q39 123 125 181q61 41 132 41q28 0 58 -7q9 1 18 1q33 0 69 -11q46 -14 93 -51 q16 -12 29.5 -29.5t24.5 -40.5q33 -18 57 -49t41 -78q10 20 22.5 40t28.5 40q45 76 113.5 129t156.5 64q14 1 27 2q25 1 49 -5q37 -8 72 -16q33 -6 61.5 -10t54 -13.5t47 -26.5t42.5 -48q49 -74 68.5 -157t21.5 -169q0 -18 1 -36q0 -68 -6 -137q-8 -87 -12 -171 q-3 -44 -3 -90q0 -24 1 -48v-14q0 -64 -16 -120q-10 2 -20.5 3t-20.5 1v12q0 8 4 16q8 37 10 76t2 80q-8 -49 -19 -96t-26 -88l-10 4q-8 2 -15 4t-14 2v2q19 98 25 232q3 77 4 151q0 54 -2 105q-10 29 -22.5 55t-20.5 55q-12 41 -17.5 67.5t-11.5 47t-15 39t-30 47.5 q-53 73 -144 105q-54 19 -106 19q-37 0 -73 -9q-27 -25 -44.5 -54.5t-31.5 -64.5q-29 -68 -43 -172.5t-19 -216.5q-2 -56 -2 -110t2 -106q4 -106 15 -178q-4 -18 -19.5 -19t-21.5 15l-4 31q-4 -18 -12.5 -32.5t-20.5 -20.5q-14 -4 -23.5 3t-7.5 17l-24 19v4q-4 2 -8 12 q-4 109 -8 219q-1 40 -1 80q0 69 4 139q-4 72 -12 136.5t-20 117.5q-2 8 -11 25q-18 35 -38.5 69.5t-47.5 65.5q-31 8 -64 8q-19 0 -40 -3q-55 -7 -106.5 -28.5t-93.5 -55.5t-66 -77q-10 -18 -18.5 -36.5t-16.5 -38.5l-25 -154q2 -41 3 -84v-17q0 -34 -3 -67l13 -98 q4 -47 7 -104.5t13 -108.5l-2 6q4 -23 -14.5 -26t-24.5 16q-4 12 -4 18q-2 -6 -2 -20q-8 0 -29 4v-6l-22 -21q-16 6 -19 16q-2 4 2 13l9 61q-8 2 -23 2q-3 56 -3 111v27.5v27.5q0 55 -3 111q-2 43 -3 87t-5 87q-10 -123 -19.5 -247t-13.5 -249q12 0 16 -18q-2 -8 -4 -14.5 t-6 -14.5q-20 0 -31 -2q-18 12 -22 51q-2 22 -2 46q0 18 1 37zM195 795q8 18 16 34.5t18 30.5q27 35 55.5 66.5t63.5 54.5q-51 -23 -90 -68t-59 -108zM254 823l29 35q20 25 53 41t65 21q45 8 91 12q30 3 59 3q15 0 29 -1q-47 43 -101 57q-68 -10 -127 -57t-92 -100zM735 819 q6 -20 10.5 -39.5t8.5 -38.5l12 -28l8 -25l6 23q-8 39 -24 77q-4 8 -9.5 16.5t-11.5 14.5zM797 31q6 10 10 37q-2 0 -2 4q-4 0 -6 2q0 -4 1 -6t1 -5zM833 490q2 -58 7 -115v14q0 86 4 172t24 170q13 45 31 92q-31 -49 -45 -104t-18 -113q-3 -37 -3 -74q-1 -21 0 -42z M1126 967q74 -14 139.5 -52t100.5 -86q29 -43 45 -93t29 -99q0 6 -1 13t-1 14q-4 37 -13.5 78.5t-26 80.5t-42 71t-62.5 50t-81 22q-23 2 -46 3q-21 0 -41 -2zM1290 983q63 -25 103.5 -74t61 -111.5t27.5 -137t7 -152.5l6 -16q10 -31 14 -63t9 -64q6 70 10 140q2 31 2 62 q0 39 -3 77q-5 69 -23.5 135.5t-57.5 125.5q-33 49 -71 60.5t-85 17.5z" />
<glyph unicode="n" horiz-adv-x="1064" d="M12 110v6q0 37 6 78q6 44 17.5 89t23.5 88v25.5t2 27.5v98q-8 78 -11 150.5t-7 150.5q-2 41 -3 92.5t-17 90.5q-6 22 10 28q4 1 7 2q11 0 19 -14q10 -23 16.5 -56.5t9.5 -72.5t4 -80t1 -78q8 63 13.5 126t7.5 128l2 4q6 14 18 11h6q12 -4 15 -19v-6q4 -35 6 -66.5 t2 -66.5q37 47 92 77.5t137 57.5q66 23 110 33q22 5 44.5 5t46.5 -5q9 1 18 1q42 1 74 -15q39 -18 68 -52q98 -43 156.5 -114.5t84 -163.5t25.5 -203t-15 -234q-2 -20 -2 -49.5t-1 -61.5t-4 -59.5t-11 -46.5q-8 -2 -14 -4t-15 -6l17 10q-10 14 -22.5 23.5t-0.5 11.5 q8 41 8 95.5t5 91.5q12 102 15 197v30q0 78 -12 148q-16 83 -56 150.5t-111 115.5l16 -37q66 -102 92.5 -226t26.5 -241q0 -18 -2 -49t-5 -69t-8.5 -77t-11.5 -71l4 -48l6 -12q0 -18 -2 -29l-39 -8q-4 4 -4 11q-10 -4 -16 0l-4 -13l-33 -8l-10 6q-10 12 -5 22.5t15 12.5 q14 49 16.5 104.5t6.5 106.5l8 115v4q0 29 -3 70.5t-9.5 91t-14.5 101.5t-20 101q-14 35 -32.5 70t-43.5 67q-8 10 -14 18.5t-15 16.5q-12 10 -24.5 17.5t-24.5 15.5q-60 17 -121 23q-2 0 -3 1t-3 1l-12 -6q-35 -31 -79 -62t-89 -64.5t-88 -69.5t-74 -79l-12 -47 q4 -37 6 -74t2 -73q0 -127 -6 -252q8 -61 8 -127t-16 -109v-12q-4 -18 -21 -19q-16 -16 -35 -18q-16 6 -18 18.5t10 20.5l-16 2l-17 -2q-2 10 -2 19.5v19.5l-6 -2l-30 8q-13 31 -13 71zM55 74q0 2 2 2h2q-2 12 -2 24.5v22.5q-2 -12 -2 -24.5v-24.5zM104 -2v-2q8 2 15 14 q0 55 2 109.5t6 107.5q-2 23 -4 42.5t-4 33.5l-15 62q4 -93 6 -187v-33q0 -76 -6 -147zM127 465l6 -31v60zM160 780q0 -6 1 -12t1 -12l12 24q10 16 17.5 30.5t17.5 29.5q-20 -16 -37 -41zM213 772q47 47 100.5 87t106.5 81q-72 -20 -121 -57t-86 -111z" />
<glyph unicode="o" horiz-adv-x="1069" d="M7 511q11 83 48 161t93.5 142.5t115.5 94.5q12 10 25.5 17.5t27.5 15.5l11 8q23 16 71 25q43 14 87 22.5t87 12.5q10 1 18 1q9 0 15 -1q12 -2 20.5 -5.5t18 -5.5t25.5 2q10 -4 17 -11t3 -15q20 -8 31 -23q6 -16 0 -24q37 -18 70.5 -44t68.5 -59q4 -4 8 -4 q25 -16 41.5 -40.5t30.5 -51.5l21 -35l4 -4q16 -20 22 -55l12 -21q19 -35 29 -95q5 -29 5 -54q0 -26 -5 -47q-8 -35 -10 -76t-25 -70l-6 -8q-25 -53 -62.5 -99t-84.5 -81t-101.5 -54.5t-109.5 -19.5q-102 0 -195 33h-22h-7q-43 -1 -85 21q-44 24 -91 40q-25 8 -45 27 t-37.5 40.5t-35 44t-35.5 40.5q-20 23 -28.5 50.5t-20.5 51.5q-23 52 -23 110q0 21 3 43zM57 478q4 -72 31 -139t72 -122t106 -88q-51 39 -93 92t-67.5 115.5t-35.5 132.5q-4 30 -4 59q0 40 8 80q0 6 2 10q-20 -58 -20 -119q0 -10 1 -21zM140 588q0 -6 -1 -13 q0 -105 39 -201q41 -102 118 -181.5t175 -110.5q53 0 123 16q78 18 156.5 65.5t126.5 112.5q43 59 52 122q3 22 3 44q0 40 -10 80q-16 60 -55.5 115t-90.5 99t-110.5 73t-116.5 39q-10 2 -26.5 3t-35.5 1v-2q-6 -16 -19 -13t-17 15q-27 -2 -54.5 -6t-51 -12.5t-39 -21.5 t-19.5 -34q-8 -16 -23.5 -10.5t-15.5 23.5q6 31 30.5 51t57.5 32.5t68.5 16.5t66.5 4q18 16 46 23.5t61 9.5q-43 8 -85 8q-56 0 -112 -14q-2 0 -2 -1t-2 -1q-51 -23 -96 -54.5t-80 -77.5q-59 -90 -61 -200zM573 883q55 -14 118 -41t116 -63t92 -80t47 -89l27 -178 q0 45 -8.5 95.5t-24.5 98.5t-41 90t-57 72q-29 27 -61.5 46.5t-69.5 29.5q-16 4 -56.5 11.5t-81.5 7.5zM621 68q94 10 181 62t136 136q12 27 20 56q-18 -41 -49 -70q-45 -43 -81.5 -74t-69.5 -52.5t-66 -35.5t-71 -22z" />
<glyph unicode="p" horiz-adv-x="1103" d="M23 547q2 10 3 20.5t5 20.5l-2 166q0 59 -3 116q-1 20 -1 39q0 39 4 78l18 17h8l21 -13q10 -29 12 -52.5t2 -49.5l8 -2v-2v-72t2 -72h2q2 55 4.5 111.5t8.5 110.5l32 -2h9v-152q57 90 130.5 149.5t159.5 81.5q48 13 99 13q40 0 81 -7q95 -18 191 -79t157.5 -155.5 t69.5 -207.5q8 -23 9 -47t1 -46q0 -58 -8 -105q-10 -66 -36.5 -123.5t-71.5 -107.5t-111 -105q-72 -59 -161 -68q-20 -2 -42 -2q-68 0 -138 22q-93 27 -180 80.5t-150 114.5l8 -579q20 -1 22 -21q0 -47 -6 -96l-28 -19q-14 4 -22.5 35t-13.5 75t-7.5 95t-2.5 95v76v38 q-4 152 -12 299l-18 31l2 -211q0 -51 6 -109.5t9 -117.5q1 -25 1 -49q0 -33 -2 -64q-4 -55 -24 -103l-39 11q0 10 2 14q14 43 17 95q2 31 2 64q0 21 -1 44q-2 55 -7 109.5t-5 101.5l-4 315q-18 60 -18 121q0 40 8 80zM72 500l2 -152v-2l12 -31q0 -4 2 -6q-4 49 -8 96.5 t-8 94.5zM150 347q0 -11 1 -20.5t2 -20.5t1 -34q51 -66 117.5 -110.5t142.5 -69.5q-16 8 -31.5 20.5t-32.5 28.5l-20 6q-49 12 -89 56.5t-59 91.5l-32 86v-34zM160 479q14 -94 52 -161.5t95 -108.5q2 6 12 6q-49 45 -87 100t-54 127q-8 31 -14 65q-3 15 -3 29q0 19 5 37 l37 125q14 45 46 85t75 73q-90 -47 -138 -139q-33 -62 -33 -150q0 -41 7 -88zM208 507q7 -81 58 -165q63 -111 176 -174l35 -18q13 -1 26 -1q49 0 103 12q67 15 139 52q57 29 108.5 72t85.5 96t43 115q2 17 2 33q0 47 -19 98q-29 68 -88.5 122t-122.5 87q-88 43 -172 47 q-10 1 -21 1q-72 0 -134 -25q-71 -28 -124 -80t-77 -121q-20 -55 -20 -116q0 -17 2 -35zM233 860q53 33 121 55l27 15q29 16 70 19q14 1 28 1q29 0 62 -4h10q35 0 81 -5t94 -16.5t92 -29.5t75 -45q-82 88 -197 133q-72 26 -143 26q-55 0 -110 -16q-124 -37 -210 -133z M442 84q67 -20 134 -20l38 2zM692 94q6 -6 6 -14q90 23 165 82t120 162q8 18 15.5 36.5t11.5 38.5q-12 -18 -19 -41q-12 -33 -42.5 -70.5t-71.5 -74.5t-90.5 -68.5t-94.5 -50.5z" />
<glyph unicode="q" horiz-adv-x="1122" d="M20 557q0 25 9 47q8 113 69.5 207t157.5 156q96 61 190 79q42 7 82 7q51 0 99 -13q86 -22 159.5 -81.5t131.5 -149.5v152h8l32 2q6 -53 8.5 -109.5t4.5 -112.5h2q2 35 2 72v72v2l8 2q0 27 2 50.5t12 51.5l21 13h8l18 -17q4 -39 4 -78q0 -19 -1 -39q-3 -57 -3 -116 l-2 -166q4 -10 5.5 -20.5t3.5 -20.5q7 -38 7 -77q0 -62 -18 -124l-4 -315q0 -47 -5 -101.5t-7 -109.5q-1 -28 -1 -55t1 -53q2 -52 18 -95q2 -4 2 -14l-38 -11q-20 47 -24 102q-3 34 -3 68q0 23 1 46q3 59 9 117.5t6 109.5l2 211l-18 -31q-8 -147 -12 -299v-38v-76t-2 -95 t-7.5 -95t-13.5 -75t-22 -35l-29 19q-6 49 -6 96q2 20 22 21l9 579q-66 -61 -152 -114.5t-178 -80.5q-71 -22 -142 -22q-20 0 -40 2q-91 8 -160 68q-66 55 -111 105t-71.5 107.5t-37.5 123.5q-7 47 -7 105q0 22 1 46zM63 399q4 -20 11.5 -38.5t15.5 -36.5 q45 -102 120 -161.5t165 -82.5q0 8 6 14q-47 18 -95 50t-89 69t-72 75t-43 70q-6 23 -19 41zM90 496q10 -62 44 -115t85.5 -96t108.5 -72q72 -37 140 -53q51 -11 98 -11q15 0 30 1l35 18q113 63 176 174q49 84 57 165q2 20 2 39q0 59 -18 112q-25 69 -78 121t-124 80 q-62 25 -134 25q-10 0 -20 -1q-84 -4 -173 -47q-63 -33 -122.5 -87.5t-87.5 -121.5q-22 -51 -22 -98q0 -16 3 -33zM180 850q31 27 75 45t92 29.5t94 16.5t81 5h10q33 4 62 4q15 0 28 -1q42 -3 70 -19l27 -15q68 -22 121 -55q-86 96 -210 133q-55 16 -110 16q-71 0 -143 -26 q-115 -45 -197 -133zM659 92q76 25 142.5 70t118.5 110q0 23 1 34t2 20.5t1 20.5v34l-33 -86q-18 -47 -58 -91t-90 -57l-20 -6q-16 -16 -32 -28.5t-32 -20.5zM750 856q43 -33 74.5 -73t45.5 -85l37 -125q5 -19 5 -38q0 -14 -3 -29q-6 -33 -14 -64q-16 -72 -54 -127t-87 -100 q8 0 12 -6q57 41 95 108.5t52 161.5q7 47 7 88q0 87 -32 149q-48 93 -138 140zM985 309q2 2 2 6l12 31v2l2 152q-4 -47 -8 -94.5t-8 -96.5z" />
<glyph unicode="r" horiz-adv-x="890" d="M16 -31q0 63 6.5 130t16.5 134v62q-9 86 -17 163q-4 34 -3 70q0 47 6 99q-4 98 -6.5 192.5t-2.5 192.5q0 23 18.5 24.5t22.5 -20.5v-97.5t2 -95.5q0 59 5.5 121t31.5 111v2l2 2l39 -10q-12 -98 -12 -193q45 51 106.5 89t128 59.5t134.5 22.5h5q65 -1 123 -21 q60 -22 107 -69.5t74 -125.5q12 -41 14 -83t2 -83v-4q-16 0 -24 2l-17 -2q-6 53 -30.5 106.5t-61.5 96.5t-86 71.5t-104 32.5q-6 1 -13 1q-30 -1 -58 -17q-34 -20 -65 -35q-27 -12 -46 -21.5t-35.5 -20.5t-32 -28.5t-33.5 -44.5q-70 -102 -83 -233q-9 -90 -9 -188 q0 -45 2 -93q10 -70 17 -140q3 -29 3 -57q0 -41 -6 -83v-4v-2h-2v-2v-5h-2q-4 -10 -15.5 -11t-17.5 7v-2q-16 -10 -28.5 -2t-5.5 25v4l-9 -39l-30 10h-11v2zM82 246q0 -2 1 -4t1 -4v-7.5t2 -15.5q0 10 -1 19.5t-1 19.5q0 -2 -1 -3t-1 -5zM123 696q23 76 59 115 q57 66 127 112q69 46 141 58q21 4 43 4q50 -1 100 -21q71 -28 132 -110l37 -53q-37 109 -119 151q-69 35 -146 34q-15 0 -30 -1q-94 -8 -184.5 -57t-145.5 -123q-4 -4 -7 -10.5t-7 -10.5v-88z" />
<glyph unicode="s" horiz-adv-x="972" d="M-4 815q10 23 18.5 48.5t28.5 41.5l27 23q47 57 99 92t132 45v4h4q25 6 57 6q20 4 39 7q11 2 22 2q7 0 13 -1l15 -16q47 0 91 -7t86 -25.5t83 -51.5t84 -88q10 -14 21 -32.5t18.5 -40t9.5 -43t-6 -40.5l-7 -2q-4 -4 -10 -4h-2q-37 10 -69.5 43t-61.5 58q-6 6 -25.5 23 t-27.5 22q-4 4 3 6t11 6q-35 16 -60.5 27.5t-66.5 23.5q-49 14 -90 23.5t-77 10.5h-7q-32 0 -64 -8q-34 -10 -71 -30q-27 -25 -45 -50.5t-29 -53.5q-10 -23 -14 -47.5t-8 -49.5q33 -23 76 -37t79 -20q72 -8 144.5 -8t142.5 -12.5t134.5 -46t119.5 -109.5l35 -31 q25 -23 30 -55.5t15 -63.5q12 -34 12 -69q0 -8 -1 -15q-3 -43 -15 -82q-14 -53 -58 -102q-72 -88 -185.5 -126t-235.5 -40q-27 0 -71 13.5t-89 29.5q-10 -4 -23 2l-22 15l-70 28q-2 0 -3 1t-3 1t-2 2l-2 4q-29 10 -56.5 19.5t-54.5 19.5v39q25 0 52.5 -8t56.5 -18 q-27 20 -43.5 41.5t-5.5 37.5q6 10 15 9.5t17 -6.5l9 8l24 -29q33 -25 83 -46.5t91 -43.5q4 12 25 6q23 -10 27 -33q16 0 29.5 -1t25.5 3q49 8 101 31t98.5 56.5t83 74.5t53.5 86q12 33 18 68q-10 14 -20.5 27.5t-24.5 23.5q-53 39 -107.5 59.5t-109.5 33.5t-110.5 27.5 t-112.5 39.5q-10 2 -27.5 9t-40 17.5t-47 22.5t-45.5 26q-41 14 -72.5 33t-38.5 43q-8 31 -21 65q-7 18 -7 33q0 13 6 25zM76 817q-1 -5 -1 -10q0 -13 7 -25l14 68q4 14 12.5 31.5t20.5 33.5q-29 -29 -49 -69q-4 -8 -4 -29zM135 676q6 -12 19 -25q61 -23 120.5 -31t117 -12 t116.5 -12t121 -33q16 -6 47 -17t65 -28q-51 33 -110.5 52.5t-117.5 30.5t-113.5 17.5t-98.5 16.5q-23 4 -51.5 9t-59.5 15zM276 573q63 -18 138 -36.5t143 -38t121 -41.5t78 -49q14 -18 30 -29q2 4 2 10t5 12q-14 18 -23.5 40t-30.5 36q-43 31 -102 47.5t-123.5 24.5 t-126 12t-111.5 12zM336 -31q10 -4 17.5 -4t15.5 -2q25 -4 55 -5h11q24 0 50 3h-43q-27 2 -50 3t-50 5h-6zM512 987q41 -12 81 -29.5t79 -35.5q16 -8 28.5 -23.5t23.5 -34t24.5 -37t29.5 -32.5q-43 82 -105.5 128t-152.5 70l10 -10zM563 14l43 4l2 2q25 8 54.5 19.5t57.5 27 t49.5 37t25.5 52.5q6 45 6 94l-6 -10q-39 -61 -98.5 -124t-133.5 -102zM623 23q4 0 6 2q-2 0 -3 -1t-3 -1zM825 340q20 -27 21 -51q-2 -27 -2 -52.5t-4 -52.5q10 23 14 54q2 12 2 24.5v24.5q0 45 -25 104z" />
<glyph unicode="t" horiz-adv-x="862" d="M-23 718q0 15 19 21h58.5t58.5 -2v25q-82 10 -123 35q2 4 2 6t2 4q-4 16 6 24v3h6q4 2 10 0h2q16 -4 21 -15q16 -6 35.5 -9t42.5 -7v16l45 -4q-2 -6 -2 -18h20v18q16 -2 29.5 -2h30.5v-20q25 0 23.5 6t-7.5 13t-7 13t23 6l209 -12l2 -6h-4v-2h-6q-31 -6 -50.5 -16.5 t-42 -20.5t-54.5 -17q-24 -5 -63 -5h-23v-7l-58 9v2h-12q-33 6 -57 16l-9 6q-25 4 -48 7t-46 8q-14 6 -16 14l6 24q2 0 3 1.5t3 1.5h10q25 -4 50.5 -8.5t50.5 -6.5l4 55q-12 4 -15 13q-15 127 -15 247v15q1 127 1 264q8 0 14.5 1t14.5 1q2 0 4 1t6 1h2v-6q0 -53 -1 -106.5 t-1 -106.5l4 113q6 16 21.5 15t19.5 -19l-4 -244q6 29 11 75t10 79v36.5t-3 36.5l-6 43q-10 2 -13 11.5t5 21.5l6 4v16.5t2 16.5q10 0 19.5 1t19.5 3q13 -29 15 -68q1 -15 0 -31q0 -26 -2 -55q2 -14 3 -27.5t1 -27.5l-9 -268q2 -20 3.5 -33.5t2.5 -25t2 -24.5t1 -34 q2 0 3 -1t3 -1l26 20q53 4 97.5 8.5t79.5 8.5q8 8 20 6q4 -2 8 -2v-8l4 -25q39 -4 77 -5t77 -3h2l6 -41h-8q-41 0 -83 -7t-89 -13.5t-101 -9.5q-15 -1 -31 -1q-42 0 -91 6q-2 -4 -2 -14q54 -3 92 -3h18q42 1 78.5 3t78.5 4t109 2q8 10 21 8l27 -10l-13 -39q-74 0 -122 -2 t-90 -4t-90 -2t-122 4l-2 -8q0 -56 -3 -124q-2 -51 -2 -103v-34q1 -69 10.5 -133.5t35.5 -113.5q16 -35 41 -61q35 -16 84 -28.5t100 -16.5q78 20 142.5 81.5t91.5 147.5q4 18 6 36.5t8 37.5q0 2 1 3t1 3l13 -4q8 0 14 -1t14 -1q0 -6 -1 -12.5t-1 -12.5q12 -4 15 -18 q0 -55 -2.5 -119t-38.5 -111q-37 -49 -97.5 -74.5t-126.5 -29.5q-11 -1 -23 -1q-55 1 -109 17q-66 20 -111 62l-37 22q-16 8 -31 25l-6 6q-23 20 -42 44t-32 46q-12 23 -17 66t-5 95t2 110q1 29 1 56.5t-1 53.5q-6 57 -6 98q-29 2 -57.5 2h-57.5q-19 4 -19 20zM152 494.5 q0 -21.5 4 -35.5q0 18 4 43.5t8 53.5t9 52.5t7 42.5q-2 10 -2 21.5v21.5h-28v-34.5t2 -38.5q0 -14 -1 -36t-2 -45.5t-1 -45zM156 735h26v19q-4 2 -12 2h-14v-21zM162 815h18q0 23 1 37t2 27.5t3 30.5t4 46q-2 -10 -4 -12t-4 -2h-3t-1 -8q-6 -35 -9 -62.5t-7 -56.5zM166 383 q0 -13 2 -27l10 -24l-12 76v-25zM178 285q4 -16 10.5 -31t15.5 -31v-2q-6 20 -10 37.5t-8 34.5q-2 -6 -8 -8zM627 96q25 15 39 29q25 29 36 57q-37 -49 -75 -86zM709 115l10 12q25 33 31 78q-6 -23 -15.5 -45t-25.5 -45z" />
<glyph unicode="u" horiz-adv-x="1054" d="M3 534v14q0 105 15 220q2 20 2 50t1.5 61.5t4.5 59.5t11 46q8 2 14 4t15 6l-17 -10q10 -14 22.5 -23.5t0.5 -11.5q-8 -41 -8 -95t-5 -91q-12 -102 -15 -198v-30q0 -78 12 -148q16 -83 56 -150.5t111 -114.5l-16 37q-66 102 -92.5 226t-26.5 241q0 18 2 49t5 68.5 t8.5 76.5t11.5 72l-4 47l-7 12q0 18 2 29l39 8q4 -4 5 -10q10 4 16 0l4 12l33 8l10 -6q10 -12 5 -22t-15 -13q-14 -49 -16.5 -104t-6.5 -106l-8 -115v-4q0 -29 3 -71t9 -91t14.5 -101.5t20.5 -101.5q14 -35 32.5 -69.5t43.5 -67.5q8 -10 14 -18.5t15 -16.5q12 -10 24 -17 t25 -16q60 -16 121 -22q2 0 3 -1t3 -1l12 6q35 31 79 61.5t89 64.5t88 69.5t74 78.5l12 47q-4 37 -6 74t-2 74q0 125 6 252q-8 61 -8 126.5t16 108.5v13q2 10 8 14t13 4q16 16 34 19q16 -6 18.5 -18.5t-9.5 -20.5l16 -2l16 2q2 -10 2 -19.5v-19.5l7 2l30 -8q13 -31 13 -71 v-6q0 -37 -6 -78q-6 -44 -17.5 -89t-23.5 -88v-25.5t-3 -27.5v-99q8 -78 11.5 -150.5t7.5 -150.5q2 -41 3 -92t17 -90q6 -23 -10 -29q-4 -1 -7 -1q-11 0 -19 14q-10 23 -16.5 56.5t-9.5 72t-4 79.5t-1 78q-8 -63 -13.5 -125.5t-7.5 -128.5l-2 -4q-6 -14 -18 -10h-6 q-12 4 -15 18v7q-4 35 -6 66.5t-2 66.5q-37 -47 -92 -78t-137 -58q-66 -23 -110 -33q-21 -5 -43 -5q-24 0 -48 6q-10 -1 -19 -1q-41 0 -73 15q-39 18 -68 51q-98 43 -156.5 115t-84 164t-26.5 202zM600 61q72 20 121 57t86 111q-47 -47 -100.5 -87t-106.5 -81zM811 162 q20 16 37 41l12 18q0 6 -1 12.5t-1 12.5l-12 -25q-10 -16 -17.5 -30.5t-17.5 -28.5zM887 508l6 29l-6 30v-59zM893 774q2 -23 4 -42t4 -34l14 -61q-4 93 -5 187v26q0 80 5 154v2q-8 -2 -14 -15q0 -55 -2 -109.5t-6 -107.5zM961 926q2 -12 2 -24.5v-22.5q2 12 2 24v25 q0 -2 -2 -2h-2z" />
<glyph unicode="v" d="M2 987q0 18 12 23l27 22q0 -2 1 -3t1 -3h2q23 -41 43.5 -84t38.5 -88q86 -184 171 -364.5t194 -354.5l12 45q-29 115 -89.5 215.5t-126 197.5t-121.5 198.5t-79 218.5q0 20 16 23h4q12 0 19 -13q20 -109 74.5 -203t116 -184t120 -181.5t88.5 -189.5q59 199 141.5 390.5 t196.5 365.5l39 -10q0 -16 -1 -33t-3 -33q10 12 17.5 22.5t15.5 18.5l29 -4l4 -4q3 -8 3 -14q0 -5 -2 -9q-5 -8 -16 -10q-23 -27 -41 -60.5t-35 -72.5q-16 -68 -42.5 -133.5t-57.5 -130.5q-29 -66 -56.5 -132.5t-55.5 -131.5q-33 -74 -58.5 -136.5t-30.5 -142.5l-38 -10 l-17 26l-10 -8q-20 0 -31 -2q-98 141 -165.5 295t-131.5 311q-47 92 -96 183.5t-82 189.5zM532 104q4 6 7.5 12.5t7.5 14.5q6 23 16 47.5t23 48.5q8 23 16 46.5t19 48.5q18 41 37.5 80.5t41.5 80.5q29 74 64 167t74 173q4 23 8 46.5t8 48.5q-94 -160 -164 -327t-123 -345 q-4 -16 -8 -29.5t-8 -28.5q2 -2 2 -6q0 -8 -1 -14t-7 -12z" />
<glyph unicode="w" horiz-adv-x="1482" d="M6 991q0 12 12 21q-10 29 17 41q4 1 7 1q12 0 18 -10q8 -12 -3 -24l49 -107q-4 16 -6 30.5t-4 31.5l37 16q16 -29 20.5 -62.5t14.5 -66.5l45 -133q33 -78 67.5 -150.5t61.5 -134.5q18 -47 38.5 -92t41.5 -90q2 0 3 -1t3 -1q43 37 75 84t60.5 95t60 95.5t72.5 83.5 q16 10 27.5 -1t3.5 -27l-10 -10q10 -4 13 -12.5t-5 -18.5q10 -51 34.5 -95t53.5 -86t56.5 -85t41.5 -93q18 43 43 86l15 46q33 104 81 199t101 190l84 147q14 25 22.5 52.5t24.5 50.5q2 23 10 40t35 25q4 2 12 2q18 -4 23.5 -14t2.5 -23.5t-11 -29t-17 -27.5q0 -10 -1 -18.5 t-1 -18.5q18 23 38 44.5t40 41.5q10 23 23.5 39t25.5 16l23 -20q2 -12 -11.5 -32.5t-33.5 -43.5q-8 -14 -15 -39q-10 -31 -17 -64.5t-24 -62.5q-72 -135 -161.5 -262t-169.5 -260q-31 -51 -54.5 -110.5t-58.5 -108.5q-12 -10 -24.5 -5t-12.5 19q-2 0 -2 2l-8 -26 q-8 -16 -23.5 -11.5t-15.5 23.5q0 2 4 14q-33 47 -59.5 99.5t-53.5 103.5q-14 20 -27 41.5t-26 44.5q-4 6 -7 14t-7 17l-19 22q-18 -47 -46.5 -91t-51.5 -87q-18 -41 -29.5 -82t-23.5 -84q23 8 29 -16l-5 -25l-22 -20q-10 0 -20.5 12t-22.5 33l-4 2v8l-29 51q4 -14 7 -28.5 t8 -22.5q-10 -4 -19.5 -7t-19.5 -7q-35 59 -66 125.5t-65 128.5q-47 86 -91.5 171t-82 171t-64.5 177t-35 189zM53 942q12 -88 39 -170t61.5 -159.5t76.5 -154.5t83 -155l2 -6v8q0 6 4 14q-16 47 -35.5 95.5t-37.5 91.5q-43 106 -88 210.5t-95 209.5zM438 219q4 -10 7.5 -17 t7.5 -16q4 -8 4 -12q16 39 44.5 88t57.5 93t53.5 77t34.5 43l33 -22q0 -2 -2 -4h2l-2 -3q-2 -2 -2 -6l8 -10l4 2l19 -26q23 -29 38 -55.5t29 -55.5q29 -39 60.5 -85t48.5 -87l6 14q-6 4 -10 15q-10 57 -38 104t-59.5 92t-59.5 92t-38 105q-33 -37 -60.5 -80l-55 -86 t-57.5 -84t-67 -76h-6zM477 117q0 -4 2 -4l4 22zM1085 389q63 98 128 193.5t124 193.5q4 8 13.5 34t19.5 58q-14 -14 -25.5 -26.5t-17.5 -20.5l-24 -33q-16 -35 -35 -66.5t-37 -66.5q-20 -37 -42 -72.5t-44 -72.5l-49 -86q-2 -16 -11 -35z" />
<glyph unicode="x" horiz-adv-x="1042" d="M4 4q0 18 35 63.5t78 92.5t83 86t50 49l63 67l47 76q4 8 9.5 16.5t11.5 16.5q-53 61 -106.5 122.5t-108.5 121.5q-37 43 -79 82t-77 84l-2 2l6 6l21 26q47 -20 89 -54t79 -73.5t70.5 -82.5t64.5 -82l76 -101l2 2q-47 66 -94.5 131.5t-92.5 132.5l-10 15q-18 23 -49 58.5 t-51 72.5q-10 6 -10 20v2l12 2q-16 23 -31.5 42.5t-32.5 29.5q-11 16 -1 28q6 8 16 7q5 0 10 -2q20 -12 41.5 -39t41 -56.5t37 -58t31.5 -49.5l39 -59l4 -4q43 -53 89.5 -105.5t93.5 -103.5q80 115 174 218t201 189l49 54q16 10 27.5 -1.5t2.5 -27.5l-41 -45h2 q-68 -133 -152.5 -250t-176.5 -227l8 -11q82 96 162 191.5t155 198.5q35 45 54.5 95t54.5 93q8 5 14 5q7 0 13 -6q7 -6 7 -15q0 -6 -3 -13q-35 -41 -53.5 -91t-51.5 -93q-78 -102 -159.5 -198.5t-163.5 -194.5l139 -140q12 -10 48 -43.5t76 -72.5t73.5 -75t42.5 -50l-19 -33 q-16 2 -30.5 11.5t-28.5 19.5q-12 16 -2 26l-170 168l-156 158l-8 -10q41 -55 86 -109.5t92 -107.5q4 -6 13.5 -18.5t19.5 -24.5l39 -39q0 -2 4 -2q-2 0 -2 -2q10 -14 10 -17l-25 -10q16 -14 31.5 -26.5t34.5 -22.5q16 8 27 -12q2 -2 2 -9l-27 -24q-41 18 -86 54t-92 83 t-94.5 102.5t-92.5 114.5l-86 -104q-23 -29 -44 -60.5t-44.5 -63.5t-48 -61.5t-53.5 -52.5q-16 -4 -26.5 6.5t1.5 26.5q27 20 51.5 50t47 61.5t44 63.5t42.5 58q23 27 45 53.5t45 55.5l-8 12q-49 -55 -98.5 -109.5t-96.5 -109.5q-8 -18 -13 -41.5t-20 -38.5q-10 -8 -19 -6 t-13 8q-4 -8 -10.5 -14t-12.5 -12q-4 -6 -8 -12.5t-8 -10.5q-8 6 -15.5 13.5t-17.5 13.5q31 37 59.5 74.5t57.5 76.5q-25 -25 -58 -60.5t-63.5 -69.5t-51 -60.5t-20.5 -34.5q-4 -21 -19 -21q-2 1 -4 1q-18 2 -18 24zM514 463q4 -8 8 -12l4 6l-8 10z" />
<glyph unicode="y" horiz-adv-x="1140" d="M-35 946q-2 5 -2 10q0 10 11 16q14 9 26 -3q8 -16 14 -25q4 0 10.5 1t10.5 1q16 -23 29.5 -47.5t29.5 -52.5q6 -4 15 -17l73 -71q-39 59 -81 116.5t-93 110.5q-12 18 2 31q6 7 12 7q8 0 17 -9q55 -55 100 -117.5t86 -129.5t78 -136.5t74 -138.5q68 -78 135.5 -159 t124.5 -165q18 55 46 126t62 146q37 127 86.5 247t96.5 243q10 18 26.5 14t12.5 -26l-49 -125q16 29 33.5 55t39.5 51q14 33 21 68q10 18 26.5 14t12.5 -27l8 7l35 -15q0 -47 -14.5 -95t-35 -96t-45 -93.5t-43.5 -86.5q-45 -96 -90 -189t-96 -187l-68 -127 q-14 -57 -30.5 -113.5t-38.5 -112.5q-20 -51 -44 -92t-47.5 -77.5t-44 -73.5t-36.5 -78q-2 2 -8 2l-11 4h-4q-12 4 -18 4v2l4 21q-10 4 -13 14t9 20q39 106 80 211t82 209q-23 23 -42.5 50.5t-33.5 43.5q-102 129 -201.5 258.5t-177.5 272.5q-10 23 -32.5 59.5t-39.5 73.5 q-18 29 -32.5 60.5t-20.5 58.5zM150 680q8 -16 12 -21q78 -143 176.5 -271t198.5 -255q10 -14 25.5 -35.5t35.5 -42.5l12 29q-84 82 -145.5 178t-116.5 201q-35 41 -68.5 79t-62.5 72q-16 16 -29.5 35t-27.5 37zM199 707l49 -66l14 -20l-55 96zM502 279q37 -58 84 -109 q-20 29 -41 54.5t-43 54.5zM768 295q39 74 76 146.5t71 144.5q37 78 73 154.5t56 158.5l-14 -12l-4 -13q6 -10 0 -24q-10 -12 -20.5 -24.5t-20.5 -24.5q-10 -16 -19.5 -33.5t-19.5 -34.5q-25 -43 -45 -90t-39 -94q-27 -63 -49 -127t-45 -127z" />
<glyph unicode="z" horiz-adv-x="1060" d="M33 -4l2 2q10 35 35.5 66.5t54.5 60.5l-16 12q33 80 93 164t132 163t146.5 151.5t135.5 132.5q41 41 82 83.5t86 81.5l-133 5q-51 -6 -102 -9.5t-103 -5.5q-86 -16 -173 -29.5t-173 -17.5q-18 6 -18 21.5t18 19.5q61 4 123 11t123 18q-43 4 -86 7q-10 1 -20 1 q-33 0 -64 -8q-25 -4 -47.5 -10.5t-48.5 -4.5l-6 39q10 4 22.5 7.5t28.5 7.5q-10 0 -19.5 1t-19.5 1q-8 -8 -16 -9h-9l-6 39q27 16 66 16q11 1 21 -1q52 -6 89 -8q53 -2 105.5 -4.5t105.5 -6.5q72 2 141.5 2t131.5 -4q67 11 135 15q36 2 72 2q32 0 63 -2l21 -29q0 -2 -1 -3 t-1 -3l-9 -6q8 -8 9 -13h10v-41h-68q-61 -31 -115.5 -88t-99.5 -116l137 145q16 10 27.5 -1t3.5 -28q-147 -154 -287.5 -303t-287.5 -307q-31 -33 -59.5 -64.5t-59.5 -62.5l110 25q59 10 151 23q92 14 190 20q45 3 89 3q50 -1 98 -5q89 -8 142 -35v-35q-14 -10 -31.5 -15.5 t-40.5 -9.5q8 -2 13.5 -4t11.5 -6q2 0 3 1t3 1l-2 -4q0 -2 2 -2l-6 -37q-53 -10 -99 -11h-23q-34 0 -64 2q-41 3 -82 9t-84 10q-207 -6 -412 -24v2q-4 0 -5 -1t-3 -1l2 14q-14 -2 -27.5 -3t-27.5 -1q-23 -20 -47 -35q-8 4 -15.5 10.5t-17.5 10.5v8zM147 86q39 37 75 77 t71 79q94 100 186 201.5t185 203.5q-18 0 -19 19q-94 -106 -184 -214t-189 -212l-2 -2q-8 -10 -14 -19.5t-12 -19.5q-16 -23 -42 -51.5t-55 -61.5zM215 236q10 10 14.5 16t8.5 10q68 92 136 177t142 169q-82 -86 -156.5 -175t-140.5 -189zM236 51q59 6 117.5 10.5t117.5 4.5 l406 34q-83 10 -167 10q-54 0 -110 -4q-140 -10 -278 -34q-20 -4 -42 -9.5t-44 -11.5z" />
<glyph unicode="{" horiz-adv-x="708" d="M6 518q0 2 1 3t1 3q-6 16 19 25h36q2 18 16.5 21t22.5 -13q0 -4 1 -6t1 -4q12 -4 19 -4q45 29 65.5 71.5t26.5 94.5q-2 66 -18.5 139.5t-20.5 134.5q-4 74 3 140.5t28 138.5q14 49 45 78.5t67 60.5q47 41 90.5 41t84.5 -10q18 2 34.5 3t32.5 5q20 -4 21 -23q16 0 34 6 q16 -4 21.5 -18t-14.5 -23q-18 -4 -34 -5t-32 1q-4 -12 -18 -12q-31 -4 -62 -4t-59 -10q-63 -16 -103 -60q-14 -66 -12 -138.5t9 -147t13.5 -146.5t-3 -136.5t-37 -117.5t-88.5 -90q37 -4 62.5 -26.5t27.5 -73.5v-21q2 -4 10 -12q37 -55 38 -137t-5 -168l14 -58 q8 -41 14.5 -77.5t16.5 -68.5t27.5 -55.5t50.5 -33.5h14q8 0 16 -8q8 0 16.5 -1t18.5 -1h2q6 14 19.5 15t17.5 -9l6 2q10 4 19 -2l14 4q16 16 31 -4q2 -2 2 -4q-2 2 -2 4q0 -10 -4 -31q-27 -10 -62 -14l-24 -8q-27 -25 -66 -34t-68 1q-18 6 -39.5 22.5t-31.5 24.5 q-12 12 -19 27q-39 20 -68.5 42.5t-33.5 45.5q-10 47 -6 123.5t7 160.5t-2 163t-32 132l-57 39l-49 -6l-4 18q-31 0 -50 9zM205 475l4 -8q10 -8 19.5 -14.5t17.5 -14.5q-3 13 -15 25q-12 10 -26 12zM240 383l6 -25q0 10 2 15zM246 -104q0 -16 12 -33t33 -33q-18 57 -15 126 t9 140l-29 99q0 -90 -6 -171t-4 -128zM276 313q1 -14 3 -22q2 -16 4 -31.5t6 -32.5q0 45 -13 86zM332 1348l24 16q-20 -10 -24 -16z" />
<glyph unicode="|" horiz-adv-x="233" d="M26 563.5q1 145.5 2 296t3 297t4 266.5q8 16 22.5 15.5t18.5 -19.5q0 -121 -2 -265t-4 -293.5t-3 -295t1 -266.5v-76t2 -73q4 43 6 87t4 89q2 51 5 125.5t6 155.5t6 156t7 126q-2 20 -3 39.5t-1 40.5q-4 111 -4 222t-12 222q0 23 4 25t8 -21l6 -67q0 10 1 18t3 18l25 -2 l16 2v-4q4 -66 -3 -133t-13 -133q-2 -8 -2 -24l-10 -185l-2 -14q4 -68 11 -159t13 -187t13.5 -188.5t11.5 -159.5q4 -51 4 -100.5t2 -100.5q14 -4 16 -18q-2 -14 -3 -37t-11 -35q-10 4 -18.5 6t-18.5 4q-6 70 -7 139.5t-5 139.5q-4 51 -8 101t-11 103v-196q0 -53 1.5 -98.5 t2.5 -86t-1.5 -81.5t-8.5 -86l-12 -5q0 4 -1 6.5t-1 4.5q0 8 4 16v4q-20 4 -31 4q-27 102 -28.5 206t-3.5 208q-2 121 -1 266.5z" />
<glyph unicode="}" horiz-adv-x="710" d="M15.5 1404.5q4.5 14.5 21.5 18.5q18 -6 35 -6q0 18 20 23q16 -4 32.5 -5t35.5 -3q41 10 84 10t90 -41q37 -31 67.5 -60.5t44.5 -78.5q20 -72 27.5 -138.5t3.5 -140.5q-4 -61 -20.5 -135t-18.5 -139q6 -51 26.5 -94.5t65.5 -71.5q6 0 19 4q0 2 1 4t1 6q8 16 22.5 13 t16.5 -21h37q25 -8 18 -25q0 -2 1 -3t1 -3l-12 -22q-18 -8 -49 -9l-4 -18l-50 6l-57 -39q-29 -53 -33 -132t-1 -163t7.5 -160.5t-6.5 -123.5q-4 -23 -33.5 -45.5t-68.5 -42.5q-6 -14 -18 -27q-10 -8 -32 -24.5t-40 -22.5q-29 -10 -68 -1t-65 34l-25 8q-35 4 -61 14 q-4 20 -4 31q0 -2 -2 -4q0 2 2 4q6 10 15 10t15 -6l15 -4q8 6 18 2l6 -2q4 10 17.5 9t19.5 -15h2q10 0 18.5 1t16.5 1q8 8 16 8h15q33 10 50 33.5t27.5 55.5t16.5 69t14 77l15 58q-6 86 -5.5 168t37.5 137q8 8 11 12v21q2 51 27.5 73.5t62.5 26.5q-61 37 -89 90t-37 117.5 t-3 136.5t13 146.5t9 147.5t-12 138q-39 43 -102 60q-29 10 -60 10t-61 4q-14 0 -19 12q-16 -2 -31.5 -1t-33.5 5q-20 8 -15.5 22.5zM297 1364l25 -16q-5 6 -25 16zM362 -170q20 16 33 33t13 33q2 47 -4.5 127.5t-6.5 171.5l-28 -99q6 -72 9 -140.5t-16 -125.5zM365 227 q4 16 6 32l4 32q2 8 2 22q-12 -41 -12 -86zM406 373q2 -5 2 -15l6 25zM408 438q8 8 17 14.5t19 14.5l5 8q-15 -2 -27 -12q-12 -12 -14 -25z" />
<glyph unicode="~" horiz-adv-x="970" d="M-29 659q10 66 48 122.5t92 84.5q33 27 69.5 45.5t79.5 26.5q20 4 46 -8t42 -21q33 -10 67 -24.5t56 -44.5l10 -19q33 -27 67 -50t75 -40q49 -18 105 1.5t95 60.5q8 41 9.5 75.5t25.5 51.5q4 0 6 -1t6 -1l4 49h20.5t20.5 -2v-2q0 -18 -2 -29q0 -18 -2 -36.5t-6 -37.5 q0 -41 -19.5 -83t-49.5 -58q-4 -4 -9 -4q-27 -41 -65 -62q-63 -31 -119 -35q-33 -14 -57 -14q-70 -4 -108 12.5t-61.5 43t-37.5 58.5t-37 62q-10 8 -23.5 14.5t-25.5 12.5q-25 10 -52.5 8t-55 -11t-54.5 -23.5t-45 -28.5q-8 -4 -14 -10.5t-13 -12.5l-6 -35q10 -14 -4 -24 q-10 -20 -24 -13q-12 -16 -23 -20zM147 834q23 8 44.5 13t44.5 7q-23 6 -50 2q-10 -4 -19 -10t-20 -12zM279 877q31 -14 55 -33l12 -10q31 -16 60.5 -41t58.5 -50q-6 14 -10.5 28t-8.5 26q-39 31 -79.5 54t-87.5 26zM412 735q20 -35 43.5 -61.5t64.5 -30.5q7 -2 25 -2 q-35 16 -67 42t-66 52zM508 748q4 -8 9 -14.5t13 -10.5q10 -6 21.5 -9t23.5 -7q-31 14 -67 41z" />
<glyph unicode="&#xad;" horiz-adv-x="917" d="M43 569q2 10 3 21.5t1 21.5h2q70 19 146 31q-35 2 -68 3t-68 1h-2h-8q2 10 2 20.5v20.5q49 0 72.5 -1t42 -3t42 -2t73.5 2q10 0 21 1t24 1q47 6 95 10t97 9q80 8 161 14t163 6h6l10 -41h-16q-80 -6 -160 -10t-160 -10q-41 -4 -82 -8.5t-82 -8.5q-35 -4 -42 -7t-10 -7 t-11 -9.5t-41 -11.5q82 0 139.5 3t109.5 8.5t108.5 13.5t138.5 20q4 10 16 13l29 -4h2v-15l4 -24q-2 0 -4 -2h-4q-111 -23 -198 -33t-171 -15.5t-172 -5.5h-201q-4 -2 -8 -2z" />
<glyph unicode="&#x2000;" horiz-adv-x="740" />
<glyph unicode="&#x2001;" horiz-adv-x="1481" />
<glyph unicode="&#x2002;" horiz-adv-x="740" />
<glyph unicode="&#x2003;" horiz-adv-x="1481" />
<glyph unicode="&#x2004;" horiz-adv-x="493" />
<glyph unicode="&#x2005;" horiz-adv-x="370" />
<glyph unicode="&#x2006;" horiz-adv-x="246" />
<glyph unicode="&#x2007;" horiz-adv-x="246" />
<glyph unicode="&#x2008;" horiz-adv-x="185" />
<glyph unicode="&#x2009;" horiz-adv-x="296" />
<glyph unicode="&#x200a;" horiz-adv-x="82" />
<glyph unicode="&#x2010;" horiz-adv-x="917" d="M43 569q2 10 3 21.5t1 21.5h2q70 19 146 31q-35 2 -68 3t-68 1h-2h-8q2 10 2 20.5v20.5q49 0 72.5 -1t42 -3t42 -2t73.5 2q10 0 21 1t24 1q47 6 95 10t97 9q80 8 161 14t163 6h6l10 -41h-16q-80 -6 -160 -10t-160 -10q-41 -4 -82 -8.5t-82 -8.5q-35 -4 -42 -7t-10 -7 t-11 -9.5t-41 -11.5q82 0 139.5 3t109.5 8.5t108.5 13.5t138.5 20q4 10 16 13l29 -4h2v-15l4 -24q-2 0 -4 -2h-4q-111 -23 -198 -33t-171 -15.5t-172 -5.5h-201q-4 -2 -8 -2z" />
<glyph unicode="&#x2011;" horiz-adv-x="917" d="M43 569q2 10 3 21.5t1 21.5h2q70 19 146 31q-35 2 -68 3t-68 1h-2h-8q2 10 2 20.5v20.5q49 0 72.5 -1t42 -3t42 -2t73.5 2q10 0 21 1t24 1q47 6 95 10t97 9q80 8 161 14t163 6h6l10 -41h-16q-80 -6 -160 -10t-160 -10q-41 -4 -82 -8.5t-82 -8.5q-35 -4 -42 -7t-10 -7 t-11 -9.5t-41 -11.5q82 0 139.5 3t109.5 8.5t108.5 13.5t138.5 20q4 10 16 13l29 -4h2v-15l4 -24q-2 0 -4 -2h-4q-111 -23 -198 -33t-171 -15.5t-172 -5.5h-201q-4 -2 -8 -2z" />
<glyph unicode="&#x2012;" horiz-adv-x="917" d="M43 569q2 10 3 21.5t1 21.5h2q70 19 146 31q-35 2 -68 3t-68 1h-2h-8q2 10 2 20.5v20.5q49 0 72.5 -1t42 -3t42 -2t73.5 2q10 0 21 1t24 1q47 6 95 10t97 9q80 8 161 14t163 6h6l10 -41h-16q-80 -6 -160 -10t-160 -10q-41 -4 -82 -8.5t-82 -8.5q-35 -4 -42 -7t-10 -7 t-11 -9.5t-41 -11.5q82 0 139.5 3t109.5 8.5t108.5 13.5t138.5 20q4 10 16 13l29 -4h2v-15l4 -24q-2 0 -4 -2h-4q-111 -23 -198 -33t-171 -15.5t-172 -5.5h-201q-4 -2 -8 -2z" />
<glyph unicode="&#x2013;" horiz-adv-x="1126" d="M43 569q3 10 4 21.5t1 21.5h3q87 19 183 31q-44 2 -85.5 3t-85.5 1h-2h-10q2 10 2 20.5v20.5q62 0 91.5 -1t52.5 -3t52.5 -2t92.5 2q13 0 26.5 1t30.5 1q59 6 119 10t122 9q100 8 202 14t205 6h7l13 -41h-20q-101 -6 -201.5 -10t-200.5 -10q-52 -4 -103.5 -8.5 t-102.5 -8.5q-44 -4 -53 -7t-12.5 -7t-13.5 -9.5t-52 -11.5q103 0 175.5 3t137.5 8.5t136 13.5t174 20q5 10 20 13l37 -4h2v-15l5 -24q-2 0 -5 -2h-5q-139 -23 -248.5 -33t-215 -15.5t-216 -5.5h-252.5q-5 -2 -10 -2z" />
<glyph unicode="&#x2014;" horiz-adv-x="2150" d="M43 569q5 10 7.5 21.5t2.5 21.5h5q176 19 367 31q-88 2 -171 3t-171 1h-5h-20q5 10 5 20.5v20.5q123 0 182 -1t105.5 -3t105.5 -2t185 2q25 0 52.5 1t60.5 1q118 6 238.5 10t244.5 9q201 8 404.5 14t409.5 6h15l25 -41h-40q-201 -6 -402 -10t-402 -10q-103 -4 -206 -8.5 t-206 -8.5q-88 -4 -106 -7t-25.5 -7t-27.5 -9.5t-103 -11.5q206 0 350.5 3t275.5 8.5t273 13.5t348 20q10 10 40 13l73 -4h5v-15l10 -24q-5 0 -10 -2h-10q-279 -23 -498 -33t-430 -15.5t-432 -5.5h-505q-10 -2 -20 -2z" />
<glyph unicode="&#x202f;" horiz-adv-x="296" />
<glyph unicode="&#x205f;" horiz-adv-x="370" />
<glyph unicode="&#x25fc;" horiz-adv-x="1064" d="M0 0v1065h1065v-1065h-1065z" />
</font>
</defs>
</svg>
